%TF.GenerationSoftware,KiCad,Pcbnew,(6.0.7)*%
%TF.CreationDate,2023-01-25T23:34:06+01:00*%
%TF.ProjectId,TFT_RF_1.0,5446545f-5246-45f3-912e-302e6b696361,rev?*%
%TF.SameCoordinates,Original*%
%TF.FileFunction,Copper,L1,Top*%
%TF.FilePolarity,Positive*%
%FSLAX46Y46*%
G04 Gerber Fmt 4.6, Leading zero omitted, Abs format (unit mm)*
G04 Created by KiCad (PCBNEW (6.0.7)) date 2023-01-25 23:34:06*
%MOMM*%
%LPD*%
G01*
G04 APERTURE LIST*
G04 Aperture macros list*
%AMRoundRect*
0 Rectangle with rounded corners*
0 $1 Rounding radius*
0 $2 $3 $4 $5 $6 $7 $8 $9 X,Y pos of 4 corners*
0 Add a 4 corners polygon primitive as box body*
4,1,4,$2,$3,$4,$5,$6,$7,$8,$9,$2,$3,0*
0 Add four circle primitives for the rounded corners*
1,1,$1+$1,$2,$3*
1,1,$1+$1,$4,$5*
1,1,$1+$1,$6,$7*
1,1,$1+$1,$8,$9*
0 Add four rect primitives between the rounded corners*
20,1,$1+$1,$2,$3,$4,$5,0*
20,1,$1+$1,$4,$5,$6,$7,0*
20,1,$1+$1,$6,$7,$8,$9,0*
20,1,$1+$1,$8,$9,$2,$3,0*%
G04 Aperture macros list end*
%TA.AperFunction,ComponentPad*%
%ADD10R,1.700000X1.700000*%
%TD*%
%TA.AperFunction,ComponentPad*%
%ADD11C,1.700000*%
%TD*%
%TA.AperFunction,SMDPad,CuDef*%
%ADD12RoundRect,0.250000X-0.325000X-0.450000X0.325000X-0.450000X0.325000X0.450000X-0.325000X0.450000X0*%
%TD*%
%TA.AperFunction,SMDPad,CuDef*%
%ADD13RoundRect,0.250000X-0.450000X0.325000X-0.450000X-0.325000X0.450000X-0.325000X0.450000X0.325000X0*%
%TD*%
%TA.AperFunction,SMDPad,CuDef*%
%ADD14R,1.200000X1.200000*%
%TD*%
%TA.AperFunction,SMDPad,CuDef*%
%ADD15RoundRect,0.250000X-0.350000X-0.450000X0.350000X-0.450000X0.350000X0.450000X-0.350000X0.450000X0*%
%TD*%
%TA.AperFunction,ComponentPad*%
%ADD16O,1.700000X1.700000*%
%TD*%
%TA.AperFunction,SMDPad,CuDef*%
%ADD17RoundRect,0.250000X-0.625000X0.400000X-0.625000X-0.400000X0.625000X-0.400000X0.625000X0.400000X0*%
%TD*%
%TA.AperFunction,SMDPad,CuDef*%
%ADD18RoundRect,0.250000X0.450000X-0.325000X0.450000X0.325000X-0.450000X0.325000X-0.450000X-0.325000X0*%
%TD*%
%TA.AperFunction,ComponentPad*%
%ADD19C,2.340000*%
%TD*%
%TA.AperFunction,SMDPad,CuDef*%
%ADD20RoundRect,0.250000X0.450000X-0.350000X0.450000X0.350000X-0.450000X0.350000X-0.450000X-0.350000X0*%
%TD*%
%TA.AperFunction,SMDPad,CuDef*%
%ADD21RoundRect,0.150000X0.150000X-0.587500X0.150000X0.587500X-0.150000X0.587500X-0.150000X-0.587500X0*%
%TD*%
%TA.AperFunction,SMDPad,CuDef*%
%ADD22RoundRect,0.250000X0.325000X0.450000X-0.325000X0.450000X-0.325000X-0.450000X0.325000X-0.450000X0*%
%TD*%
%TA.AperFunction,SMDPad,CuDef*%
%ADD23RoundRect,0.250000X0.625000X-0.400000X0.625000X0.400000X-0.625000X0.400000X-0.625000X-0.400000X0*%
%TD*%
%TA.AperFunction,SMDPad,CuDef*%
%ADD24RoundRect,0.250000X0.400000X0.625000X-0.400000X0.625000X-0.400000X-0.625000X0.400000X-0.625000X0*%
%TD*%
%TA.AperFunction,SMDPad,CuDef*%
%ADD25RoundRect,0.075000X-0.075000X0.700000X-0.075000X-0.700000X0.075000X-0.700000X0.075000X0.700000X0*%
%TD*%
%TA.AperFunction,SMDPad,CuDef*%
%ADD26RoundRect,0.075000X-0.700000X0.075000X-0.700000X-0.075000X0.700000X-0.075000X0.700000X0.075000X0*%
%TD*%
%TA.AperFunction,WasherPad*%
%ADD27C,2.000000*%
%TD*%
%TA.AperFunction,ComponentPad*%
%ADD28C,1.524000*%
%TD*%
%TA.AperFunction,SMDPad,CuDef*%
%ADD29RoundRect,0.250000X-0.400000X-0.625000X0.400000X-0.625000X0.400000X0.625000X-0.400000X0.625000X0*%
%TD*%
%TA.AperFunction,SMDPad,CuDef*%
%ADD30R,1.800000X2.100000*%
%TD*%
%TA.AperFunction,SMDPad,CuDef*%
%ADD31R,0.650000X2.000000*%
%TD*%
%TA.AperFunction,ComponentPad*%
%ADD32O,2.000000X1.000000*%
%TD*%
%TA.AperFunction,SMDPad,CuDef*%
%ADD33RoundRect,0.491802X1.183198X-1.008198X1.183198X1.008198X-1.183198X1.008198X-1.183198X-1.008198X0*%
%TD*%
%TA.AperFunction,ComponentPad*%
%ADD34C,1.000000*%
%TD*%
%TA.AperFunction,SMDPad,CuDef*%
%ADD35R,4.300000X1.500000*%
%TD*%
%TA.AperFunction,ComponentPad*%
%ADD36R,1.000000X1.000000*%
%TD*%
%TA.AperFunction,ComponentPad*%
%ADD37C,1.400000*%
%TD*%
%TA.AperFunction,ComponentPad*%
%ADD38R,3.500000X3.500000*%
%TD*%
%TA.AperFunction,ComponentPad*%
%ADD39C,3.500000*%
%TD*%
%TA.AperFunction,SMDPad,CuDef*%
%ADD40R,0.450000X1.380000*%
%TD*%
%TA.AperFunction,SMDPad,CuDef*%
%ADD41R,1.000000X1.900000*%
%TD*%
%TA.AperFunction,SMDPad,CuDef*%
%ADD42R,1.425000X1.550000*%
%TD*%
%TA.AperFunction,SMDPad,CuDef*%
%ADD43R,1.650000X1.300000*%
%TD*%
%TA.AperFunction,SMDPad,CuDef*%
%ADD44R,1.800000X1.900000*%
%TD*%
%TA.AperFunction,ComponentPad*%
%ADD45C,2.000000*%
%TD*%
%TA.AperFunction,SMDPad,CuDef*%
%ADD46RoundRect,0.250000X0.350000X0.450000X-0.350000X0.450000X-0.350000X-0.450000X0.350000X-0.450000X0*%
%TD*%
%TA.AperFunction,ViaPad*%
%ADD47C,0.700000*%
%TD*%
%TA.AperFunction,ViaPad*%
%ADD48C,0.800000*%
%TD*%
%TA.AperFunction,ViaPad*%
%ADD49C,1.000000*%
%TD*%
%TA.AperFunction,Conductor*%
%ADD50C,0.500000*%
%TD*%
%TA.AperFunction,Conductor*%
%ADD51C,0.300000*%
%TD*%
%TA.AperFunction,Conductor*%
%ADD52C,0.450000*%
%TD*%
%TA.AperFunction,Conductor*%
%ADD53C,0.700000*%
%TD*%
%TA.AperFunction,Conductor*%
%ADD54C,0.250000*%
%TD*%
G04 APERTURE END LIST*
D10*
%TO.P,U4,1,GND*%
%TO.N,GND*%
X67300000Y-13920000D03*
D11*
%TO.P,U4,2,VCC*%
%TO.N,+3.3V*%
X69840000Y-13920000D03*
%TO.P,U4,3,CE*%
%TO.N,/NRF_CE*%
X67300000Y-16460000D03*
%TO.P,U4,4,~{CSN}*%
%TO.N,/NRF_CSN*%
X69840000Y-16460000D03*
%TO.P,U4,5,SCK*%
%TO.N,/NRF_SCK*%
X67300000Y-19000000D03*
%TO.P,U4,6,MOSI*%
%TO.N,/NRF_MOSI*%
X69840000Y-19000000D03*
%TO.P,U4,7,MISO*%
%TO.N,/NRF_MISO*%
X67300000Y-21540000D03*
%TO.P,U4,8,IRQ*%
%TO.N,/NRF_IRQ*%
X69840000Y-21540000D03*
%TD*%
D12*
%TO.P,C16,1*%
%TO.N,/OSC32_OUT*%
X43825000Y-12950000D03*
%TO.P,C16,2*%
%TO.N,GND*%
X45875000Y-12950000D03*
%TD*%
%TO.P,C15,1*%
%TO.N,/OSC32_IN*%
X43825000Y-18550000D03*
%TO.P,C15,2*%
%TO.N,GND*%
X45875000Y-18550000D03*
%TD*%
D13*
%TO.P,C11,1*%
%TO.N,+3.3VA*%
X26675000Y-26975000D03*
%TO.P,C11,2*%
%TO.N,GND*%
X26675000Y-29025000D03*
%TD*%
D14*
%TO.P,D4,1,K*%
%TO.N,Net-(Q1-Pad1)*%
X69750000Y-36225000D03*
%TO.P,D4,2,A*%
%TO.N,GND*%
X69750000Y-39025000D03*
%TD*%
D15*
%TO.P,D6,1,K*%
%TO.N,GND*%
X74375000Y-57625000D03*
%TO.P,D6,2,A*%
%TO.N,Net-(D6-Pad2)*%
X76375000Y-57625000D03*
%TD*%
D13*
%TO.P,C6,1*%
%TO.N,/ADC_BATT*%
X37375000Y-37825000D03*
%TO.P,C6,2*%
%TO.N,GND*%
X37375000Y-39875000D03*
%TD*%
D10*
%TO.P,J4,1,Pin_1*%
%TO.N,+3.3V*%
X3000000Y-6850000D03*
D16*
%TO.P,J4,2,Pin_2*%
%TO.N,GND*%
X3000000Y-9390000D03*
%TO.P,J4,3,Pin_3*%
X3000000Y-11930000D03*
%TO.P,J4,4,Pin_4*%
%TO.N,/TFT_RESET*%
X3000000Y-14470000D03*
%TO.P,J4,5,Pin_5*%
%TO.N,/TFT_DC*%
X3000000Y-17010000D03*
%TO.P,J4,6,Pin_6*%
%TO.N,/TFT_MOSI*%
X3000000Y-19550000D03*
%TO.P,J4,7,Pin_7*%
%TO.N,/TFT_SCK*%
X3000000Y-22090000D03*
%TO.P,J4,8,Pin_8*%
%TO.N,/TFT_LED*%
X3000000Y-24630000D03*
%TO.P,J4,9,Pin_9*%
%TO.N,/TFT_MISO*%
X3000000Y-27170000D03*
%TO.P,J4,10,Pin_10*%
%TO.N,/T_CLK*%
X3000000Y-29710000D03*
%TO.P,J4,11,Pin_11*%
%TO.N,GND*%
X3000000Y-32250000D03*
%TO.P,J4,12,Pin_12*%
%TO.N,/T_DIN*%
X3000000Y-34790000D03*
%TO.P,J4,13,Pin_13*%
%TO.N,/T_DO*%
X3000000Y-37330000D03*
%TO.P,J4,14,Pin_14*%
%TO.N,/T_IRQ*%
X3000000Y-39870000D03*
%TD*%
D17*
%TO.P,R7,1*%
%TO.N,Net-(R7-Pad1)*%
X39100000Y-49500000D03*
%TO.P,R7,2*%
%TO.N,GND*%
X39100000Y-52600000D03*
%TD*%
D18*
%TO.P,C13,1*%
%TO.N,+3.3VA*%
X28825000Y-26525000D03*
%TO.P,C13,2*%
%TO.N,GND*%
X28825000Y-24475000D03*
%TD*%
D17*
%TO.P,R2,1*%
%TO.N,/ADC_BATT*%
X32500000Y-37325000D03*
%TO.P,R2,2*%
%TO.N,+BATT*%
X32500000Y-40425000D03*
%TD*%
D12*
%TO.P,C14,1*%
%TO.N,NRST*%
X43460000Y-8820000D03*
%TO.P,C14,2*%
%TO.N,GND*%
X45510000Y-8820000D03*
%TD*%
D19*
%TO.P,RV1,1,1*%
%TO.N,GND*%
X8575000Y-49500000D03*
%TO.P,RV1,2,2*%
%TO.N,/TFT_LED*%
X6075000Y-54500000D03*
%TO.P,RV1,3,3*%
%TO.N,+3.3V*%
X3575000Y-49500000D03*
%TD*%
D20*
%TO.P,D2,1,K*%
%TO.N,Net-(D2-Pad1)*%
X50490000Y-49340000D03*
%TO.P,D2,2,A*%
%TO.N,Net-(D2-Pad2)*%
X50490000Y-47340000D03*
%TD*%
D13*
%TO.P,C9,1*%
%TO.N,+3.3V*%
X46200000Y-20450000D03*
%TO.P,C9,2*%
%TO.N,GND*%
X46200000Y-22500000D03*
%TD*%
D21*
%TO.P,Q1,1,G*%
%TO.N,Net-(Q1-Pad1)*%
X68425000Y-33937500D03*
%TO.P,Q1,2,S*%
%TO.N,GND*%
X70325000Y-33937500D03*
%TO.P,Q1,3,D*%
%TO.N,/GND_DI62*%
X69375000Y-32062500D03*
%TD*%
D22*
%TO.P,C4,1*%
%TO.N,+3.3V*%
X64325000Y-34400000D03*
%TO.P,C4,2*%
%TO.N,/GND_DI62*%
X62275000Y-34400000D03*
%TD*%
D21*
%TO.P,U2,1,GND*%
%TO.N,/GND_DI62*%
X55650000Y-32287500D03*
%TO.P,U2,2,VO*%
%TO.N,+3.3V*%
X57550000Y-32287500D03*
%TO.P,U2,3,VI*%
%TO.N,/VIN_DI*%
X56600000Y-30412500D03*
%TD*%
D23*
%TO.P,R6,1*%
%TO.N,GND*%
X41600000Y-50600000D03*
%TO.P,R6,2*%
%TO.N,Net-(R6-Pad2)*%
X41600000Y-47500000D03*
%TD*%
D24*
%TO.P,R10,1*%
%TO.N,Net-(Q1-Pad1)*%
X52250000Y-38625000D03*
%TO.P,R10,2*%
%TO.N,+5V*%
X49150000Y-38625000D03*
%TD*%
D18*
%TO.P,C12,1*%
%TO.N,+3.3V*%
X29900000Y-30900000D03*
%TO.P,C12,2*%
%TO.N,GND*%
X29900000Y-28850000D03*
%TD*%
D25*
%TO.P,U1,1,VBAT*%
%TO.N,+3.3V*%
X41750000Y-19325000D03*
%TO.P,U1,2,PC13*%
%TO.N,unconnected-(U1-Pad2)*%
X41250000Y-19325000D03*
%TO.P,U1,3,PC14-OSC32_IN*%
%TO.N,/OSC32_IN*%
X40750000Y-19325000D03*
%TO.P,U1,4,PC15-OSC32_OUT*%
%TO.N,/OSC32_OUT*%
X40250000Y-19325000D03*
%TO.P,U1,5,PF0-OSC_IN*%
%TO.N,/HSE_IN*%
X39750000Y-19325000D03*
%TO.P,U1,6,PF1-OSC_OUT*%
%TO.N,/HSE_OUT*%
X39250000Y-19325000D03*
%TO.P,U1,7,PG10-NRST*%
%TO.N,NRST*%
X38750000Y-19325000D03*
%TO.P,U1,8,PC0*%
%TO.N,/NRF_CSN*%
X38250000Y-19325000D03*
%TO.P,U1,9,PC1*%
%TO.N,unconnected-(U1-Pad9)*%
X37750000Y-19325000D03*
%TO.P,U1,10,PC2*%
%TO.N,/NRF_CE*%
X37250000Y-19325000D03*
%TO.P,U1,11,PC3*%
%TO.N,/NRF_IRQ*%
X36750000Y-19325000D03*
%TO.P,U1,12,PA0*%
%TO.N,/ADC_BATT*%
X36250000Y-19325000D03*
%TO.P,U1,13,PA1*%
%TO.N,/T_IRQ*%
X35750000Y-19325000D03*
%TO.P,U1,14,PA2*%
%TO.N,/RXD*%
X35250000Y-19325000D03*
%TO.P,U1,15,VSS*%
%TO.N,GND*%
X34750000Y-19325000D03*
%TO.P,U1,16,VDD*%
%TO.N,+3.3V*%
X34250000Y-19325000D03*
D26*
%TO.P,U1,17,PA3*%
%TO.N,/TXD*%
X32325000Y-21250000D03*
%TO.P,U1,18,PA4*%
%TO.N,/STATE*%
X32325000Y-21750000D03*
%TO.P,U1,19,PA5*%
%TO.N,/TFT_SCK*%
X32325000Y-22250000D03*
%TO.P,U1,20,PA6*%
%TO.N,/TFT_MISO*%
X32325000Y-22750000D03*
%TO.P,U1,21,PA7*%
%TO.N,/TFT_MOSI*%
X32325000Y-23250000D03*
%TO.P,U1,22,PC4*%
%TO.N,/EN*%
X32325000Y-23750000D03*
%TO.P,U1,23,PC5*%
%TO.N,unconnected-(U1-Pad23)*%
X32325000Y-24250000D03*
%TO.P,U1,24,PB0*%
%TO.N,unconnected-(U1-Pad24)*%
X32325000Y-24750000D03*
%TO.P,U1,25,PB1*%
%TO.N,unconnected-(U1-Pad25)*%
X32325000Y-25250000D03*
%TO.P,U1,26,PB2*%
%TO.N,unconnected-(U1-Pad26)*%
X32325000Y-25750000D03*
%TO.P,U1,27,VSSA*%
%TO.N,GND*%
X32325000Y-26250000D03*
%TO.P,U1,28,VREF+*%
%TO.N,Net-(R8-Pad2)*%
X32325000Y-26750000D03*
%TO.P,U1,29,VDDA*%
%TO.N,+3.3VA*%
X32325000Y-27250000D03*
%TO.P,U1,30,PB10*%
%TO.N,unconnected-(U1-Pad30)*%
X32325000Y-27750000D03*
%TO.P,U1,31,VSS*%
%TO.N,GND*%
X32325000Y-28250000D03*
%TO.P,U1,32,VDD*%
%TO.N,+3.3V*%
X32325000Y-28750000D03*
D25*
%TO.P,U1,33,PB11*%
%TO.N,unconnected-(U1-Pad33)*%
X34250000Y-30675000D03*
%TO.P,U1,34,PB12*%
%TO.N,unconnected-(U1-Pad34)*%
X34750000Y-30675000D03*
%TO.P,U1,35,PB13*%
%TO.N,/T_CLK*%
X35250000Y-30675000D03*
%TO.P,U1,36,PB14*%
%TO.N,unconnected-(U1-Pad36)*%
X35750000Y-30675000D03*
%TO.P,U1,37,PB15*%
%TO.N,unconnected-(U1-Pad37)*%
X36250000Y-30675000D03*
%TO.P,U1,38,PC6*%
%TO.N,unconnected-(U1-Pad38)*%
X36750000Y-30675000D03*
%TO.P,U1,39,PC7*%
%TO.N,unconnected-(U1-Pad39)*%
X37250000Y-30675000D03*
%TO.P,U1,40,PC8*%
%TO.N,Net-(U1-Pad40)*%
X37750000Y-30675000D03*
%TO.P,U1,41,PC9*%
%TO.N,Net-(U1-Pad41)*%
X38250000Y-30675000D03*
%TO.P,U1,42,PA8*%
%TO.N,/TFT_RESET*%
X38750000Y-30675000D03*
%TO.P,U1,43,PA9*%
%TO.N,/TFT_DC*%
X39250000Y-30675000D03*
%TO.P,U1,44,PA10*%
%TO.N,/T_DO*%
X39750000Y-30675000D03*
%TO.P,U1,45,PA11*%
%TO.N,/T_DIN*%
X40250000Y-30675000D03*
%TO.P,U1,46,PA12*%
%TO.N,Net-(U1-Pad46)*%
X40750000Y-30675000D03*
%TO.P,U1,47,VSS*%
%TO.N,GND*%
X41250000Y-30675000D03*
%TO.P,U1,48,VDD*%
%TO.N,+3.3V*%
X41750000Y-30675000D03*
D26*
%TO.P,U1,49,PA13*%
%TO.N,/SWDIO*%
X43675000Y-28750000D03*
%TO.P,U1,50,PA14*%
%TO.N,/SWCLK*%
X43675000Y-28250000D03*
%TO.P,U1,51,PA15*%
%TO.N,Net-(Q1-Pad1)*%
X43675000Y-27750000D03*
%TO.P,U1,52,PC10*%
%TO.N,/NRF_SCK*%
X43675000Y-27250000D03*
%TO.P,U1,53,PC11*%
%TO.N,/NRF_MISO*%
X43675000Y-26750000D03*
%TO.P,U1,54,PC12*%
%TO.N,/NRF_MOSI*%
X43675000Y-26250000D03*
%TO.P,U1,55,PD2*%
%TO.N,unconnected-(U1-Pad55)*%
X43675000Y-25750000D03*
%TO.P,U1,56,PB3*%
%TO.N,/SWO*%
X43675000Y-25250000D03*
%TO.P,U1,57,PB4*%
%TO.N,unconnected-(U1-Pad57)*%
X43675000Y-24750000D03*
%TO.P,U1,58,PB5*%
%TO.N,unconnected-(U1-Pad58)*%
X43675000Y-24250000D03*
%TO.P,U1,59,PB6*%
%TO.N,unconnected-(U1-Pad59)*%
X43675000Y-23750000D03*
%TO.P,U1,60,PB7*%
%TO.N,unconnected-(U1-Pad60)*%
X43675000Y-23250000D03*
%TO.P,U1,61,PB8-BOOT0*%
%TO.N,/BOOT0*%
X43675000Y-22750000D03*
%TO.P,U1,62,PB9*%
%TO.N,unconnected-(U1-Pad62)*%
X43675000Y-22250000D03*
%TO.P,U1,63,VSS*%
%TO.N,GND*%
X43675000Y-21750000D03*
%TO.P,U1,64,VDD*%
%TO.N,+3.3V*%
X43675000Y-21250000D03*
%TD*%
D27*
%TO.P,SW4,*%
%TO.N,*%
X24400000Y-47695000D03*
X16200000Y-47695000D03*
D28*
%TO.P,SW4,1,A*%
%TO.N,+BATT*%
X18350000Y-47645000D03*
%TO.P,SW4,2,B*%
%TO.N,/VIN_DI*%
X20300000Y-47695000D03*
%TO.P,SW4,3,C*%
%TO.N,+5V*%
X22300000Y-47695000D03*
%TD*%
D15*
%TO.P,D1,1,K*%
%TO.N,Net-(D1-Pad1)*%
X74875000Y-29575000D03*
%TO.P,D1,2,A*%
%TO.N,+3.3V*%
X76875000Y-29575000D03*
%TD*%
D22*
%TO.P,C3,1*%
%TO.N,+3.3V*%
X57550000Y-34400000D03*
%TO.P,C3,2*%
%TO.N,/GND_DI62*%
X55500000Y-34400000D03*
%TD*%
D12*
%TO.P,C20,1*%
%TO.N,+5V*%
X44950000Y-53300000D03*
%TO.P,C20,2*%
%TO.N,GND*%
X47000000Y-53300000D03*
%TD*%
D13*
%TO.P,C10,1*%
%TO.N,+3.3V*%
X43450000Y-31400000D03*
%TO.P,C10,2*%
%TO.N,GND*%
X43450000Y-33450000D03*
%TD*%
D29*
%TO.P,R8,1*%
%TO.N,+3.3VA*%
X21200000Y-23500000D03*
%TO.P,R8,2*%
%TO.N,Net-(R8-Pad2)*%
X24300000Y-23500000D03*
%TD*%
D12*
%TO.P,C5,1*%
%TO.N,+3.3V*%
X29080000Y-11530000D03*
%TO.P,C5,2*%
%TO.N,GND*%
X31130000Y-11530000D03*
%TD*%
D30*
%TO.P,Y2,1,1*%
%TO.N,/HSE_OUT*%
X36620000Y-13330000D03*
%TO.P,Y2,2,2*%
%TO.N,Net-(C18-Pad1)*%
X36620000Y-16230000D03*
%TO.P,Y2,3,3*%
%TO.N,/HSE_IN*%
X38820000Y-16230000D03*
%TO.P,Y2,4,4*%
%TO.N,Net-(C17-Pad2)*%
X38820000Y-13330000D03*
%TD*%
D12*
%TO.P,C8,1*%
%TO.N,+3.3V*%
X30350000Y-16750000D03*
%TO.P,C8,2*%
%TO.N,GND*%
X32400000Y-16750000D03*
%TD*%
D17*
%TO.P,R5,1*%
%TO.N,+BATT*%
X50540000Y-42240000D03*
%TO.P,R5,2*%
%TO.N,Net-(D2-Pad2)*%
X50540000Y-45340000D03*
%TD*%
%TO.P,R13,1*%
%TO.N,Net-(U1-Pad41)*%
X53000000Y-50400000D03*
%TO.P,R13,2*%
%TO.N,Net-(D6-Pad2)*%
X53000000Y-53500000D03*
%TD*%
D31*
%TO.P,U5,1,TS*%
%TO.N,Net-(R6-Pad2)*%
X45950000Y-45390000D03*
%TO.P,U5,2,OUT*%
%TO.N,+BATT*%
X45000000Y-45390000D03*
%TO.P,U5,3,CHG_N*%
%TO.N,Net-(D2-Pad1)*%
X44050000Y-45390000D03*
%TO.P,U5,4,ISET*%
%TO.N,Net-(R7-Pad1)*%
X44050000Y-48810000D03*
%TO.P,U5,5,GND*%
%TO.N,GND*%
X45000000Y-48810000D03*
%TO.P,U5,6,VIN*%
%TO.N,+5V*%
X45950000Y-48810000D03*
%TD*%
D21*
%TO.P,U3,1,GND*%
%TO.N,/GND_DI62*%
X62400000Y-32237500D03*
%TO.P,U3,2,VO*%
%TO.N,+3.3V*%
X64300000Y-32237500D03*
%TO.P,U3,3,VI*%
%TO.N,/VIN_DI*%
X63350000Y-30362500D03*
%TD*%
D13*
%TO.P,C2,1*%
%TO.N,/VIN_DI*%
X60550000Y-30275000D03*
%TO.P,C2,2*%
%TO.N,/GND_DI62*%
X60550000Y-32325000D03*
%TD*%
D22*
%TO.P,C18,1*%
%TO.N,Net-(C18-Pad1)*%
X34500000Y-14750000D03*
%TO.P,C18,2*%
%TO.N,GND*%
X32450000Y-14750000D03*
%TD*%
D32*
%TO.P,J1,1,Pin_1*%
%TO.N,+3.3V*%
X73800000Y-14700000D03*
%TO.P,J1,2,Pin_2*%
%TO.N,GND*%
X73800000Y-15970000D03*
%TO.P,J1,3,Pin_3*%
%TO.N,/NRF_CE*%
X73800000Y-17240000D03*
%TO.P,J1,4,Pin_4*%
%TO.N,/NRF_CSN*%
X73800000Y-18510000D03*
%TO.P,J1,5,Pin_5*%
%TO.N,/NRF_SCK*%
X73800000Y-19780000D03*
%TO.P,J1,6,Pin_6*%
%TO.N,/NRF_MOSI*%
X73800000Y-21050000D03*
%TO.P,J1,7,Pin_7*%
%TO.N,/NRF_MISO*%
X73800000Y-22320000D03*
%TO.P,J1,8,Pin_8*%
%TO.N,/NRF_IRQ*%
X73800000Y-23590000D03*
%TD*%
D23*
%TO.P,R9,1*%
%TO.N,GND*%
X39750000Y-40625000D03*
%TO.P,R9,2*%
%TO.N,/ADC_BATT*%
X39750000Y-37525000D03*
%TD*%
D14*
%TO.P,D3,1,K*%
%TO.N,/ADC_BATT*%
X35000000Y-37375000D03*
%TO.P,D3,2,A*%
%TO.N,GND*%
X35000000Y-40175000D03*
%TD*%
D33*
%TO.P,FB1,1*%
%TO.N,+3.3V*%
X23005000Y-34375000D03*
%TO.P,FB1,2*%
%TO.N,+3.3VA*%
X23005000Y-26375000D03*
%TD*%
D34*
%TO.P,Y1,1,1*%
%TO.N,/OSC32_IN*%
X43875000Y-16500000D03*
%TO.P,Y1,2,2*%
%TO.N,/OSC32_OUT*%
X43875000Y-15000000D03*
D35*
%TO.P,Y1,3*%
%TO.N,N/C*%
X48025000Y-15750000D03*
D36*
X48025000Y-14750000D03*
X48025000Y-16750000D03*
%TD*%
D10*
%TO.P,J5,1,Pin_1*%
%TO.N,/STATE*%
X14750000Y-5000000D03*
D16*
%TO.P,J5,2,Pin_2*%
%TO.N,/RXD*%
X17290000Y-5000000D03*
%TO.P,J5,3,Pin_3*%
%TO.N,/TXD*%
X19830000Y-5000000D03*
%TO.P,J5,4,Pin_4*%
%TO.N,GND*%
X22370000Y-5000000D03*
%TO.P,J5,5,Pin_5*%
%TO.N,+5V*%
X24910000Y-5000000D03*
%TO.P,J5,6,Pin_6*%
%TO.N,/EN*%
X27450000Y-5000000D03*
%TD*%
D21*
%TO.P,Q2,1,G*%
%TO.N,Net-(Q1-Pad1)*%
X73425000Y-33937500D03*
%TO.P,Q2,2,S*%
%TO.N,GND*%
X75325000Y-33937500D03*
%TO.P,Q2,3,D*%
%TO.N,/GND_DI62*%
X74375000Y-32062500D03*
%TD*%
D37*
%TO.P,XT30PW1,*%
%TO.N,*%
X56000000Y-45000000D03*
X67000000Y-45000000D03*
D38*
%TO.P,XT30PW1,1,Pin_1*%
%TO.N,GND*%
X64000000Y-55000000D03*
D39*
%TO.P,XT30PW1,2,Pin_2*%
%TO.N,+BATT*%
X59000000Y-55000000D03*
%TD*%
D40*
%TO.P,J2,1,VBUS*%
%TO.N,+5V*%
X44700000Y-55940000D03*
%TO.P,J2,2,D-*%
%TO.N,unconnected-(J2-Pad2)*%
X45350000Y-55940000D03*
%TO.P,J2,3,D+*%
%TO.N,unconnected-(J2-Pad3)*%
X46000000Y-55940000D03*
%TO.P,J2,4,ID*%
%TO.N,unconnected-(J2-Pad4)*%
X46650000Y-55940000D03*
%TO.P,J2,5,GND*%
%TO.N,GND*%
X47300000Y-55940000D03*
D41*
%TO.P,J2,6,Shield*%
%TO.N,unconnected-(J2-Pad6)*%
X47550000Y-58600000D03*
D42*
X43512500Y-56025000D03*
D43*
X49375000Y-58600000D03*
D42*
X48487500Y-56025000D03*
D44*
X44850000Y-58600000D03*
D43*
X42625000Y-58600000D03*
%TD*%
D27*
%TO.P,SW1,*%
%TO.N,*%
X16200000Y-54400000D03*
X24400000Y-54400000D03*
D28*
%TO.P,SW1,1,A*%
%TO.N,GND*%
X18350000Y-54350000D03*
%TO.P,SW1,2,B*%
%TO.N,/BOOT0_SW*%
X20300000Y-54400000D03*
%TO.P,SW1,3,C*%
%TO.N,+3.3V*%
X22300000Y-54400000D03*
%TD*%
D13*
%TO.P,C1,1*%
%TO.N,/VIN_DI*%
X53500000Y-30350000D03*
%TO.P,C1,2*%
%TO.N,/GND_DI62*%
X53500000Y-32400000D03*
%TD*%
D18*
%TO.P,C7,1*%
%TO.N,+3.3V*%
X27300000Y-33050000D03*
%TO.P,C7,2*%
%TO.N,GND*%
X27300000Y-31000000D03*
%TD*%
D29*
%TO.P,R3,1*%
%TO.N,/BOOT0_SW*%
X27080000Y-38900000D03*
%TO.P,R3,2*%
%TO.N,/BOOT0*%
X30180000Y-38900000D03*
%TD*%
D24*
%TO.P,R1,1*%
%TO.N,Net-(D1-Pad1)*%
X71925000Y-29625000D03*
%TO.P,R1,2*%
%TO.N,/GND_DI62*%
X68825000Y-29625000D03*
%TD*%
D45*
%TO.P,SW2,1*%
%TO.N,NRST*%
X28550000Y-47250000D03*
X28550000Y-53750000D03*
%TO.P,SW2,2*%
%TO.N,GND*%
X33050000Y-47250000D03*
X33050000Y-53750000D03*
%TD*%
D29*
%TO.P,R12,1*%
%TO.N,Net-(U1-Pad40)*%
X65275000Y-58500000D03*
%TO.P,R12,2*%
%TO.N,Net-(D5-Pad2)*%
X68375000Y-58500000D03*
%TD*%
D13*
%TO.P,C19,1*%
%TO.N,+BATT*%
X52700000Y-55550000D03*
%TO.P,C19,2*%
%TO.N,GND*%
X52700000Y-57600000D03*
%TD*%
D45*
%TO.P,SW3,1*%
%TO.N,Net-(U1-Pad46)*%
X71375000Y-54250000D03*
X71375000Y-47750000D03*
%TO.P,SW3,2*%
%TO.N,GND*%
X75875000Y-54250000D03*
X75875000Y-47750000D03*
%TD*%
D10*
%TO.P,J3,1,Pin_1*%
%TO.N,+3.3V*%
X32100000Y-5030000D03*
D16*
%TO.P,J3,2,Pin_2*%
%TO.N,/SWCLK*%
X34640000Y-5030000D03*
%TO.P,J3,3,Pin_3*%
%TO.N,GND*%
X37180000Y-5030000D03*
%TO.P,J3,4,Pin_4*%
%TO.N,/SWDIO*%
X39720000Y-5030000D03*
%TO.P,J3,5,Pin_5*%
%TO.N,NRST*%
X42260000Y-5030000D03*
%TO.P,J3,6,Pin_6*%
%TO.N,/SWO*%
X44800000Y-5030000D03*
%TD*%
D13*
%TO.P,C17,1*%
%TO.N,GND*%
X41160000Y-11415000D03*
%TO.P,C17,2*%
%TO.N,Net-(C17-Pad2)*%
X41160000Y-13465000D03*
%TD*%
D24*
%TO.P,R4,1*%
%TO.N,+3.3V*%
X31600000Y-43800000D03*
%TO.P,R4,2*%
%TO.N,NRST*%
X28500000Y-43800000D03*
%TD*%
D17*
%TO.P,R11,1*%
%TO.N,+3.3V*%
X64250000Y-37025000D03*
%TO.P,R11,2*%
%TO.N,Net-(U1-Pad46)*%
X64250000Y-40125000D03*
%TD*%
D46*
%TO.P,D5,1,K*%
%TO.N,GND*%
X72375000Y-57625000D03*
%TO.P,D5,2,A*%
%TO.N,Net-(D5-Pad2)*%
X70375000Y-57625000D03*
%TD*%
D47*
%TO.N,+BATT*%
X21020000Y-42990000D03*
X48240000Y-41850000D03*
D48*
X35125000Y-42375000D03*
D49*
%TO.N,GND*%
X42375000Y-35000000D03*
D47*
X75375000Y-36125000D03*
X69500000Y-34000000D03*
D49*
X44125000Y-50625000D03*
X48860000Y-52630000D03*
D47*
X71875000Y-33250000D03*
X71875000Y-34750000D03*
X76875000Y-33750000D03*
X18750000Y-25500000D03*
X76750000Y-35500000D03*
D48*
%TO.N,/STATE*%
X15625000Y-11250000D03*
X14750000Y-8500000D03*
D47*
%TO.N,NRST*%
X40610000Y-21280000D03*
X41600000Y-7980000D03*
%TO.N,+5V*%
X26390000Y-51850000D03*
%TO.N,/SWCLK*%
X45875000Y-28625000D03*
X56430000Y-14420000D03*
%TO.N,/SWDIO*%
X41700000Y-21240000D03*
X41700000Y-9510000D03*
%TO.N,/T_CLK*%
X23200000Y-29725000D03*
X33975000Y-32175500D03*
%TO.N,/T_DIN*%
X19800000Y-34775000D03*
X33650000Y-34775000D03*
%TO.N,/T_DO*%
X26750000Y-36325000D03*
X30425000Y-36325000D03*
%TO.N,/SWO*%
X53850000Y-14980000D03*
X53850000Y-20730000D03*
%TO.N,/BOOT0*%
X41530000Y-26630000D03*
X41020000Y-34540000D03*
D48*
%TO.N,/RXD*%
X35000000Y-21250000D03*
X18875000Y-11000000D03*
X32125000Y-19099500D03*
X17750000Y-8625000D03*
%TO.N,/TXD*%
X21375000Y-11750000D03*
X20125000Y-8500000D03*
%TO.N,/EN*%
X25500000Y-8500000D03*
X24250000Y-13250000D03*
D47*
%TO.N,/VIN_DI*%
X48619622Y-32005378D03*
X25140000Y-41270000D03*
%TO.N,/NRF_CE*%
X48590000Y-23010000D03*
X37890000Y-22990000D03*
%TO.N,/NRF_CSN*%
X51460000Y-21550000D03*
X38700000Y-22180000D03*
%TO.N,/NRF_MISO*%
X63050000Y-22820000D03*
X63050000Y-25920000D03*
%TO.N,/TFT_RESET*%
X38125000Y-27750000D03*
X19625000Y-17625000D03*
%TO.N,/TFT_DC*%
X39250000Y-27625000D03*
X15700000Y-16225000D03*
%TO.N,/TFT_MOSI*%
X17750000Y-20425000D03*
X17750000Y-17825000D03*
%TO.N,/TFT_LED*%
X13430000Y-39590000D03*
X8030000Y-24630000D03*
%TO.N,/NRF_IRQ*%
X37040000Y-23520000D03*
X52650000Y-22850000D03*
%TO.N,/ADC_BATT*%
X35500000Y-26750000D03*
X36250000Y-35750000D03*
D49*
%TO.N,/GND_DI62*%
X53375000Y-34125000D03*
X60500000Y-34875000D03*
X66750000Y-34125000D03*
D47*
%TO.N,+3.3V*%
X72500000Y-13125000D03*
X51040000Y-18130000D03*
X48120000Y-20060000D03*
X75030000Y-12020000D03*
D48*
%TO.N,Net-(Q1-Pad1)*%
X54000000Y-35625000D03*
X54750000Y-37625000D03*
D47*
%TO.N,Net-(U1-Pad46)*%
X51875000Y-35500000D03*
X55875000Y-39500000D03*
%TO.N,Net-(D6-Pad2)*%
X64750000Y-51000000D03*
X73875000Y-50875000D03*
%TO.N,Net-(U1-Pad40)*%
X37375000Y-32175500D03*
X53625000Y-41500000D03*
%TO.N,Net-(U1-Pad41)*%
X38500000Y-32175500D03*
X53875000Y-43125000D03*
%TD*%
D50*
%TO.N,+BATT*%
X21020000Y-42990000D02*
X21000000Y-43010000D01*
D51*
X35125000Y-42375000D02*
X33750000Y-42375000D01*
D50*
X49580000Y-43200000D02*
X50540000Y-42240000D01*
D51*
X33750000Y-42375000D02*
X32500000Y-41125000D01*
D50*
X48025000Y-49725000D02*
X48025000Y-44175000D01*
X51400000Y-53100000D02*
X48025000Y-49725000D01*
X52700000Y-55550000D02*
X53250000Y-55000000D01*
D51*
X32500000Y-41125000D02*
X32500000Y-40425000D01*
D50*
X47050000Y-43200000D02*
X49580000Y-43200000D01*
X48025000Y-44175000D02*
X47050000Y-43200000D01*
X21000000Y-43010000D02*
X19470000Y-43010000D01*
X53250000Y-55000000D02*
X59000000Y-55000000D01*
X19470000Y-43010000D02*
X18350000Y-44130000D01*
X51400000Y-54325000D02*
X51400000Y-53100000D01*
X47050000Y-43200000D02*
X45275000Y-43200000D01*
X48240000Y-42010000D02*
X47050000Y-43200000D01*
X52625000Y-55550000D02*
X51400000Y-54325000D01*
X18350000Y-44130000D02*
X18350000Y-47645000D01*
X48240000Y-41850000D02*
X48240000Y-42010000D01*
X45000000Y-43475000D02*
X45000000Y-45390000D01*
X45275000Y-43200000D02*
X45000000Y-43475000D01*
%TO.N,GND*%
X25375000Y-21875000D02*
X27975000Y-24475000D01*
D51*
X43450000Y-33450000D02*
X43450000Y-33925000D01*
X34750000Y-17980000D02*
X34410000Y-17640000D01*
X32400000Y-17640000D02*
X32400000Y-15770000D01*
X37375000Y-39875000D02*
X41500000Y-39875000D01*
X35000000Y-40175000D02*
X37075000Y-40175000D01*
X37180000Y-8990000D02*
X37180000Y-5030000D01*
X45035000Y-11415000D02*
X45875000Y-12255000D01*
X45035000Y-9295000D02*
X45510000Y-8820000D01*
D50*
X19650000Y-25530000D02*
X19650000Y-22640000D01*
D52*
X52700000Y-57600000D02*
X63100000Y-57600000D01*
D51*
X48900000Y-19400000D02*
X48050000Y-18550000D01*
D50*
X45000000Y-50125000D02*
X45000000Y-50760000D01*
D51*
X30500000Y-28250000D02*
X29900000Y-28850000D01*
D52*
X63100000Y-57600000D02*
X64000000Y-56700000D01*
D50*
X44500000Y-50625000D02*
X45000000Y-50125000D01*
D51*
X39605000Y-11415000D02*
X37180000Y-8990000D01*
X43450000Y-33925000D02*
X42375000Y-35000000D01*
D50*
X19650000Y-22640000D02*
X20415000Y-21875000D01*
X44185000Y-51575000D02*
X44075000Y-51575000D01*
X75970000Y-15940000D02*
X75970000Y-14500000D01*
X20210000Y-28450000D02*
X19650000Y-27890000D01*
X19650000Y-27890000D02*
X19650000Y-25530000D01*
D51*
X72375000Y-57625000D02*
X74375000Y-57625000D01*
D52*
X49450000Y-54425000D02*
X49450000Y-53220000D01*
D51*
X45000000Y-48810000D02*
X45000000Y-47500000D01*
X34750000Y-19325000D02*
X34750000Y-17980000D01*
D53*
X74375000Y-36125000D02*
X75375000Y-36125000D01*
D50*
X27300000Y-31000000D02*
X27300000Y-30275000D01*
D51*
X41250000Y-32325000D02*
X42375000Y-33450000D01*
X47375000Y-48125000D02*
X47375000Y-51145000D01*
D52*
X64000000Y-56700000D02*
X64000000Y-55000000D01*
D51*
X45035000Y-11415000D02*
X45035000Y-9295000D01*
X48110050Y-22500000D02*
X49350000Y-21260050D01*
X30900000Y-25701041D02*
X30900000Y-25050000D01*
D50*
X75940000Y-15970000D02*
X75970000Y-15940000D01*
X41600000Y-51575000D02*
X40575000Y-52600000D01*
D51*
X43675000Y-21750000D02*
X45450000Y-21750000D01*
D50*
X73650000Y-12180000D02*
X67870000Y-12180000D01*
X27300000Y-30275000D02*
X26675000Y-29650000D01*
X67300000Y-12750000D02*
X67300000Y-13920000D01*
X24130000Y-28450000D02*
X20210000Y-28450000D01*
D51*
X30900000Y-25050000D02*
X30325000Y-24475000D01*
D50*
X26675000Y-29650000D02*
X26675000Y-29025000D01*
D51*
X48050000Y-18550000D02*
X45875000Y-18550000D01*
X46200000Y-22500000D02*
X48110050Y-22500000D01*
X42375000Y-33450000D02*
X43450000Y-33450000D01*
D50*
X19650000Y-25530000D02*
X18780000Y-25530000D01*
D51*
X48900000Y-18950000D02*
X51380000Y-16470000D01*
X49840000Y-12870000D02*
X45955000Y-12870000D01*
X51380000Y-14410000D02*
X49840000Y-12870000D01*
D52*
X51375000Y-57600000D02*
X52700000Y-57600000D01*
D51*
X45125000Y-47375000D02*
X46625000Y-47375000D01*
D50*
X27975000Y-24475000D02*
X28825000Y-24475000D01*
D51*
X41500000Y-39875000D02*
X42500000Y-38875000D01*
D52*
X50850000Y-55825000D02*
X50850000Y-57075000D01*
D51*
X34640000Y-11530000D02*
X37180000Y-8990000D01*
X41160000Y-11415000D02*
X39605000Y-11415000D01*
X31448959Y-26250000D02*
X30900000Y-25701041D01*
X47375000Y-51145000D02*
X48860000Y-52630000D01*
D50*
X41600000Y-50600000D02*
X41600000Y-51575000D01*
D51*
X49350000Y-21260050D02*
X49350000Y-19850000D01*
D50*
X26675000Y-29025000D02*
X24705000Y-29025000D01*
D51*
X31130000Y-11530000D02*
X34640000Y-11530000D01*
X41160000Y-11415000D02*
X45035000Y-11415000D01*
D52*
X47300000Y-54175000D02*
X47300000Y-53600000D01*
D50*
X44075000Y-51575000D02*
X44125000Y-51525000D01*
D51*
X34410000Y-17640000D02*
X32400000Y-17640000D01*
X32325000Y-26250000D02*
X31448959Y-26250000D01*
X32400000Y-15770000D02*
X32350000Y-15720000D01*
X32350000Y-12750000D02*
X31130000Y-11530000D01*
X41250000Y-30675000D02*
X41250000Y-32325000D01*
D50*
X45000000Y-48810000D02*
X45000000Y-50125000D01*
X75970000Y-14500000D02*
X73650000Y-12180000D01*
D51*
X48900000Y-19400000D02*
X48900000Y-18950000D01*
X46625000Y-47375000D02*
X47375000Y-48125000D01*
X18780000Y-25530000D02*
X18750000Y-25500000D01*
D50*
X73800000Y-15970000D02*
X75940000Y-15970000D01*
D51*
X45000000Y-47500000D02*
X45125000Y-47375000D01*
D50*
X40575000Y-52600000D02*
X39100000Y-52600000D01*
D52*
X49450000Y-53220000D02*
X48860000Y-52630000D01*
X47300000Y-54425000D02*
X49450000Y-54425000D01*
D53*
X69750000Y-39025000D02*
X71475000Y-39025000D01*
D51*
X74375000Y-57625000D02*
X74375000Y-55750000D01*
D50*
X67870000Y-12180000D02*
X67300000Y-12750000D01*
D51*
X32350000Y-15720000D02*
X32350000Y-12750000D01*
D52*
X49450000Y-54425000D02*
X50850000Y-55825000D01*
D50*
X44075000Y-51575000D02*
X41600000Y-51575000D01*
D52*
X47300000Y-55940000D02*
X47300000Y-54175000D01*
D51*
X74375000Y-55750000D02*
X75875000Y-54250000D01*
D50*
X44125000Y-50625000D02*
X44500000Y-50625000D01*
D51*
X42500000Y-35125000D02*
X42375000Y-35000000D01*
X30325000Y-24475000D02*
X28825000Y-24475000D01*
D50*
X45000000Y-50760000D02*
X44185000Y-51575000D01*
X24705000Y-29025000D02*
X24130000Y-28450000D01*
D51*
X45875000Y-12255000D02*
X45875000Y-12950000D01*
X49350000Y-19850000D02*
X48900000Y-19400000D01*
X32325000Y-28250000D02*
X30500000Y-28250000D01*
X45450000Y-21750000D02*
X46200000Y-22500000D01*
X42500000Y-38875000D02*
X42500000Y-35125000D01*
D50*
X20415000Y-21875000D02*
X25375000Y-21875000D01*
X44125000Y-51525000D02*
X44125000Y-50625000D01*
D53*
X71475000Y-39025000D02*
X74375000Y-36125000D01*
D51*
X51380000Y-16470000D02*
X51380000Y-14410000D01*
D50*
X26850000Y-28850000D02*
X29900000Y-28850000D01*
D52*
X50850000Y-57075000D02*
X51375000Y-57600000D01*
D50*
X3000000Y-11930000D02*
X3000000Y-9390000D01*
D54*
%TO.N,/STATE*%
X21250000Y-13000000D02*
X17375000Y-13000000D01*
X17375000Y-13000000D02*
X15625000Y-11250000D01*
X32325000Y-21750000D02*
X30000000Y-21750000D01*
X30000000Y-21750000D02*
X21250000Y-13000000D01*
X14750000Y-8500000D02*
X14750000Y-5000000D01*
D50*
%TO.N,+3.3VA*%
X23100000Y-25400000D02*
X23100000Y-26005000D01*
D51*
X28375000Y-26975000D02*
X28825000Y-26525000D01*
X32325000Y-27250000D02*
X29550000Y-27250000D01*
X23005000Y-26100000D02*
X24900000Y-26100000D01*
X26675000Y-26975000D02*
X28375000Y-26975000D01*
X25750000Y-26950000D02*
X27300000Y-26950000D01*
X29550000Y-27250000D02*
X28825000Y-26525000D01*
D50*
X21200000Y-23500000D02*
X23100000Y-25400000D01*
D51*
X24900000Y-26100000D02*
X25750000Y-26950000D01*
%TO.N,NRST*%
X38750000Y-20540000D02*
X38750000Y-19325000D01*
X39540000Y-21330000D02*
X38750000Y-20540000D01*
X42260000Y-7320000D02*
X42260000Y-5030000D01*
X33998959Y-29550000D02*
X34000000Y-29550000D01*
X34000000Y-29550000D02*
X39540000Y-24010000D01*
X41600000Y-7980000D02*
X42260000Y-7320000D01*
X28500000Y-43800000D02*
X28500000Y-41550000D01*
X28500000Y-41550000D02*
X28650000Y-41400000D01*
X39540000Y-21330000D02*
X40560000Y-21330000D01*
X28660000Y-37100050D02*
X28660000Y-34888959D01*
X28650000Y-37110050D02*
X28660000Y-37100050D01*
X43460000Y-8820000D02*
X42250000Y-7610000D01*
X28550000Y-47250000D02*
X28550000Y-43850000D01*
X28650000Y-41400000D02*
X28650000Y-37110050D01*
X39540000Y-24010000D02*
X39540000Y-21330000D01*
X42250000Y-7330000D02*
X42260000Y-7320000D01*
X40560000Y-21330000D02*
X40610000Y-21280000D01*
X42250000Y-7610000D02*
X42250000Y-7330000D01*
X28660000Y-34888959D02*
X33998959Y-29550000D01*
%TO.N,/OSC32_IN*%
X40750000Y-18448959D02*
X42698959Y-16500000D01*
X40750000Y-19325000D02*
X40750000Y-18448959D01*
X42698959Y-16500000D02*
X43875000Y-16500000D01*
X43825000Y-18550000D02*
X43825000Y-16550000D01*
%TO.N,/OSC32_OUT*%
X43825000Y-12950000D02*
X43825000Y-14950000D01*
X43150000Y-15000000D02*
X43875000Y-15000000D01*
X40250000Y-17900000D02*
X43150000Y-15000000D01*
X40250000Y-19325000D02*
X40250000Y-17900000D01*
%TO.N,/HSE_IN*%
X39750000Y-17160000D02*
X38820000Y-16230000D01*
X39750000Y-19325000D02*
X39750000Y-17160000D01*
%TO.N,/HSE_OUT*%
X39250000Y-19325000D02*
X39250000Y-18410000D01*
X33920000Y-13330000D02*
X36620000Y-13330000D01*
X33375000Y-13875000D02*
X33920000Y-13330000D01*
X38720000Y-17880000D02*
X35740000Y-17880000D01*
X33375000Y-15515000D02*
X33375000Y-13875000D01*
X35740000Y-17880000D02*
X33375000Y-15515000D01*
X39250000Y-18410000D02*
X38720000Y-17880000D01*
D50*
%TO.N,Net-(D1-Pad1)*%
X71925000Y-29625000D02*
X74825000Y-29625000D01*
D52*
%TO.N,+5V*%
X44950000Y-53300000D02*
X43915000Y-53300000D01*
D50*
X44950000Y-52275000D02*
X44950000Y-53300000D01*
D52*
X43915000Y-53300000D02*
X43905000Y-53310000D01*
D51*
X36170000Y-56670000D02*
X36170000Y-49455000D01*
X36170000Y-49455000D02*
X47000000Y-38625000D01*
D52*
X41800000Y-53310000D02*
X38440000Y-56670000D01*
D51*
X47000000Y-38625000D02*
X49150000Y-38625000D01*
D52*
X43905000Y-53310000D02*
X41800000Y-53310000D01*
D50*
X45950000Y-48810000D02*
X45950000Y-51275000D01*
D52*
X26760000Y-56670000D02*
X26390000Y-56300000D01*
D50*
X45950000Y-51275000D02*
X44950000Y-52275000D01*
D52*
X38440000Y-56670000D02*
X36170000Y-56670000D01*
X26390000Y-56300000D02*
X26390000Y-51850000D01*
X44700000Y-55940000D02*
X44700000Y-53550000D01*
X36170000Y-56670000D02*
X26760000Y-56670000D01*
D51*
%TO.N,/SWCLK*%
X56410000Y-14400000D02*
X56410000Y-12610000D01*
X34640000Y-4230000D02*
X34640000Y-5030000D01*
X46610000Y-2810000D02*
X36060000Y-2810000D01*
X36060000Y-2810000D02*
X34640000Y-4230000D01*
X45500000Y-28250000D02*
X43675000Y-28250000D01*
X45875000Y-28625000D02*
X45500000Y-28250000D01*
X56410000Y-12610000D02*
X46610000Y-2810000D01*
X56430000Y-14420000D02*
X56410000Y-14400000D01*
%TO.N,/SWDIO*%
X41700000Y-21550000D02*
X41700000Y-21240000D01*
X43675000Y-28750000D02*
X41900000Y-28750000D01*
X39720000Y-7530000D02*
X39720000Y-5030000D01*
X40420000Y-27270000D02*
X40420000Y-22830000D01*
X41900000Y-28750000D02*
X40420000Y-27270000D01*
X41700000Y-9510000D02*
X39720000Y-7530000D01*
X40420000Y-22830000D02*
X41700000Y-21550000D01*
%TO.N,/T_CLK*%
X35250000Y-31875000D02*
X35025000Y-32100000D01*
X35250000Y-30675000D02*
X35250000Y-31875000D01*
X23185000Y-29710000D02*
X3000000Y-29710000D01*
X23200000Y-29725000D02*
X23185000Y-29710000D01*
X35025000Y-32100000D02*
X34949500Y-32175500D01*
X34949500Y-32175500D02*
X33975000Y-32175500D01*
%TO.N,/T_DIN*%
X19785000Y-34790000D02*
X19800000Y-34775000D01*
X40250000Y-32925000D02*
X38400000Y-34775000D01*
X38400000Y-34775000D02*
X33650000Y-34775000D01*
X3000000Y-34790000D02*
X19785000Y-34790000D01*
X40250000Y-30675000D02*
X40250000Y-32925000D01*
%TO.N,/T_DO*%
X39750000Y-32100000D02*
X38975000Y-32875000D01*
X26725000Y-36350000D02*
X26750000Y-36325000D01*
X4045000Y-37330000D02*
X5025000Y-36350000D01*
X33875000Y-32875000D02*
X30425000Y-36325000D01*
X38975000Y-32875000D02*
X33875000Y-32875000D01*
X3000000Y-37330000D02*
X4045000Y-37330000D01*
X39750000Y-30675000D02*
X39750000Y-32100000D01*
X5025000Y-36350000D02*
X26725000Y-36350000D01*
%TO.N,/T_IRQ*%
X35750000Y-24875000D02*
X35750000Y-19325000D01*
X28020000Y-36200000D02*
X28020000Y-34821853D01*
X5645000Y-37225000D02*
X26995000Y-37225000D01*
X26995000Y-37225000D02*
X28020000Y-36200000D01*
X3000000Y-39870000D02*
X5645000Y-37225000D01*
X33792894Y-29050000D02*
X34500000Y-28342894D01*
X34500000Y-28342894D02*
X34500000Y-26125000D01*
X28020000Y-34821853D02*
X33791853Y-29050000D01*
X34500000Y-26125000D02*
X35750000Y-24875000D01*
X33791853Y-29050000D02*
X33792894Y-29050000D01*
%TO.N,/SWO*%
X53850000Y-20730000D02*
X53580000Y-20730000D01*
X45910000Y-25250000D02*
X43675000Y-25250000D01*
X50340000Y-23970000D02*
X47190000Y-23970000D01*
X53860000Y-14970000D02*
X53860000Y-14020000D01*
X53580000Y-20730000D02*
X50340000Y-23970000D01*
X47190000Y-23970000D02*
X45910000Y-25250000D01*
X53850000Y-14980000D02*
X53860000Y-14970000D01*
X53860000Y-14020000D02*
X44840000Y-5000000D01*
%TO.N,/BOOT0_SW*%
X19040000Y-38900000D02*
X12850000Y-45090000D01*
X12850000Y-45090000D02*
X12850000Y-48500000D01*
X12850000Y-48500000D02*
X14960000Y-50610000D01*
X14960000Y-50610000D02*
X19610000Y-50610000D01*
X19610000Y-50610000D02*
X20300000Y-51300000D01*
X27080000Y-38900000D02*
X19040000Y-38900000D01*
X20300000Y-51300000D02*
X20300000Y-54400000D01*
%TO.N,/BOOT0*%
X41530000Y-23730000D02*
X42510000Y-22750000D01*
X40475000Y-38900000D02*
X30180000Y-38900000D01*
X41530000Y-23730000D02*
X41530000Y-26630000D01*
X41020000Y-38355000D02*
X40475000Y-38900000D01*
X43675000Y-22750000D02*
X42510000Y-22750000D01*
X41020000Y-34540000D02*
X41020000Y-38355000D01*
%TO.N,Net-(D2-Pad1)*%
X52040000Y-49340000D02*
X52660000Y-48720000D01*
X51575000Y-40450000D02*
X46710000Y-40450000D01*
X44050000Y-43110000D02*
X44050000Y-45390000D01*
X50490000Y-49340000D02*
X52040000Y-49340000D01*
X46710000Y-40450000D02*
X44050000Y-43110000D01*
X52660000Y-48720000D02*
X52660000Y-41535000D01*
X52660000Y-41535000D02*
X51575000Y-40450000D01*
D54*
%TO.N,/RXD*%
X17290000Y-8165000D02*
X17290000Y-5000000D01*
X35250000Y-19325000D02*
X35250000Y-21000000D01*
X17750000Y-8625000D02*
X17290000Y-8165000D01*
X26625000Y-15250000D02*
X30474500Y-19099500D01*
X19375000Y-11000000D02*
X19625000Y-10750000D01*
X18875000Y-11000000D02*
X19375000Y-11000000D01*
X26625000Y-13875000D02*
X26625000Y-15250000D01*
X19625000Y-10750000D02*
X23500000Y-10750000D01*
X23500000Y-10750000D02*
X26625000Y-13875000D01*
X35250000Y-21000000D02*
X35000000Y-21250000D01*
X30474500Y-19099500D02*
X32125000Y-19099500D01*
%TO.N,/TXD*%
X21375000Y-12000000D02*
X30625000Y-21250000D01*
X19830000Y-8205000D02*
X19830000Y-5000000D01*
X20125000Y-8500000D02*
X19830000Y-8205000D01*
X30625000Y-21250000D02*
X32325000Y-21250000D01*
X21375000Y-11750000D02*
X21375000Y-12000000D01*
%TO.N,/EN*%
X32875000Y-20125000D02*
X30500000Y-20125000D01*
X32325000Y-23750000D02*
X33375000Y-23750000D01*
X25500000Y-8500000D02*
X27450000Y-6550000D01*
X24250000Y-13875000D02*
X24250000Y-13250000D01*
X33625000Y-23500000D02*
X33625000Y-20875000D01*
X33375000Y-23750000D02*
X33625000Y-23500000D01*
X27450000Y-6550000D02*
X27450000Y-5000000D01*
X33625000Y-20875000D02*
X32875000Y-20125000D01*
X30500000Y-20125000D02*
X24250000Y-13875000D01*
D50*
%TO.N,Net-(D2-Pad2)*%
X50540000Y-45340000D02*
X50540000Y-47290000D01*
D51*
%TO.N,Net-(R7-Pad1)*%
X42990000Y-48810000D02*
X42825000Y-48975000D01*
X42825000Y-48975000D02*
X40775000Y-48975000D01*
X40775000Y-48975000D02*
X40250000Y-49500000D01*
X40250000Y-49500000D02*
X39100000Y-49500000D01*
X44050000Y-48810000D02*
X42990000Y-48810000D01*
%TO.N,Net-(R6-Pad2)*%
X45950000Y-45390000D02*
X45950000Y-46725000D01*
X45950000Y-46725000D02*
X45800000Y-46875000D01*
X42225000Y-46875000D02*
X41950000Y-47150000D01*
X45800000Y-46875000D02*
X42225000Y-46875000D01*
%TO.N,Net-(R8-Pad2)*%
X31050000Y-26750000D02*
X29750000Y-25450000D01*
X29750000Y-25450000D02*
X27800000Y-25450000D01*
X32325000Y-26750000D02*
X31050000Y-26750000D01*
X27800000Y-25450000D02*
X25850000Y-23500000D01*
X25850000Y-23500000D02*
X24300000Y-23500000D01*
D50*
%TO.N,/VIN_DI*%
X25140000Y-41300000D02*
X20300000Y-46140000D01*
X25140000Y-41270000D02*
X25140000Y-41300000D01*
X48619622Y-32005378D02*
X50275000Y-30350000D01*
X20300000Y-46140000D02*
X20300000Y-47695000D01*
X50275000Y-30350000D02*
X53500000Y-30350000D01*
D51*
%TO.N,/NRF_CE*%
X72990000Y-17240000D02*
X70940000Y-15190000D01*
X68570000Y-15190000D02*
X67300000Y-16460000D01*
X37250000Y-22350000D02*
X37250000Y-19325000D01*
X48590000Y-23010000D02*
X48590000Y-22990000D01*
X48590000Y-22990000D02*
X55120000Y-16460000D01*
X73340000Y-17240000D02*
X72990000Y-17240000D01*
X55120000Y-16460000D02*
X67300000Y-16460000D01*
X37890000Y-22990000D02*
X37250000Y-22350000D01*
X70940000Y-15190000D02*
X68570000Y-15190000D01*
%TO.N,/NRF_CSN*%
X55320000Y-17690000D02*
X51460000Y-21550000D01*
X65940000Y-17690000D02*
X55320000Y-17690000D01*
X70960000Y-16460000D02*
X73010000Y-18510000D01*
X69500000Y-16460000D02*
X68260000Y-17700000D01*
X69840000Y-16460000D02*
X70960000Y-16460000D01*
X68260000Y-17700000D02*
X65950000Y-17700000D01*
X38250000Y-21730000D02*
X38250000Y-19325000D01*
X65950000Y-17700000D02*
X65940000Y-17690000D01*
X38700000Y-22180000D02*
X38250000Y-21730000D01*
X73010000Y-18510000D02*
X73120000Y-18510000D01*
%TO.N,/NRF_SCK*%
X69080000Y-17750000D02*
X67830000Y-19000000D01*
X76190000Y-25150000D02*
X76190000Y-21070000D01*
X74900000Y-19780000D02*
X73800000Y-19780000D01*
X73020000Y-19780000D02*
X70990000Y-17750000D01*
X73260000Y-19780000D02*
X73020000Y-19780000D01*
X63690000Y-27250000D02*
X64900000Y-26040000D01*
X64900000Y-26040000D02*
X75300000Y-26040000D01*
X43675000Y-27250000D02*
X63690000Y-27250000D01*
X70990000Y-17750000D02*
X69080000Y-17750000D01*
X75300000Y-26040000D02*
X76190000Y-25150000D01*
X76190000Y-21070000D02*
X74900000Y-19780000D01*
%TO.N,/NRF_MOSI*%
X47260000Y-25050000D02*
X74820000Y-25050000D01*
X43675000Y-26250000D02*
X46060000Y-26250000D01*
X75500000Y-21930000D02*
X74620000Y-21050000D01*
X75500000Y-24370000D02*
X75500000Y-21930000D01*
X74820000Y-25050000D02*
X75500000Y-24370000D01*
X46060000Y-26250000D02*
X47260000Y-25050000D01*
X70875000Y-19000000D02*
X69840000Y-19000000D01*
X73560000Y-21050000D02*
X72925000Y-21050000D01*
X72925000Y-21050000D02*
X70875000Y-19000000D01*
%TO.N,/NRF_MISO*%
X46730000Y-26750000D02*
X43675000Y-26750000D01*
X68180000Y-20270000D02*
X67300000Y-21150000D01*
X63050000Y-25920000D02*
X47560000Y-25920000D01*
X63050000Y-22820000D02*
X64430000Y-22820000D01*
X64430000Y-22820000D02*
X65710000Y-21540000D01*
X73220000Y-22320000D02*
X72820000Y-22320000D01*
X72820000Y-22320000D02*
X70770000Y-20270000D01*
X70770000Y-20270000D02*
X68180000Y-20270000D01*
X47560000Y-25920000D02*
X46730000Y-26750000D01*
X65710000Y-21540000D02*
X67300000Y-21540000D01*
%TO.N,/TFT_RESET*%
X38125000Y-28500000D02*
X38750000Y-29125000D01*
X38125000Y-27750000D02*
X38125000Y-28500000D01*
X19625000Y-17625000D02*
X16470000Y-14470000D01*
X38750000Y-29125000D02*
X38750000Y-30675000D01*
X16470000Y-14470000D02*
X3000000Y-14470000D01*
%TO.N,/TFT_DC*%
X8440000Y-17010000D02*
X3000000Y-17010000D01*
X15700000Y-16225000D02*
X9225000Y-16225000D01*
X39250000Y-27625000D02*
X39250000Y-30675000D01*
X9225000Y-16225000D02*
X8440000Y-17010000D01*
%TO.N,/TFT_MOSI*%
X25750000Y-20750000D02*
X28250000Y-23250000D01*
X28250000Y-23250000D02*
X32325000Y-23250000D01*
X18075000Y-20750000D02*
X25750000Y-20750000D01*
X10525000Y-17825000D02*
X8800000Y-19550000D01*
X17750000Y-17825000D02*
X10525000Y-17825000D01*
X8800000Y-19550000D02*
X3000000Y-19550000D01*
X17750000Y-20425000D02*
X18075000Y-20750000D01*
%TO.N,/TFT_SCK*%
X12300000Y-18725000D02*
X8935000Y-22090000D01*
X32325000Y-22250000D02*
X29250000Y-22250000D01*
X29250000Y-22250000D02*
X25725000Y-18725000D01*
X8935000Y-22090000D02*
X3000000Y-22090000D01*
X25725000Y-18725000D02*
X12300000Y-18725000D01*
D50*
%TO.N,/TFT_LED*%
X13430000Y-42650000D02*
X13430000Y-39590000D01*
X8030000Y-24630000D02*
X3000000Y-24630000D01*
X6075000Y-48665000D02*
X7710000Y-47030000D01*
X6075000Y-54500000D02*
X6075000Y-48665000D01*
X9050000Y-47030000D02*
X13430000Y-42650000D01*
X7710000Y-47030000D02*
X9050000Y-47030000D01*
D51*
%TO.N,/TFT_MISO*%
X18975000Y-19750000D02*
X18800000Y-19575000D01*
X15100000Y-19575000D02*
X7505000Y-27170000D01*
X32325000Y-22750000D02*
X28750000Y-22750000D01*
X28750000Y-22750000D02*
X25750000Y-19750000D01*
X7505000Y-27170000D02*
X3000000Y-27170000D01*
X25750000Y-19750000D02*
X18975000Y-19750000D01*
X18800000Y-19575000D02*
X15100000Y-19575000D01*
%TO.N,/NRF_IRQ*%
X61370000Y-23520000D02*
X67860000Y-23520000D01*
X52650000Y-22850000D02*
X52670000Y-22850000D01*
X52680000Y-22860000D02*
X60710000Y-22860000D01*
X36750000Y-23230000D02*
X36750000Y-19325000D01*
X71890000Y-23590000D02*
X73800000Y-23590000D01*
X69840000Y-21540000D02*
X71890000Y-23590000D01*
X67860000Y-23520000D02*
X69840000Y-21540000D01*
X60710000Y-22860000D02*
X61370000Y-23520000D01*
X52670000Y-22850000D02*
X52680000Y-22860000D01*
X37040000Y-23520000D02*
X36750000Y-23230000D01*
%TO.N,Net-(C17-Pad2)*%
X38820000Y-13330000D02*
X41025000Y-13330000D01*
%TO.N,Net-(C18-Pad1)*%
X35470000Y-15720000D02*
X36110000Y-15720000D01*
X34500000Y-14750000D02*
X35470000Y-15720000D01*
%TO.N,/ADC_BATT*%
X33375000Y-37325000D02*
X39225000Y-37325000D01*
X36250000Y-35750000D02*
X36250000Y-36125000D01*
X36250000Y-36125000D02*
X35000000Y-37375000D01*
X36250000Y-19325000D02*
X36250000Y-26000000D01*
X36250000Y-26000000D02*
X35500000Y-26750000D01*
D53*
%TO.N,/GND_DI62*%
X69375000Y-32062500D02*
X74125000Y-32062500D01*
X67562500Y-32062500D02*
X69375000Y-32062500D01*
D50*
X62400000Y-32237500D02*
X62400000Y-34275000D01*
X69375000Y-32062500D02*
X69375000Y-30175000D01*
X53500000Y-34000000D02*
X53375000Y-34125000D01*
X60550000Y-34825000D02*
X60550000Y-32325000D01*
X60550000Y-32325000D02*
X62312500Y-32325000D01*
D53*
X66750000Y-32875000D02*
X67562500Y-32062500D01*
D50*
X60500000Y-34875000D02*
X60550000Y-34825000D01*
X53500000Y-32400000D02*
X55537500Y-32400000D01*
X55500000Y-34400000D02*
X55500000Y-32437500D01*
X55537500Y-32400000D02*
X55650000Y-32287500D01*
X62312500Y-32325000D02*
X62400000Y-32237500D01*
X55500000Y-32437500D02*
X55650000Y-32287500D01*
X69375000Y-30175000D02*
X68825000Y-29625000D01*
D53*
X66750000Y-34125000D02*
X66750000Y-32875000D01*
D50*
X53500000Y-32400000D02*
X53500000Y-34000000D01*
%TO.N,+3.3V*%
X41875000Y-30675000D02*
X42725000Y-30675000D01*
D51*
X41750000Y-19325000D02*
X42215000Y-19325000D01*
D50*
X72615000Y-13240000D02*
X72615000Y-14815000D01*
D51*
X47730000Y-20450000D02*
X48120000Y-20060000D01*
D50*
X64770000Y-1760000D02*
X33890000Y-1760000D01*
X77400000Y-24788528D02*
X77400000Y-14410000D01*
D51*
X42215000Y-19325000D02*
X43675000Y-20785000D01*
X53380000Y-16900000D02*
X52270000Y-16900000D01*
D50*
X26860000Y-9710000D02*
X29135000Y-7435000D01*
X30960000Y-44440000D02*
X31600000Y-43800000D01*
X42725000Y-30675000D02*
X43450000Y-31400000D01*
D51*
X54680000Y-15600000D02*
X53380000Y-16900000D01*
X34250000Y-25625000D02*
X33875000Y-26000000D01*
D50*
X64325000Y-35565000D02*
X64325000Y-34400000D01*
X76875000Y-29575000D02*
X76875000Y-27966472D01*
X5510000Y-57820000D02*
X20070000Y-57820000D01*
X33890000Y-1760000D02*
X32100000Y-3550000D01*
D51*
X32325000Y-28750000D02*
X32325000Y-29315000D01*
D50*
X77400000Y-14410000D02*
X75030000Y-12040000D01*
D51*
X33384746Y-28750000D02*
X32325000Y-28750000D01*
D50*
X34100000Y-19325000D02*
X33025000Y-18250000D01*
X69620000Y-6610000D02*
X64770000Y-1760000D01*
X3575000Y-49500000D02*
X3575000Y-55885000D01*
D51*
X69640000Y-6610000D02*
X69640000Y-6650000D01*
X27750000Y-33050000D02*
X29900000Y-30900000D01*
X69640000Y-6650000D02*
X60690000Y-15600000D01*
D50*
X6180000Y-9710000D02*
X26860000Y-9710000D01*
D51*
X26250000Y-34100000D02*
X27300000Y-33050000D01*
D50*
X75030000Y-12040000D02*
X75030000Y-12020000D01*
X20070000Y-57820000D02*
X22300000Y-55590000D01*
X64300000Y-32237500D02*
X65062500Y-32237500D01*
X72500000Y-13125000D02*
X72615000Y-13240000D01*
X30960000Y-48790000D02*
X30960000Y-44440000D01*
X66750000Y-28000000D02*
X68110000Y-26640000D01*
D51*
X44010000Y-20450000D02*
X46200000Y-20450000D01*
D50*
X32100000Y-3550000D02*
X32100000Y-5030000D01*
X44025000Y-31400000D02*
X43450000Y-31400000D01*
X69840000Y-13920000D02*
X71720000Y-13920000D01*
X65062500Y-32237500D02*
X66750000Y-30550000D01*
X57550000Y-34400000D02*
X59760000Y-36610000D01*
D51*
X23005000Y-34100000D02*
X26250000Y-34100000D01*
D50*
X22300000Y-51890000D02*
X23815000Y-50375000D01*
D51*
X33875000Y-28259746D02*
X33384746Y-28750000D01*
D50*
X23815000Y-50375000D02*
X29375000Y-50375000D01*
X22300000Y-55590000D02*
X22300000Y-54400000D01*
X64300000Y-32237500D02*
X64300000Y-34375000D01*
X68110000Y-26640000D02*
X75548528Y-26640000D01*
X3575000Y-55885000D02*
X5510000Y-57820000D01*
X31625000Y-18250000D02*
X29135000Y-15760000D01*
X66750000Y-30550000D02*
X66750000Y-28000000D01*
X49235000Y-36610000D02*
X44025000Y-31400000D01*
X22300000Y-54400000D02*
X22300000Y-51890000D01*
X40325000Y-43800000D02*
X47500000Y-36625000D01*
X75548528Y-26640000D02*
X77400000Y-24788528D01*
X29375000Y-50375000D02*
X30960000Y-48790000D01*
X63280000Y-36610000D02*
X64325000Y-35565000D01*
X31600000Y-43800000D02*
X40325000Y-43800000D01*
D51*
X60690000Y-15600000D02*
X54680000Y-15600000D01*
D50*
X76875000Y-27966472D02*
X75548528Y-26640000D01*
D51*
X46200000Y-20450000D02*
X47730000Y-20450000D01*
D50*
X75030000Y-12020000D02*
X69640000Y-6630000D01*
D51*
X33875000Y-26000000D02*
X33875000Y-28259746D01*
D50*
X72615000Y-14815000D02*
X73685000Y-14815000D01*
X29135000Y-15760000D02*
X29135000Y-7435000D01*
X57550000Y-32287500D02*
X57550000Y-34400000D01*
X3320000Y-6850000D02*
X6180000Y-9710000D01*
D51*
X52270000Y-16900000D02*
X51040000Y-18130000D01*
X34250000Y-19325000D02*
X34250000Y-25625000D01*
X30740000Y-30900000D02*
X29900000Y-30900000D01*
D50*
X71720000Y-13920000D02*
X72615000Y-14815000D01*
X59760000Y-36610000D02*
X63280000Y-36610000D01*
X33025000Y-18250000D02*
X31625000Y-18250000D01*
D51*
X32325000Y-29315000D02*
X30740000Y-30900000D01*
D50*
X29135000Y-7435000D02*
X31540000Y-5030000D01*
X59760000Y-36610000D02*
X47515000Y-36610000D01*
D51*
X43675000Y-21250000D02*
X43675000Y-20785000D01*
X43675000Y-20785000D02*
X44010000Y-20450000D01*
%TO.N,Net-(Q1-Pad1)*%
X49750000Y-34125000D02*
X47375000Y-31750000D01*
X54000000Y-35625000D02*
X53125000Y-35625000D01*
X51625000Y-34125000D02*
X49750000Y-34125000D01*
X73425000Y-33937500D02*
X73425000Y-35575000D01*
X53125000Y-35625000D02*
X51625000Y-34125000D01*
X47375000Y-28250000D02*
X46875000Y-27750000D01*
X47375000Y-31750000D02*
X47375000Y-28250000D01*
X55625000Y-38500000D02*
X65725000Y-38500000D01*
X52250000Y-38625000D02*
X53750000Y-38625000D01*
X65725000Y-38500000D02*
X68425000Y-35800000D01*
X46875000Y-27750000D02*
X43675000Y-27750000D01*
X73425000Y-35575000D02*
X72500000Y-36500000D01*
X69125000Y-36500000D02*
X68425000Y-35800000D01*
X54750000Y-37625000D02*
X55625000Y-38500000D01*
X72500000Y-36500000D02*
X69125000Y-36500000D01*
X68425000Y-35800000D02*
X68425000Y-33937500D01*
X53750000Y-38625000D02*
X54750000Y-37625000D01*
D53*
%TO.N,Net-(U1-Pad46)*%
X66750000Y-40125000D02*
X64250000Y-40125000D01*
D51*
X49750000Y-35500000D02*
X43625000Y-29375000D01*
X40750000Y-29500000D02*
X40750000Y-30675000D01*
X51875000Y-35500000D02*
X49750000Y-35500000D01*
X71375000Y-54250000D02*
X71375000Y-47750000D01*
X63625000Y-39500000D02*
X64250000Y-40125000D01*
X40875000Y-29375000D02*
X40750000Y-29500000D01*
D53*
X71375000Y-47750000D02*
X71375000Y-44750000D01*
X71375000Y-44750000D02*
X66750000Y-40125000D01*
D51*
X55875000Y-39500000D02*
X63625000Y-39500000D01*
X43625000Y-29375000D02*
X40875000Y-29375000D01*
%TO.N,Net-(D5-Pad2)*%
X69250000Y-57625000D02*
X68375000Y-58500000D01*
X70375000Y-57625000D02*
X69250000Y-57625000D01*
%TO.N,Net-(D6-Pad2)*%
X64750000Y-51000000D02*
X57875000Y-51000000D01*
X77250000Y-50875000D02*
X73875000Y-50875000D01*
X76375000Y-57625000D02*
X78000000Y-56000000D01*
X78000000Y-51625000D02*
X77250000Y-50875000D01*
X78000000Y-56000000D02*
X78000000Y-51625000D01*
X57875000Y-51000000D02*
X55375000Y-53500000D01*
X55375000Y-53500000D02*
X53000000Y-53500000D01*
%TO.N,Net-(U1-Pad40)*%
X53625000Y-41500000D02*
X54875000Y-42750000D01*
X67000000Y-57750000D02*
X66250000Y-58500000D01*
X66250000Y-58500000D02*
X65275000Y-58500000D01*
X37750000Y-31800500D02*
X37375000Y-32175500D01*
X58875000Y-42750000D02*
X67000000Y-50875000D01*
X37750000Y-30675000D02*
X37750000Y-31800500D01*
X67000000Y-50875000D02*
X67000000Y-57750000D01*
X54875000Y-42750000D02*
X58875000Y-42750000D01*
%TO.N,Net-(U1-Pad41)*%
X53625000Y-49775000D02*
X53000000Y-50400000D01*
X53875000Y-43125000D02*
X53625000Y-43375000D01*
X38250000Y-30675000D02*
X38250000Y-31925500D01*
X38250000Y-31925500D02*
X38500000Y-32175500D01*
X53625000Y-43375000D02*
X53625000Y-49775000D01*
%TD*%
%TA.AperFunction,Conductor*%
%TO.N,/VIN_DI*%
G36*
X65209191Y-27658907D02*
G01*
X65245155Y-27708407D01*
X65250000Y-27739000D01*
X65250000Y-31151000D01*
X65231093Y-31209191D01*
X65181593Y-31245155D01*
X65151000Y-31250000D01*
X64687563Y-31250000D01*
X64654761Y-31244408D01*
X64541064Y-31204481D01*
X64541065Y-31204481D01*
X64535369Y-31202481D01*
X64529362Y-31201913D01*
X64529361Y-31201913D01*
X64506145Y-31199718D01*
X64506135Y-31199718D01*
X64503834Y-31199500D01*
X64244577Y-31199500D01*
X64186386Y-31180593D01*
X64150422Y-31131093D01*
X64149508Y-31072879D01*
X64153655Y-31058607D01*
X64155462Y-31048712D01*
X64157847Y-31018399D01*
X64158000Y-31014507D01*
X64158000Y-30632180D01*
X64153878Y-30619495D01*
X64149757Y-30616500D01*
X62557681Y-30616500D01*
X62544996Y-30620622D01*
X62542001Y-30624743D01*
X62542001Y-31014505D01*
X62542154Y-31018402D01*
X62544538Y-31048704D01*
X62546347Y-31058614D01*
X62550492Y-31072879D01*
X62548570Y-31134035D01*
X62511070Y-31182381D01*
X62455423Y-31199500D01*
X62196166Y-31199500D01*
X62193865Y-31199718D01*
X62193855Y-31199718D01*
X62170639Y-31201913D01*
X62170638Y-31201913D01*
X62164631Y-31202481D01*
X62158935Y-31204481D01*
X62158936Y-31204481D01*
X62045239Y-31244408D01*
X62012437Y-31250000D01*
X61660922Y-31250000D01*
X61602731Y-31231093D01*
X61566767Y-31181593D01*
X61566767Y-31120407D01*
X61590858Y-31081057D01*
X61594847Y-31077061D01*
X61601927Y-31068096D01*
X61688641Y-30927420D01*
X61693469Y-30917066D01*
X61745602Y-30759890D01*
X61747855Y-30749379D01*
X61757741Y-30652888D01*
X61758000Y-30647830D01*
X61758000Y-30544680D01*
X61753878Y-30531995D01*
X61749757Y-30529000D01*
X59357681Y-30529000D01*
X59344996Y-30533122D01*
X59342001Y-30537243D01*
X59342001Y-30647792D01*
X59342267Y-30652922D01*
X59352409Y-30750673D01*
X59354682Y-30761200D01*
X59407086Y-30918277D01*
X59411933Y-30928624D01*
X59498891Y-31069145D01*
X59505987Y-31078098D01*
X59508830Y-31080936D01*
X59536655Y-31135428D01*
X59527136Y-31195868D01*
X59483909Y-31239171D01*
X59438887Y-31250000D01*
X57763797Y-31250000D01*
X57758497Y-31249750D01*
X57758493Y-31249829D01*
X57756143Y-31249718D01*
X57753834Y-31249500D01*
X57494577Y-31249500D01*
X57436386Y-31230593D01*
X57400422Y-31181093D01*
X57399508Y-31122879D01*
X57403655Y-31108607D01*
X57405462Y-31098712D01*
X57407847Y-31068399D01*
X57408000Y-31064507D01*
X57408000Y-30682180D01*
X57403878Y-30669495D01*
X57399757Y-30666500D01*
X55807681Y-30666500D01*
X55794996Y-30670622D01*
X55792001Y-30674743D01*
X55792001Y-31064505D01*
X55792154Y-31068402D01*
X55794538Y-31098704D01*
X55796347Y-31108614D01*
X55800492Y-31122879D01*
X55798570Y-31184035D01*
X55761070Y-31232381D01*
X55705423Y-31249500D01*
X55446166Y-31249500D01*
X55443857Y-31249718D01*
X55441507Y-31249829D01*
X55441503Y-31249750D01*
X55436203Y-31250000D01*
X54663352Y-31250000D01*
X54605161Y-31231093D01*
X54569197Y-31181593D01*
X54569197Y-31120407D01*
X54579076Y-31099052D01*
X54638641Y-31002420D01*
X54643469Y-30992066D01*
X54695602Y-30834890D01*
X54697855Y-30824379D01*
X54707741Y-30727888D01*
X54708000Y-30722830D01*
X54708000Y-30619680D01*
X54703878Y-30606995D01*
X54699757Y-30604000D01*
X53345000Y-30604000D01*
X53286809Y-30585093D01*
X53250845Y-30535593D01*
X53246000Y-30505000D01*
X53246000Y-30142820D01*
X55792000Y-30142820D01*
X55796122Y-30155505D01*
X55800243Y-30158500D01*
X56330320Y-30158500D01*
X56343005Y-30154378D01*
X56346000Y-30150257D01*
X56346000Y-30142820D01*
X56854000Y-30142820D01*
X56858122Y-30155505D01*
X56862243Y-30158500D01*
X57392319Y-30158500D01*
X57405004Y-30154378D01*
X57407999Y-30150257D01*
X57407999Y-30092820D01*
X62542000Y-30092820D01*
X62546122Y-30105505D01*
X62550243Y-30108500D01*
X63080320Y-30108500D01*
X63093005Y-30104378D01*
X63096000Y-30100257D01*
X63096000Y-30092820D01*
X63604000Y-30092820D01*
X63608122Y-30105505D01*
X63612243Y-30108500D01*
X64142319Y-30108500D01*
X64155004Y-30104378D01*
X64157999Y-30100257D01*
X64157999Y-29710495D01*
X64157846Y-29706598D01*
X64155462Y-29676296D01*
X64153653Y-29666386D01*
X64110419Y-29517579D01*
X64105513Y-29506241D01*
X64027224Y-29373860D01*
X64019654Y-29364101D01*
X63910899Y-29255346D01*
X63901140Y-29247776D01*
X63768759Y-29169487D01*
X63757421Y-29164581D01*
X63619057Y-29124382D01*
X63607118Y-29124757D01*
X63604000Y-29134892D01*
X63604000Y-30092820D01*
X63096000Y-30092820D01*
X63096000Y-29135687D01*
X63092309Y-29124326D01*
X63081707Y-29124160D01*
X62942579Y-29164581D01*
X62931241Y-29169487D01*
X62798860Y-29247776D01*
X62789101Y-29255346D01*
X62680346Y-29364101D01*
X62672776Y-29373860D01*
X62594487Y-29506241D01*
X62589581Y-29517579D01*
X62546345Y-29666393D01*
X62544538Y-29676288D01*
X62542153Y-29706601D01*
X62542000Y-29710493D01*
X62542000Y-30092820D01*
X57407999Y-30092820D01*
X57407999Y-30005320D01*
X59342000Y-30005320D01*
X59346122Y-30018005D01*
X59350243Y-30021000D01*
X60280320Y-30021000D01*
X60293005Y-30016878D01*
X60296000Y-30012757D01*
X60296000Y-30005320D01*
X60804000Y-30005320D01*
X60808122Y-30018005D01*
X60812243Y-30021000D01*
X61742319Y-30021000D01*
X61755004Y-30016878D01*
X61757999Y-30012757D01*
X61757999Y-29902208D01*
X61757733Y-29897078D01*
X61747591Y-29799327D01*
X61745318Y-29788800D01*
X61692914Y-29631723D01*
X61688067Y-29621376D01*
X61601109Y-29480855D01*
X61594013Y-29471902D01*
X61477061Y-29355153D01*
X61468096Y-29348073D01*
X61327420Y-29261359D01*
X61317066Y-29256531D01*
X61159890Y-29204398D01*
X61149379Y-29202145D01*
X61052888Y-29192259D01*
X61047830Y-29192000D01*
X60819680Y-29192000D01*
X60806995Y-29196122D01*
X60804000Y-29200243D01*
X60804000Y-30005320D01*
X60296000Y-30005320D01*
X60296000Y-29207681D01*
X60291878Y-29194996D01*
X60287757Y-29192001D01*
X60052208Y-29192001D01*
X60047078Y-29192267D01*
X59949327Y-29202409D01*
X59938800Y-29204682D01*
X59781723Y-29257086D01*
X59771376Y-29261933D01*
X59630855Y-29348891D01*
X59621902Y-29355987D01*
X59505153Y-29472939D01*
X59498073Y-29481904D01*
X59411359Y-29622580D01*
X59406531Y-29632934D01*
X59354398Y-29790110D01*
X59352145Y-29800621D01*
X59342259Y-29897112D01*
X59342000Y-29902171D01*
X59342000Y-30005320D01*
X57407999Y-30005320D01*
X57407999Y-29760495D01*
X57407846Y-29756598D01*
X57405462Y-29726296D01*
X57403653Y-29716386D01*
X57360419Y-29567579D01*
X57355513Y-29556241D01*
X57277224Y-29423860D01*
X57269654Y-29414101D01*
X57160899Y-29305346D01*
X57151140Y-29297776D01*
X57018759Y-29219487D01*
X57007421Y-29214581D01*
X56869057Y-29174382D01*
X56857118Y-29174757D01*
X56854000Y-29184892D01*
X56854000Y-30142820D01*
X56346000Y-30142820D01*
X56346000Y-29185687D01*
X56342309Y-29174326D01*
X56331707Y-29174160D01*
X56192579Y-29214581D01*
X56181241Y-29219487D01*
X56048860Y-29297776D01*
X56039101Y-29305346D01*
X55930346Y-29414101D01*
X55922776Y-29423860D01*
X55844487Y-29556241D01*
X55839581Y-29567579D01*
X55796345Y-29716393D01*
X55794538Y-29726288D01*
X55792153Y-29756601D01*
X55792000Y-29760493D01*
X55792000Y-30142820D01*
X53246000Y-30142820D01*
X53246000Y-30080320D01*
X53754000Y-30080320D01*
X53758122Y-30093005D01*
X53762243Y-30096000D01*
X54692319Y-30096000D01*
X54705004Y-30091878D01*
X54707999Y-30087757D01*
X54707999Y-29977208D01*
X54707733Y-29972078D01*
X54697591Y-29874327D01*
X54695318Y-29863800D01*
X54642914Y-29706723D01*
X54638067Y-29696376D01*
X54551109Y-29555855D01*
X54544013Y-29546902D01*
X54427061Y-29430153D01*
X54418096Y-29423073D01*
X54277420Y-29336359D01*
X54267066Y-29331531D01*
X54109890Y-29279398D01*
X54099379Y-29277145D01*
X54002888Y-29267259D01*
X53997830Y-29267000D01*
X53769680Y-29267000D01*
X53756995Y-29271122D01*
X53754000Y-29275243D01*
X53754000Y-30080320D01*
X53246000Y-30080320D01*
X53246000Y-29282681D01*
X53241878Y-29269996D01*
X53237757Y-29267001D01*
X53002208Y-29267001D01*
X52997078Y-29267267D01*
X52899327Y-29277409D01*
X52888800Y-29279682D01*
X52731723Y-29332086D01*
X52721376Y-29336933D01*
X52580855Y-29423891D01*
X52571902Y-29430987D01*
X52509064Y-29493934D01*
X52454572Y-29521759D01*
X52394131Y-29512240D01*
X52350829Y-29469012D01*
X52340000Y-29423991D01*
X52340000Y-27799500D01*
X52358907Y-27741309D01*
X52408407Y-27705345D01*
X52439000Y-27700500D01*
X63657373Y-27700500D01*
X63669009Y-27701186D01*
X63704310Y-27705364D01*
X63711586Y-27704035D01*
X63711589Y-27704035D01*
X63742288Y-27698428D01*
X63762430Y-27694749D01*
X63765476Y-27694242D01*
X63823962Y-27685449D01*
X63830475Y-27682321D01*
X63837573Y-27681025D01*
X63879721Y-27659131D01*
X63889992Y-27653796D01*
X63892770Y-27652408D01*
X63898288Y-27649758D01*
X63941146Y-27640000D01*
X65151000Y-27640000D01*
X65209191Y-27658907D01*
G37*
%TD.AperFunction*%
%TD*%
%TA.AperFunction,Conductor*%
%TO.N,GND*%
G36*
X72567121Y-32733002D02*
G01*
X72613614Y-32786658D01*
X72625000Y-32839000D01*
X72625000Y-35685707D01*
X72604998Y-35753828D01*
X72588095Y-35774802D01*
X72524802Y-35838095D01*
X72462490Y-35872121D01*
X72435707Y-35875000D01*
X70776500Y-35875000D01*
X70708379Y-35854998D01*
X70661886Y-35801342D01*
X70650500Y-35749000D01*
X70650500Y-35580354D01*
X70647382Y-35554154D01*
X70601939Y-35451847D01*
X70522713Y-35372759D01*
X70512076Y-35368056D01*
X70512074Y-35368055D01*
X70428992Y-35331325D01*
X70428993Y-35331325D01*
X70420327Y-35327494D01*
X70394646Y-35324500D01*
X70114111Y-35324500D01*
X70111890Y-35323848D01*
X70104013Y-35324500D01*
X69105354Y-35324500D01*
X69101650Y-35324941D01*
X69101647Y-35324941D01*
X69094254Y-35325821D01*
X69079154Y-35327618D01*
X69052646Y-35339393D01*
X68982275Y-35348766D01*
X68918004Y-35318604D01*
X68880242Y-35258483D01*
X68875500Y-35224241D01*
X68875500Y-34917950D01*
X68895502Y-34849829D01*
X68900149Y-34843091D01*
X68972039Y-34745761D01*
X68972043Y-34745754D01*
X68977634Y-34738184D01*
X69022519Y-34610369D01*
X69025500Y-34578834D01*
X69025500Y-34563943D01*
X69625000Y-34563943D01*
X69625456Y-34571498D01*
X69634881Y-34649388D01*
X69638834Y-34664953D01*
X69688165Y-34789549D01*
X69696522Y-34804380D01*
X69777243Y-34910725D01*
X69789275Y-34922757D01*
X69895620Y-35003478D01*
X69910451Y-35011835D01*
X70035051Y-35061168D01*
X70050603Y-35065118D01*
X70107017Y-35071944D01*
X70121390Y-35069548D01*
X70125000Y-35056723D01*
X70125000Y-35056005D01*
X70525000Y-35056005D01*
X70529106Y-35069987D01*
X70542269Y-35072030D01*
X70599397Y-35065118D01*
X70614949Y-35061168D01*
X70739549Y-35011835D01*
X70754380Y-35003478D01*
X70860725Y-34922757D01*
X70872757Y-34910725D01*
X70953478Y-34804380D01*
X70961835Y-34789549D01*
X71011166Y-34664953D01*
X71015119Y-34649388D01*
X71024544Y-34571498D01*
X71025000Y-34563943D01*
X71025000Y-34155615D01*
X71020525Y-34140376D01*
X71019135Y-34139171D01*
X71011452Y-34137500D01*
X70543115Y-34137500D01*
X70527876Y-34141975D01*
X70526671Y-34143365D01*
X70525000Y-34151048D01*
X70525000Y-35056005D01*
X70125000Y-35056005D01*
X70125000Y-34155615D01*
X70120525Y-34140376D01*
X70119135Y-34139171D01*
X70111452Y-34137500D01*
X69643115Y-34137500D01*
X69627876Y-34141975D01*
X69626671Y-34143365D01*
X69625000Y-34151048D01*
X69625000Y-34563943D01*
X69025500Y-34563943D01*
X69025500Y-33296166D01*
X69022519Y-33264631D01*
X69019975Y-33257387D01*
X69018635Y-33251279D01*
X69023574Y-33180454D01*
X69066020Y-33123543D01*
X69132496Y-33098614D01*
X69153562Y-33098836D01*
X69163780Y-33099802D01*
X69168223Y-33100222D01*
X69168227Y-33100222D01*
X69171166Y-33100500D01*
X69507855Y-33100500D01*
X69575976Y-33120502D01*
X69622469Y-33174158D01*
X69632942Y-33241637D01*
X69625456Y-33303502D01*
X69625000Y-33311057D01*
X69625000Y-33719385D01*
X69629475Y-33734624D01*
X69630865Y-33735829D01*
X69638548Y-33737500D01*
X71006885Y-33737500D01*
X71022124Y-33733025D01*
X71023329Y-33731635D01*
X71025000Y-33723952D01*
X71025000Y-33311057D01*
X71024544Y-33303502D01*
X71015119Y-33225612D01*
X71011166Y-33210047D01*
X70961835Y-33085451D01*
X70953478Y-33070620D01*
X70872757Y-32964275D01*
X70860725Y-32952243D01*
X70843755Y-32939362D01*
X70801588Y-32882244D01*
X70796996Y-32811396D01*
X70831436Y-32749312D01*
X70893974Y-32715704D01*
X70919935Y-32713000D01*
X72499000Y-32713000D01*
X72567121Y-32733002D01*
G37*
%TD.AperFunction*%
%TD*%
%TA.AperFunction,Conductor*%
%TO.N,GND*%
G36*
X77567121Y-31770002D02*
G01*
X77613614Y-31823658D01*
X77625000Y-31876000D01*
X77625000Y-36874000D01*
X77604998Y-36942121D01*
X77551342Y-36988614D01*
X77499000Y-37000000D01*
X74376000Y-37000000D01*
X74307879Y-36979998D01*
X74261386Y-36926342D01*
X74250000Y-36874000D01*
X74250000Y-34588984D01*
X74517001Y-34588984D01*
X74517195Y-34593920D01*
X74519430Y-34622336D01*
X74521730Y-34634931D01*
X74564107Y-34780790D01*
X74570352Y-34795221D01*
X74646911Y-34924678D01*
X74656551Y-34937104D01*
X74762896Y-35043449D01*
X74775322Y-35053089D01*
X74904779Y-35129648D01*
X74919210Y-35135893D01*
X75053605Y-35174939D01*
X75067706Y-35174899D01*
X75071000Y-35167630D01*
X75071000Y-35161878D01*
X75579000Y-35161878D01*
X75582973Y-35175409D01*
X75590871Y-35176544D01*
X75730790Y-35135893D01*
X75745221Y-35129648D01*
X75874678Y-35053089D01*
X75887104Y-35043449D01*
X75993449Y-34937104D01*
X76003089Y-34924678D01*
X76079648Y-34795221D01*
X76085893Y-34780790D01*
X76128269Y-34634935D01*
X76130570Y-34622333D01*
X76132807Y-34593916D01*
X76133000Y-34588986D01*
X76133000Y-34209615D01*
X76128525Y-34194376D01*
X76127135Y-34193171D01*
X76119452Y-34191500D01*
X75597115Y-34191500D01*
X75581876Y-34195975D01*
X75580671Y-34197365D01*
X75579000Y-34205048D01*
X75579000Y-35161878D01*
X75071000Y-35161878D01*
X75071000Y-34209615D01*
X75066525Y-34194376D01*
X75065135Y-34193171D01*
X75057452Y-34191500D01*
X74535116Y-34191500D01*
X74519877Y-34195975D01*
X74518672Y-34197365D01*
X74517001Y-34205048D01*
X74517001Y-34588984D01*
X74250000Y-34588984D01*
X74250000Y-33672002D01*
X74270002Y-33603881D01*
X74280782Y-33589482D01*
X74295783Y-33572173D01*
X74355512Y-33533795D01*
X74426508Y-33533801D01*
X74486231Y-33572190D01*
X74515719Y-33636773D01*
X74517000Y-33654694D01*
X74517000Y-33665385D01*
X74521475Y-33680624D01*
X74522865Y-33681829D01*
X74530548Y-33683500D01*
X75052885Y-33683500D01*
X75068124Y-33679025D01*
X75069329Y-33677635D01*
X75071000Y-33669952D01*
X75071000Y-33665385D01*
X75579000Y-33665385D01*
X75583475Y-33680624D01*
X75584865Y-33681829D01*
X75592548Y-33683500D01*
X76114884Y-33683500D01*
X76130123Y-33679025D01*
X76131328Y-33677635D01*
X76132999Y-33669952D01*
X76132999Y-33286017D01*
X76132805Y-33281080D01*
X76130570Y-33252664D01*
X76128270Y-33240069D01*
X76085893Y-33094210D01*
X76079648Y-33079779D01*
X76003089Y-32950322D01*
X75993449Y-32937896D01*
X75887104Y-32831551D01*
X75874678Y-32821911D01*
X75745221Y-32745352D01*
X75730790Y-32739107D01*
X75596395Y-32700061D01*
X75582294Y-32700101D01*
X75579000Y-32707370D01*
X75579000Y-33665385D01*
X75071000Y-33665385D01*
X75071000Y-32724695D01*
X75091002Y-32656574D01*
X75101783Y-32642174D01*
X75837318Y-31793479D01*
X75897048Y-31755101D01*
X75932535Y-31750000D01*
X77499000Y-31750000D01*
X77567121Y-31770002D01*
G37*
%TD.AperFunction*%
%TD*%
M02*
