%TF.GenerationSoftware,KiCad,Pcbnew,(6.0.7)*%
%TF.CreationDate,2023-01-25T23:34:06+01:00*%
%TF.ProjectId,TFT_RF_1.0,5446545f-5246-45f3-912e-302e6b696361,rev?*%
%TF.SameCoordinates,Original*%
%TF.FileFunction,Legend,Bot*%
%TF.FilePolarity,Positive*%
%FSLAX46Y46*%
G04 Gerber Fmt 4.6, Leading zero omitted, Abs format (unit mm)*
G04 Created by KiCad (PCBNEW (6.0.7)) date 2023-01-25 23:34:06*
%MOMM*%
%LPD*%
G01*
G04 APERTURE LIST*
%ADD10C,0.300000*%
G04 APERTURE END LIST*
D10*
X50928571Y-767857D02*
X50928571Y-1625000D01*
X52428571Y-1196428D02*
X50928571Y-1196428D01*
X51642857Y-2625000D02*
X51642857Y-2125000D01*
X52428571Y-2125000D02*
X50928571Y-2125000D01*
X50928571Y-2839285D01*
X50928571Y-3196428D02*
X50928571Y-4053571D01*
X52428571Y-3625000D02*
X50928571Y-3625000D01*
X52571428Y-4196428D02*
X52571428Y-5339285D01*
X52428571Y-6553571D02*
X51714285Y-6053571D01*
X52428571Y-5696428D02*
X50928571Y-5696428D01*
X50928571Y-6267857D01*
X51000000Y-6410714D01*
X51071428Y-6482142D01*
X51214285Y-6553571D01*
X51428571Y-6553571D01*
X51571428Y-6482142D01*
X51642857Y-6410714D01*
X51714285Y-6267857D01*
X51714285Y-5696428D01*
X51642857Y-7696428D02*
X51642857Y-7196428D01*
X52428571Y-7196428D02*
X50928571Y-7196428D01*
X50928571Y-7910714D01*
X52178571Y-9178571D02*
X53178571Y-9535714D01*
X52178571Y-9892857D01*
X53107142Y-11035714D02*
X53178571Y-10892857D01*
X53178571Y-10607142D01*
X53107142Y-10464285D01*
X52964285Y-10392857D01*
X52392857Y-10392857D01*
X52250000Y-10464285D01*
X52178571Y-10607142D01*
X52178571Y-10892857D01*
X52250000Y-11035714D01*
X52392857Y-11107142D01*
X52535714Y-11107142D01*
X52678571Y-10392857D01*
X53178571Y-11750000D02*
X52178571Y-11750000D01*
X52464285Y-11750000D02*
X52321428Y-11821428D01*
X52250000Y-11892857D01*
X52178571Y-12035714D01*
X52178571Y-12178571D01*
X53178571Y-14607142D02*
X53178571Y-13750000D01*
X53178571Y-14178571D02*
X51678571Y-14178571D01*
X51892857Y-14035714D01*
X52035714Y-13892857D01*
X52107142Y-13750000D01*
X53035714Y-15250000D02*
X53107142Y-15321428D01*
X53178571Y-15250000D01*
X53107142Y-15178571D01*
X53035714Y-15250000D01*
X53178571Y-15250000D01*
X51678571Y-16250000D02*
X51678571Y-16392857D01*
X51750000Y-16535714D01*
X51821428Y-16607142D01*
X51964285Y-16678571D01*
X52250000Y-16750000D01*
X52607142Y-16750000D01*
X52892857Y-16678571D01*
X53035714Y-16607142D01*
X53107142Y-16535714D01*
X53178571Y-16392857D01*
X53178571Y-16250000D01*
X53107142Y-16107142D01*
X53035714Y-16035714D01*
X52892857Y-15964285D01*
X52607142Y-15892857D01*
X52250000Y-15892857D01*
X51964285Y-15964285D01*
X51821428Y-16035714D01*
X51750000Y-16107142D01*
X51678571Y-16250000D01*
X63265476Y-15107142D02*
X63370238Y-15421428D01*
X63370238Y-15945238D01*
X63265476Y-16154761D01*
X63160714Y-16259523D01*
X62951190Y-16364285D01*
X62741666Y-16364285D01*
X62532142Y-16259523D01*
X62427380Y-16154761D01*
X62322619Y-15945238D01*
X62217857Y-15526190D01*
X62113095Y-15316666D01*
X62008333Y-15211904D01*
X61798809Y-15107142D01*
X61589285Y-15107142D01*
X61379761Y-15211904D01*
X61275000Y-15316666D01*
X61170238Y-15526190D01*
X61170238Y-16050000D01*
X61275000Y-16364285D01*
X61903571Y-17097619D02*
X61903571Y-18250000D01*
X63370238Y-17097619D01*
X63370238Y-18250000D01*
X63160714Y-19088095D02*
X63265476Y-19192857D01*
X63370238Y-19088095D01*
X63265476Y-18983333D01*
X63160714Y-19088095D01*
X63370238Y-19088095D01*
X61275000Y-21288095D02*
X61170238Y-21078571D01*
X61170238Y-20764285D01*
X61275000Y-20450000D01*
X61484523Y-20240476D01*
X61694047Y-20135714D01*
X62113095Y-20030952D01*
X62427380Y-20030952D01*
X62846428Y-20135714D01*
X63055952Y-20240476D01*
X63265476Y-20450000D01*
X63370238Y-20764285D01*
X63370238Y-20973809D01*
X63265476Y-21288095D01*
X63160714Y-21392857D01*
X62427380Y-21392857D01*
X62427380Y-20973809D01*
X59178571Y-13500000D02*
X57678571Y-13500000D01*
X58250000Y-13500000D02*
X58178571Y-13642857D01*
X58178571Y-13928571D01*
X58250000Y-14071428D01*
X58321428Y-14142857D01*
X58464285Y-14214285D01*
X58892857Y-14214285D01*
X59035714Y-14142857D01*
X59107142Y-14071428D01*
X59178571Y-13928571D01*
X59178571Y-13642857D01*
X59107142Y-13500000D01*
X58178571Y-14714285D02*
X59178571Y-15071428D01*
X58178571Y-15428571D02*
X59178571Y-15071428D01*
X59535714Y-14928571D01*
X59607142Y-14857142D01*
X59678571Y-14714285D01*
X59035714Y-16000000D02*
X59107142Y-16071428D01*
X59178571Y-16000000D01*
X59107142Y-15928571D01*
X59035714Y-16000000D01*
X59178571Y-16000000D01*
X66678571Y-2000000D02*
X66678571Y-2142857D01*
X66750000Y-2285714D01*
X66821428Y-2357142D01*
X66964285Y-2428571D01*
X67250000Y-2500000D01*
X67607142Y-2500000D01*
X67892857Y-2428571D01*
X68035714Y-2357142D01*
X68107142Y-2285714D01*
X68178571Y-2142857D01*
X68178571Y-2000000D01*
X68107142Y-1857142D01*
X68035714Y-1785714D01*
X67892857Y-1714285D01*
X67607142Y-1642857D01*
X67250000Y-1642857D01*
X66964285Y-1714285D01*
X66821428Y-1785714D01*
X66750000Y-1857142D01*
X66678571Y-2000000D01*
X68178571Y-3928571D02*
X68178571Y-3071428D01*
X68178571Y-3500000D02*
X66678571Y-3500000D01*
X66892857Y-3357142D01*
X67035714Y-3214285D01*
X67107142Y-3071428D01*
X68035714Y-4571428D02*
X68107142Y-4642857D01*
X68178571Y-4571428D01*
X68107142Y-4500000D01*
X68035714Y-4571428D01*
X68178571Y-4571428D01*
X66821428Y-5214285D02*
X66750000Y-5285714D01*
X66678571Y-5428571D01*
X66678571Y-5785714D01*
X66750000Y-5928571D01*
X66821428Y-6000000D01*
X66964285Y-6071428D01*
X67107142Y-6071428D01*
X67321428Y-6000000D01*
X68178571Y-5142857D01*
X68178571Y-6071428D01*
X66678571Y-7000000D02*
X66678571Y-7142857D01*
X66750000Y-7285714D01*
X66821428Y-7357142D01*
X66964285Y-7428571D01*
X67250000Y-7500000D01*
X67607142Y-7500000D01*
X67892857Y-7428571D01*
X68035714Y-7357142D01*
X68107142Y-7285714D01*
X68178571Y-7142857D01*
X68178571Y-7000000D01*
X68107142Y-6857142D01*
X68035714Y-6785714D01*
X67892857Y-6714285D01*
X67607142Y-6642857D01*
X67250000Y-6642857D01*
X66964285Y-6714285D01*
X66821428Y-6785714D01*
X66750000Y-6857142D01*
X66678571Y-7000000D01*
X66821428Y-8071428D02*
X66750000Y-8142857D01*
X66678571Y-8285714D01*
X66678571Y-8642857D01*
X66750000Y-8785714D01*
X66821428Y-8857142D01*
X66964285Y-8928571D01*
X67107142Y-8928571D01*
X67321428Y-8857142D01*
X68178571Y-8000000D01*
X68178571Y-8928571D01*
X66678571Y-9428571D02*
X66678571Y-10357142D01*
X67250000Y-9857142D01*
X67250000Y-10071428D01*
X67321428Y-10214285D01*
X67392857Y-10285714D01*
X67535714Y-10357142D01*
X67892857Y-10357142D01*
X68035714Y-10285714D01*
X68107142Y-10214285D01*
X68178571Y-10071428D01*
X68178571Y-9642857D01*
X68107142Y-9500000D01*
X68035714Y-9428571D01*
M02*
