%TF.GenerationSoftware,KiCad,Pcbnew,(6.0.7)*%
%TF.CreationDate,2023-01-25T23:34:06+01:00*%
%TF.ProjectId,TFT_RF_1.0,5446545f-5246-45f3-912e-302e6b696361,rev?*%
%TF.SameCoordinates,Original*%
%TF.FileFunction,Legend,Top*%
%TF.FilePolarity,Positive*%
%FSLAX46Y46*%
G04 Gerber Fmt 4.6, Leading zero omitted, Abs format (unit mm)*
G04 Created by KiCad (PCBNEW (6.0.7)) date 2023-01-25 23:34:06*
%MOMM*%
%LPD*%
G01*
G04 APERTURE LIST*
%ADD10C,0.150000*%
%ADD11C,0.120000*%
G04 APERTURE END LIST*
D10*
X45117857Y-2703571D02*
X45146428Y-2617857D01*
X45146428Y-2475000D01*
X45117857Y-2417857D01*
X45089285Y-2389285D01*
X45032142Y-2360714D01*
X44975000Y-2360714D01*
X44917857Y-2389285D01*
X44889285Y-2417857D01*
X44860714Y-2475000D01*
X44832142Y-2589285D01*
X44803571Y-2646428D01*
X44775000Y-2675000D01*
X44717857Y-2703571D01*
X44660714Y-2703571D01*
X44603571Y-2675000D01*
X44575000Y-2646428D01*
X44546428Y-2589285D01*
X44546428Y-2446428D01*
X44575000Y-2360714D01*
X44546428Y-2160714D02*
X45146428Y-2017857D01*
X44717857Y-1903571D01*
X45146428Y-1789285D01*
X44546428Y-1646428D01*
X44546428Y-1303571D02*
X44546428Y-1189285D01*
X44575000Y-1132142D01*
X44632142Y-1075000D01*
X44746428Y-1046428D01*
X44946428Y-1046428D01*
X45060714Y-1075000D01*
X45117857Y-1132142D01*
X45146428Y-1189285D01*
X45146428Y-1303571D01*
X45117857Y-1360714D01*
X45060714Y-1417857D01*
X44946428Y-1446428D01*
X44746428Y-1446428D01*
X44632142Y-1417857D01*
X44575000Y-1360714D01*
X44546428Y-1303571D01*
X22521428Y-58364285D02*
X21921428Y-58364285D01*
X22207142Y-58364285D02*
X22207142Y-58021428D01*
X22521428Y-58021428D02*
X21921428Y-58021428D01*
X22521428Y-57735714D02*
X21921428Y-57735714D01*
X21950000Y-57135714D02*
X21921428Y-57192857D01*
X21921428Y-57278571D01*
X21950000Y-57364285D01*
X22007142Y-57421428D01*
X22064285Y-57450000D01*
X22178571Y-57478571D01*
X22264285Y-57478571D01*
X22378571Y-57450000D01*
X22435714Y-57421428D01*
X22492857Y-57364285D01*
X22521428Y-57278571D01*
X22521428Y-57221428D01*
X22492857Y-57135714D01*
X22464285Y-57107142D01*
X22264285Y-57107142D01*
X22264285Y-57221428D01*
X13342904Y-48816666D02*
X12542904Y-48816666D01*
X12542904Y-48511904D01*
X12581000Y-48435714D01*
X12619095Y-48397619D01*
X12695285Y-48359523D01*
X12809571Y-48359523D01*
X12885761Y-48397619D01*
X12923857Y-48435714D01*
X12961952Y-48511904D01*
X12961952Y-48816666D01*
X12542904Y-48092857D02*
X13342904Y-47902380D01*
X12771476Y-47750000D01*
X13342904Y-47597619D01*
X12542904Y-47407142D01*
X13342904Y-46645238D02*
X12961952Y-46911904D01*
X13342904Y-47102380D02*
X12542904Y-47102380D01*
X12542904Y-46797619D01*
X12581000Y-46721428D01*
X12619095Y-46683333D01*
X12695285Y-46645238D01*
X12809571Y-46645238D01*
X12885761Y-46683333D01*
X12923857Y-46721428D01*
X12961952Y-46797619D01*
X12961952Y-47102380D01*
X14592809Y-48778571D02*
X14630904Y-48664285D01*
X14630904Y-48473809D01*
X14592809Y-48397619D01*
X14554714Y-48359523D01*
X14478523Y-48321428D01*
X14402333Y-48321428D01*
X14326142Y-48359523D01*
X14288047Y-48397619D01*
X14249952Y-48473809D01*
X14211857Y-48626190D01*
X14173761Y-48702380D01*
X14135666Y-48740476D01*
X14059476Y-48778571D01*
X13983285Y-48778571D01*
X13907095Y-48740476D01*
X13869000Y-48702380D01*
X13830904Y-48626190D01*
X13830904Y-48435714D01*
X13869000Y-48321428D01*
X14630904Y-47521428D02*
X14249952Y-47788095D01*
X14630904Y-47978571D02*
X13830904Y-47978571D01*
X13830904Y-47673809D01*
X13869000Y-47597619D01*
X13907095Y-47559523D01*
X13983285Y-47521428D01*
X14097571Y-47521428D01*
X14173761Y-47559523D01*
X14211857Y-47597619D01*
X14249952Y-47673809D01*
X14249952Y-47978571D01*
X14554714Y-46721428D02*
X14592809Y-46759523D01*
X14630904Y-46873809D01*
X14630904Y-46950000D01*
X14592809Y-47064285D01*
X14516619Y-47140476D01*
X14440428Y-47178571D01*
X14288047Y-47216666D01*
X14173761Y-47216666D01*
X14021380Y-47178571D01*
X13945190Y-47140476D01*
X13869000Y-47064285D01*
X13830904Y-46950000D01*
X13830904Y-46873809D01*
X13869000Y-46759523D01*
X13907095Y-46721428D01*
X31796428Y-2617857D02*
X31796428Y-2246428D01*
X32025000Y-2446428D01*
X32025000Y-2360714D01*
X32053571Y-2303571D01*
X32082142Y-2275000D01*
X32139285Y-2246428D01*
X32282142Y-2246428D01*
X32339285Y-2275000D01*
X32367857Y-2303571D01*
X32396428Y-2360714D01*
X32396428Y-2532142D01*
X32367857Y-2589285D01*
X32339285Y-2617857D01*
X31796428Y-2075000D02*
X32396428Y-1875000D01*
X31796428Y-1675000D01*
X31796428Y-1532142D02*
X31796428Y-1160714D01*
X32025000Y-1360714D01*
X32025000Y-1275000D01*
X32053571Y-1217857D01*
X32082142Y-1189285D01*
X32139285Y-1160714D01*
X32282142Y-1160714D01*
X32339285Y-1189285D01*
X32367857Y-1217857D01*
X32396428Y-1275000D01*
X32396428Y-1446428D01*
X32367857Y-1503571D01*
X32339285Y-1532142D01*
X18646428Y-58096428D02*
X18646428Y-58382142D01*
X18046428Y-58382142D01*
X18046428Y-57782142D02*
X18046428Y-57667857D01*
X18075000Y-57610714D01*
X18132142Y-57553571D01*
X18246428Y-57525000D01*
X18446428Y-57525000D01*
X18560714Y-57553571D01*
X18617857Y-57610714D01*
X18646428Y-57667857D01*
X18646428Y-57782142D01*
X18617857Y-57839285D01*
X18560714Y-57896428D01*
X18446428Y-57925000D01*
X18246428Y-57925000D01*
X18132142Y-57896428D01*
X18075000Y-57839285D01*
X18046428Y-57782142D01*
X18046428Y-57325000D02*
X18646428Y-57182142D01*
X18217857Y-57067857D01*
X18646428Y-56953571D01*
X18046428Y-56810714D01*
X36950000Y-2332142D02*
X36921428Y-2389285D01*
X36921428Y-2475000D01*
X36950000Y-2560714D01*
X37007142Y-2617857D01*
X37064285Y-2646428D01*
X37178571Y-2675000D01*
X37264285Y-2675000D01*
X37378571Y-2646428D01*
X37435714Y-2617857D01*
X37492857Y-2560714D01*
X37521428Y-2475000D01*
X37521428Y-2417857D01*
X37492857Y-2332142D01*
X37464285Y-2303571D01*
X37264285Y-2303571D01*
X37264285Y-2417857D01*
X37521428Y-2046428D02*
X36921428Y-2046428D01*
X37521428Y-1703571D01*
X36921428Y-1703571D01*
X37521428Y-1417857D02*
X36921428Y-1417857D01*
X36921428Y-1275000D01*
X36950000Y-1189285D01*
X37007142Y-1132142D01*
X37064285Y-1103571D01*
X37178571Y-1075000D01*
X37264285Y-1075000D01*
X37378571Y-1103571D01*
X37435714Y-1132142D01*
X37492857Y-1189285D01*
X37521428Y-1275000D01*
X37521428Y-1417857D01*
X42521428Y-2985714D02*
X41921428Y-2985714D01*
X42521428Y-2642857D01*
X41921428Y-2642857D01*
X42521428Y-2014285D02*
X42235714Y-2214285D01*
X42521428Y-2357142D02*
X41921428Y-2357142D01*
X41921428Y-2128571D01*
X41950000Y-2071428D01*
X41978571Y-2042857D01*
X42035714Y-2014285D01*
X42121428Y-2014285D01*
X42178571Y-2042857D01*
X42207142Y-2071428D01*
X42235714Y-2128571D01*
X42235714Y-2357142D01*
X42492857Y-1785714D02*
X42521428Y-1700000D01*
X42521428Y-1557142D01*
X42492857Y-1500000D01*
X42464285Y-1471428D01*
X42407142Y-1442857D01*
X42350000Y-1442857D01*
X42292857Y-1471428D01*
X42264285Y-1500000D01*
X42235714Y-1557142D01*
X42207142Y-1671428D01*
X42178571Y-1728571D01*
X42150000Y-1757142D01*
X42092857Y-1785714D01*
X42035714Y-1785714D01*
X41978571Y-1757142D01*
X41950000Y-1728571D01*
X41921428Y-1671428D01*
X41921428Y-1528571D01*
X41950000Y-1442857D01*
X41921428Y-1271428D02*
X41921428Y-928571D01*
X42521428Y-1100000D02*
X41921428Y-1100000D01*
X39992857Y-3271428D02*
X40021428Y-3185714D01*
X40021428Y-3042857D01*
X39992857Y-2985714D01*
X39964285Y-2957142D01*
X39907142Y-2928571D01*
X39850000Y-2928571D01*
X39792857Y-2957142D01*
X39764285Y-2985714D01*
X39735714Y-3042857D01*
X39707142Y-3157142D01*
X39678571Y-3214285D01*
X39650000Y-3242857D01*
X39592857Y-3271428D01*
X39535714Y-3271428D01*
X39478571Y-3242857D01*
X39450000Y-3214285D01*
X39421428Y-3157142D01*
X39421428Y-3014285D01*
X39450000Y-2928571D01*
X39421428Y-2728571D02*
X40021428Y-2585714D01*
X39592857Y-2471428D01*
X40021428Y-2357142D01*
X39421428Y-2214285D01*
X40021428Y-1985714D02*
X39421428Y-1985714D01*
X39421428Y-1842857D01*
X39450000Y-1757142D01*
X39507142Y-1700000D01*
X39564285Y-1671428D01*
X39678571Y-1642857D01*
X39764285Y-1642857D01*
X39878571Y-1671428D01*
X39935714Y-1700000D01*
X39992857Y-1757142D01*
X40021428Y-1842857D01*
X40021428Y-1985714D01*
X40021428Y-1385714D02*
X39421428Y-1385714D01*
X39421428Y-985714D02*
X39421428Y-871428D01*
X39450000Y-814285D01*
X39507142Y-757142D01*
X39621428Y-728571D01*
X39821428Y-728571D01*
X39935714Y-757142D01*
X39992857Y-814285D01*
X40021428Y-871428D01*
X40021428Y-985714D01*
X39992857Y-1042857D01*
X39935714Y-1100000D01*
X39821428Y-1128571D01*
X39621428Y-1128571D01*
X39507142Y-1100000D01*
X39450000Y-1042857D01*
X39421428Y-985714D01*
X22171428Y-51757142D02*
X22657142Y-51757142D01*
X22714285Y-51728571D01*
X22742857Y-51700000D01*
X22771428Y-51642857D01*
X22771428Y-51528571D01*
X22742857Y-51471428D01*
X22714285Y-51442857D01*
X22657142Y-51414285D01*
X22171428Y-51414285D01*
X22742857Y-51157142D02*
X22771428Y-51071428D01*
X22771428Y-50928571D01*
X22742857Y-50871428D01*
X22714285Y-50842857D01*
X22657142Y-50814285D01*
X22600000Y-50814285D01*
X22542857Y-50842857D01*
X22514285Y-50871428D01*
X22485714Y-50928571D01*
X22457142Y-51042857D01*
X22428571Y-51100000D01*
X22400000Y-51128571D01*
X22342857Y-51157142D01*
X22285714Y-51157142D01*
X22228571Y-51128571D01*
X22200000Y-51100000D01*
X22171428Y-51042857D01*
X22171428Y-50900000D01*
X22200000Y-50814285D01*
X22457142Y-50357142D02*
X22485714Y-50271428D01*
X22514285Y-50242857D01*
X22571428Y-50214285D01*
X22657142Y-50214285D01*
X22714285Y-50242857D01*
X22742857Y-50271428D01*
X22771428Y-50328571D01*
X22771428Y-50557142D01*
X22171428Y-50557142D01*
X22171428Y-50357142D01*
X22200000Y-50300000D01*
X22228571Y-50271428D01*
X22285714Y-50242857D01*
X22342857Y-50242857D01*
X22400000Y-50271428D01*
X22428571Y-50300000D01*
X22457142Y-50357142D01*
X22457142Y-50557142D01*
X18332142Y-51671428D02*
X18360714Y-51585714D01*
X18389285Y-51557142D01*
X18446428Y-51528571D01*
X18532142Y-51528571D01*
X18589285Y-51557142D01*
X18617857Y-51585714D01*
X18646428Y-51642857D01*
X18646428Y-51871428D01*
X18046428Y-51871428D01*
X18046428Y-51671428D01*
X18075000Y-51614285D01*
X18103571Y-51585714D01*
X18160714Y-51557142D01*
X18217857Y-51557142D01*
X18275000Y-51585714D01*
X18303571Y-51614285D01*
X18332142Y-51671428D01*
X18332142Y-51871428D01*
X18475000Y-51300000D02*
X18475000Y-51014285D01*
X18646428Y-51357142D02*
X18046428Y-51157142D01*
X18646428Y-50957142D01*
X18046428Y-50842857D02*
X18046428Y-50500000D01*
X18646428Y-50671428D02*
X18046428Y-50671428D01*
X18046428Y-50385714D02*
X18046428Y-50042857D01*
X18646428Y-50214285D02*
X18046428Y-50214285D01*
X34867857Y-3232142D02*
X34896428Y-3146428D01*
X34896428Y-3003571D01*
X34867857Y-2946428D01*
X34839285Y-2917857D01*
X34782142Y-2889285D01*
X34725000Y-2889285D01*
X34667857Y-2917857D01*
X34639285Y-2946428D01*
X34610714Y-3003571D01*
X34582142Y-3117857D01*
X34553571Y-3175000D01*
X34525000Y-3203571D01*
X34467857Y-3232142D01*
X34410714Y-3232142D01*
X34353571Y-3203571D01*
X34325000Y-3175000D01*
X34296428Y-3117857D01*
X34296428Y-2975000D01*
X34325000Y-2889285D01*
X34296428Y-2689285D02*
X34896428Y-2546428D01*
X34467857Y-2432142D01*
X34896428Y-2317857D01*
X34296428Y-2175000D01*
X34839285Y-1603571D02*
X34867857Y-1632142D01*
X34896428Y-1717857D01*
X34896428Y-1775000D01*
X34867857Y-1860714D01*
X34810714Y-1917857D01*
X34753571Y-1946428D01*
X34639285Y-1975000D01*
X34553571Y-1975000D01*
X34439285Y-1946428D01*
X34382142Y-1917857D01*
X34325000Y-1860714D01*
X34296428Y-1775000D01*
X34296428Y-1717857D01*
X34325000Y-1632142D01*
X34353571Y-1603571D01*
X34896428Y-1060714D02*
X34896428Y-1346428D01*
X34296428Y-1346428D01*
X34896428Y-860714D02*
X34296428Y-860714D01*
X34896428Y-517857D02*
X34553571Y-775000D01*
X34296428Y-517857D02*
X34639285Y-860714D01*
X14192857Y-55585714D02*
X14230952Y-55471428D01*
X14269047Y-55433333D01*
X14345238Y-55395238D01*
X14459523Y-55395238D01*
X14535714Y-55433333D01*
X14573809Y-55471428D01*
X14611904Y-55547619D01*
X14611904Y-55852380D01*
X13811904Y-55852380D01*
X13811904Y-55585714D01*
X13850000Y-55509523D01*
X13888095Y-55471428D01*
X13964285Y-55433333D01*
X14040476Y-55433333D01*
X14116666Y-55471428D01*
X14154761Y-55509523D01*
X14192857Y-55585714D01*
X14192857Y-55852380D01*
X13811904Y-54900000D02*
X13811904Y-54747619D01*
X13850000Y-54671428D01*
X13926190Y-54595238D01*
X14078571Y-54557142D01*
X14345238Y-54557142D01*
X14497619Y-54595238D01*
X14573809Y-54671428D01*
X14611904Y-54747619D01*
X14611904Y-54900000D01*
X14573809Y-54976190D01*
X14497619Y-55052380D01*
X14345238Y-55090476D01*
X14078571Y-55090476D01*
X13926190Y-55052380D01*
X13850000Y-54976190D01*
X13811904Y-54900000D01*
X13811904Y-54061904D02*
X13811904Y-53909523D01*
X13850000Y-53833333D01*
X13926190Y-53757142D01*
X14078571Y-53719047D01*
X14345238Y-53719047D01*
X14497619Y-53757142D01*
X14573809Y-53833333D01*
X14611904Y-53909523D01*
X14611904Y-54061904D01*
X14573809Y-54138095D01*
X14497619Y-54214285D01*
X14345238Y-54252380D01*
X14078571Y-54252380D01*
X13926190Y-54214285D01*
X13850000Y-54138095D01*
X13811904Y-54061904D01*
X13811904Y-53490476D02*
X13811904Y-53033333D01*
X14611904Y-53261904D02*
X13811904Y-53261904D01*
%TO.C,U4*%
X64538095Y-8997380D02*
X64538095Y-9806904D01*
X64585714Y-9902142D01*
X64633333Y-9949761D01*
X64728571Y-9997380D01*
X64919047Y-9997380D01*
X65014285Y-9949761D01*
X65061904Y-9902142D01*
X65109523Y-9806904D01*
X65109523Y-8997380D01*
X66014285Y-9330714D02*
X66014285Y-9997380D01*
X65776190Y-8949761D02*
X65538095Y-9664047D01*
X66157142Y-9664047D01*
%TO.C,C16*%
X44197142Y-11617142D02*
X44149523Y-11664761D01*
X44006666Y-11712380D01*
X43911428Y-11712380D01*
X43768571Y-11664761D01*
X43673333Y-11569523D01*
X43625714Y-11474285D01*
X43578095Y-11283809D01*
X43578095Y-11140952D01*
X43625714Y-10950476D01*
X43673333Y-10855238D01*
X43768571Y-10760000D01*
X43911428Y-10712380D01*
X44006666Y-10712380D01*
X44149523Y-10760000D01*
X44197142Y-10807619D01*
X45149523Y-11712380D02*
X44578095Y-11712380D01*
X44863809Y-11712380D02*
X44863809Y-10712380D01*
X44768571Y-10855238D01*
X44673333Y-10950476D01*
X44578095Y-10998095D01*
X46006666Y-10712380D02*
X45816190Y-10712380D01*
X45720952Y-10760000D01*
X45673333Y-10807619D01*
X45578095Y-10950476D01*
X45530476Y-11140952D01*
X45530476Y-11521904D01*
X45578095Y-11617142D01*
X45625714Y-11664761D01*
X45720952Y-11712380D01*
X45911428Y-11712380D01*
X46006666Y-11664761D01*
X46054285Y-11617142D01*
X46101904Y-11521904D01*
X46101904Y-11283809D01*
X46054285Y-11188571D01*
X46006666Y-11140952D01*
X45911428Y-11093333D01*
X45720952Y-11093333D01*
X45625714Y-11140952D01*
X45578095Y-11188571D01*
X45530476Y-11283809D01*
%TO.C,C15*%
X48032142Y-19082142D02*
X47984523Y-19129761D01*
X47841666Y-19177380D01*
X47746428Y-19177380D01*
X47603571Y-19129761D01*
X47508333Y-19034523D01*
X47460714Y-18939285D01*
X47413095Y-18748809D01*
X47413095Y-18605952D01*
X47460714Y-18415476D01*
X47508333Y-18320238D01*
X47603571Y-18225000D01*
X47746428Y-18177380D01*
X47841666Y-18177380D01*
X47984523Y-18225000D01*
X48032142Y-18272619D01*
X48984523Y-19177380D02*
X48413095Y-19177380D01*
X48698809Y-19177380D02*
X48698809Y-18177380D01*
X48603571Y-18320238D01*
X48508333Y-18415476D01*
X48413095Y-18463095D01*
X49889285Y-18177380D02*
X49413095Y-18177380D01*
X49365476Y-18653571D01*
X49413095Y-18605952D01*
X49508333Y-18558333D01*
X49746428Y-18558333D01*
X49841666Y-18605952D01*
X49889285Y-18653571D01*
X49936904Y-18748809D01*
X49936904Y-18986904D01*
X49889285Y-19082142D01*
X49841666Y-19129761D01*
X49746428Y-19177380D01*
X49508333Y-19177380D01*
X49413095Y-19129761D01*
X49365476Y-19082142D01*
%TO.C,C11*%
X25682142Y-25782142D02*
X25634523Y-25829761D01*
X25491666Y-25877380D01*
X25396428Y-25877380D01*
X25253571Y-25829761D01*
X25158333Y-25734523D01*
X25110714Y-25639285D01*
X25063095Y-25448809D01*
X25063095Y-25305952D01*
X25110714Y-25115476D01*
X25158333Y-25020238D01*
X25253571Y-24925000D01*
X25396428Y-24877380D01*
X25491666Y-24877380D01*
X25634523Y-24925000D01*
X25682142Y-24972619D01*
X26634523Y-25877380D02*
X26063095Y-25877380D01*
X26348809Y-25877380D02*
X26348809Y-24877380D01*
X26253571Y-25020238D01*
X26158333Y-25115476D01*
X26063095Y-25163095D01*
X27586904Y-25877380D02*
X27015476Y-25877380D01*
X27301190Y-25877380D02*
X27301190Y-24877380D01*
X27205952Y-25020238D01*
X27110714Y-25115476D01*
X27015476Y-25163095D01*
%TO.C,D4*%
X69136904Y-41202380D02*
X69136904Y-40202380D01*
X69375000Y-40202380D01*
X69517857Y-40250000D01*
X69613095Y-40345238D01*
X69660714Y-40440476D01*
X69708333Y-40630952D01*
X69708333Y-40773809D01*
X69660714Y-40964285D01*
X69613095Y-41059523D01*
X69517857Y-41154761D01*
X69375000Y-41202380D01*
X69136904Y-41202380D01*
X70565476Y-40535714D02*
X70565476Y-41202380D01*
X70327380Y-40154761D02*
X70089285Y-40869047D01*
X70708333Y-40869047D01*
%TO.C,D6*%
X78327380Y-58488095D02*
X77327380Y-58488095D01*
X77327380Y-58250000D01*
X77375000Y-58107142D01*
X77470238Y-58011904D01*
X77565476Y-57964285D01*
X77755952Y-57916666D01*
X77898809Y-57916666D01*
X78089285Y-57964285D01*
X78184523Y-58011904D01*
X78279761Y-58107142D01*
X78327380Y-58250000D01*
X78327380Y-58488095D01*
X77327380Y-57059523D02*
X77327380Y-57250000D01*
X77375000Y-57345238D01*
X77422619Y-57392857D01*
X77565476Y-57488095D01*
X77755952Y-57535714D01*
X78136904Y-57535714D01*
X78232142Y-57488095D01*
X78279761Y-57440476D01*
X78327380Y-57345238D01*
X78327380Y-57154761D01*
X78279761Y-57059523D01*
X78232142Y-57011904D01*
X78136904Y-56964285D01*
X77898809Y-56964285D01*
X77803571Y-57011904D01*
X77755952Y-57059523D01*
X77708333Y-57154761D01*
X77708333Y-57345238D01*
X77755952Y-57440476D01*
X77803571Y-57488095D01*
X77898809Y-57535714D01*
%TO.C,C6*%
X37333333Y-36482142D02*
X37285714Y-36529761D01*
X37142857Y-36577380D01*
X37047619Y-36577380D01*
X36904761Y-36529761D01*
X36809523Y-36434523D01*
X36761904Y-36339285D01*
X36714285Y-36148809D01*
X36714285Y-36005952D01*
X36761904Y-35815476D01*
X36809523Y-35720238D01*
X36904761Y-35625000D01*
X37047619Y-35577380D01*
X37142857Y-35577380D01*
X37285714Y-35625000D01*
X37333333Y-35672619D01*
X38190476Y-35577380D02*
X38000000Y-35577380D01*
X37904761Y-35625000D01*
X37857142Y-35672619D01*
X37761904Y-35815476D01*
X37714285Y-36005952D01*
X37714285Y-36386904D01*
X37761904Y-36482142D01*
X37809523Y-36529761D01*
X37904761Y-36577380D01*
X38095238Y-36577380D01*
X38190476Y-36529761D01*
X38238095Y-36482142D01*
X38285714Y-36386904D01*
X38285714Y-36148809D01*
X38238095Y-36053571D01*
X38190476Y-36005952D01*
X38095238Y-35958333D01*
X37904761Y-35958333D01*
X37809523Y-36005952D01*
X37761904Y-36053571D01*
X37714285Y-36148809D01*
%TO.C,J4*%
X2666666Y-3972380D02*
X2666666Y-4686666D01*
X2619047Y-4829523D01*
X2523809Y-4924761D01*
X2380952Y-4972380D01*
X2285714Y-4972380D01*
X3571428Y-4305714D02*
X3571428Y-4972380D01*
X3333333Y-3924761D02*
X3095238Y-4639047D01*
X3714285Y-4639047D01*
%TO.C,R7*%
X38383333Y-48402380D02*
X38050000Y-47926190D01*
X37811904Y-48402380D02*
X37811904Y-47402380D01*
X38192857Y-47402380D01*
X38288095Y-47450000D01*
X38335714Y-47497619D01*
X38383333Y-47592857D01*
X38383333Y-47735714D01*
X38335714Y-47830952D01*
X38288095Y-47878571D01*
X38192857Y-47926190D01*
X37811904Y-47926190D01*
X38716666Y-47402380D02*
X39383333Y-47402380D01*
X38954761Y-48402380D01*
%TO.C,C13*%
X28032142Y-23282142D02*
X27984523Y-23329761D01*
X27841666Y-23377380D01*
X27746428Y-23377380D01*
X27603571Y-23329761D01*
X27508333Y-23234523D01*
X27460714Y-23139285D01*
X27413095Y-22948809D01*
X27413095Y-22805952D01*
X27460714Y-22615476D01*
X27508333Y-22520238D01*
X27603571Y-22425000D01*
X27746428Y-22377380D01*
X27841666Y-22377380D01*
X27984523Y-22425000D01*
X28032142Y-22472619D01*
X28984523Y-23377380D02*
X28413095Y-23377380D01*
X28698809Y-23377380D02*
X28698809Y-22377380D01*
X28603571Y-22520238D01*
X28508333Y-22615476D01*
X28413095Y-22663095D01*
X29317857Y-22377380D02*
X29936904Y-22377380D01*
X29603571Y-22758333D01*
X29746428Y-22758333D01*
X29841666Y-22805952D01*
X29889285Y-22853571D01*
X29936904Y-22948809D01*
X29936904Y-23186904D01*
X29889285Y-23282142D01*
X29841666Y-23329761D01*
X29746428Y-23377380D01*
X29460714Y-23377380D01*
X29365476Y-23329761D01*
X29317857Y-23282142D01*
%TO.C,R2*%
X32208333Y-35952380D02*
X31875000Y-35476190D01*
X31636904Y-35952380D02*
X31636904Y-34952380D01*
X32017857Y-34952380D01*
X32113095Y-35000000D01*
X32160714Y-35047619D01*
X32208333Y-35142857D01*
X32208333Y-35285714D01*
X32160714Y-35380952D01*
X32113095Y-35428571D01*
X32017857Y-35476190D01*
X31636904Y-35476190D01*
X32589285Y-35047619D02*
X32636904Y-35000000D01*
X32732142Y-34952380D01*
X32970238Y-34952380D01*
X33065476Y-35000000D01*
X33113095Y-35047619D01*
X33160714Y-35142857D01*
X33160714Y-35238095D01*
X33113095Y-35380952D01*
X32541666Y-35952380D01*
X33160714Y-35952380D01*
%TO.C,C14*%
X47247142Y-8967142D02*
X47199523Y-9014761D01*
X47056666Y-9062380D01*
X46961428Y-9062380D01*
X46818571Y-9014761D01*
X46723333Y-8919523D01*
X46675714Y-8824285D01*
X46628095Y-8633809D01*
X46628095Y-8490952D01*
X46675714Y-8300476D01*
X46723333Y-8205238D01*
X46818571Y-8110000D01*
X46961428Y-8062380D01*
X47056666Y-8062380D01*
X47199523Y-8110000D01*
X47247142Y-8157619D01*
X48199523Y-9062380D02*
X47628095Y-9062380D01*
X47913809Y-9062380D02*
X47913809Y-8062380D01*
X47818571Y-8205238D01*
X47723333Y-8300476D01*
X47628095Y-8348095D01*
X49056666Y-8395714D02*
X49056666Y-9062380D01*
X48818571Y-8014761D02*
X48580476Y-8729047D01*
X49199523Y-8729047D01*
%TO.C,RV1*%
X3279761Y-47452380D02*
X2946428Y-46976190D01*
X2708333Y-47452380D02*
X2708333Y-46452380D01*
X3089285Y-46452380D01*
X3184523Y-46500000D01*
X3232142Y-46547619D01*
X3279761Y-46642857D01*
X3279761Y-46785714D01*
X3232142Y-46880952D01*
X3184523Y-46928571D01*
X3089285Y-46976190D01*
X2708333Y-46976190D01*
X3565476Y-46452380D02*
X3898809Y-47452380D01*
X4232142Y-46452380D01*
X5089285Y-47452380D02*
X4517857Y-47452380D01*
X4803571Y-47452380D02*
X4803571Y-46452380D01*
X4708333Y-46595238D01*
X4613095Y-46690476D01*
X4517857Y-46738095D01*
%TO.C,D2*%
X52542380Y-48978095D02*
X51542380Y-48978095D01*
X51542380Y-48740000D01*
X51590000Y-48597142D01*
X51685238Y-48501904D01*
X51780476Y-48454285D01*
X51970952Y-48406666D01*
X52113809Y-48406666D01*
X52304285Y-48454285D01*
X52399523Y-48501904D01*
X52494761Y-48597142D01*
X52542380Y-48740000D01*
X52542380Y-48978095D01*
X51637619Y-48025714D02*
X51590000Y-47978095D01*
X51542380Y-47882857D01*
X51542380Y-47644761D01*
X51590000Y-47549523D01*
X51637619Y-47501904D01*
X51732857Y-47454285D01*
X51828095Y-47454285D01*
X51970952Y-47501904D01*
X52542380Y-48073333D01*
X52542380Y-47454285D01*
%TO.C,C9*%
X48207142Y-21641666D02*
X48254761Y-21689285D01*
X48302380Y-21832142D01*
X48302380Y-21927380D01*
X48254761Y-22070238D01*
X48159523Y-22165476D01*
X48064285Y-22213095D01*
X47873809Y-22260714D01*
X47730952Y-22260714D01*
X47540476Y-22213095D01*
X47445238Y-22165476D01*
X47350000Y-22070238D01*
X47302380Y-21927380D01*
X47302380Y-21832142D01*
X47350000Y-21689285D01*
X47397619Y-21641666D01*
X48302380Y-21165476D02*
X48302380Y-20975000D01*
X48254761Y-20879761D01*
X48207142Y-20832142D01*
X48064285Y-20736904D01*
X47873809Y-20689285D01*
X47492857Y-20689285D01*
X47397619Y-20736904D01*
X47350000Y-20784523D01*
X47302380Y-20879761D01*
X47302380Y-21070238D01*
X47350000Y-21165476D01*
X47397619Y-21213095D01*
X47492857Y-21260714D01*
X47730952Y-21260714D01*
X47826190Y-21213095D01*
X47873809Y-21165476D01*
X47921428Y-21070238D01*
X47921428Y-20879761D01*
X47873809Y-20784523D01*
X47826190Y-20736904D01*
X47730952Y-20689285D01*
%TO.C,Q1*%
X66779761Y-36297619D02*
X66684523Y-36250000D01*
X66589285Y-36154761D01*
X66446428Y-36011904D01*
X66351190Y-35964285D01*
X66255952Y-35964285D01*
X66303571Y-36202380D02*
X66208333Y-36154761D01*
X66113095Y-36059523D01*
X66065476Y-35869047D01*
X66065476Y-35535714D01*
X66113095Y-35345238D01*
X66208333Y-35250000D01*
X66303571Y-35202380D01*
X66494047Y-35202380D01*
X66589285Y-35250000D01*
X66684523Y-35345238D01*
X66732142Y-35535714D01*
X66732142Y-35869047D01*
X66684523Y-36059523D01*
X66589285Y-36154761D01*
X66494047Y-36202380D01*
X66303571Y-36202380D01*
X67684523Y-36202380D02*
X67113095Y-36202380D01*
X67398809Y-36202380D02*
X67398809Y-35202380D01*
X67303571Y-35345238D01*
X67208333Y-35440476D01*
X67113095Y-35488095D01*
%TO.C,C4*%
X61833333Y-36857142D02*
X61785714Y-36904761D01*
X61642857Y-36952380D01*
X61547619Y-36952380D01*
X61404761Y-36904761D01*
X61309523Y-36809523D01*
X61261904Y-36714285D01*
X61214285Y-36523809D01*
X61214285Y-36380952D01*
X61261904Y-36190476D01*
X61309523Y-36095238D01*
X61404761Y-36000000D01*
X61547619Y-35952380D01*
X61642857Y-35952380D01*
X61785714Y-36000000D01*
X61833333Y-36047619D01*
X62690476Y-36285714D02*
X62690476Y-36952380D01*
X62452380Y-35904761D02*
X62214285Y-36619047D01*
X62833333Y-36619047D01*
%TO.C,U2*%
X55538095Y-28102380D02*
X55538095Y-28911904D01*
X55585714Y-29007142D01*
X55633333Y-29054761D01*
X55728571Y-29102380D01*
X55919047Y-29102380D01*
X56014285Y-29054761D01*
X56061904Y-29007142D01*
X56109523Y-28911904D01*
X56109523Y-28102380D01*
X56538095Y-28197619D02*
X56585714Y-28150000D01*
X56680952Y-28102380D01*
X56919047Y-28102380D01*
X57014285Y-28150000D01*
X57061904Y-28197619D01*
X57109523Y-28292857D01*
X57109523Y-28388095D01*
X57061904Y-28530952D01*
X56490476Y-29102380D01*
X57109523Y-29102380D01*
%TO.C,R6*%
X41233333Y-46302380D02*
X40900000Y-45826190D01*
X40661904Y-46302380D02*
X40661904Y-45302380D01*
X41042857Y-45302380D01*
X41138095Y-45350000D01*
X41185714Y-45397619D01*
X41233333Y-45492857D01*
X41233333Y-45635714D01*
X41185714Y-45730952D01*
X41138095Y-45778571D01*
X41042857Y-45826190D01*
X40661904Y-45826190D01*
X42090476Y-45302380D02*
X41900000Y-45302380D01*
X41804761Y-45350000D01*
X41757142Y-45397619D01*
X41661904Y-45540476D01*
X41614285Y-45730952D01*
X41614285Y-46111904D01*
X41661904Y-46207142D01*
X41709523Y-46254761D01*
X41804761Y-46302380D01*
X41995238Y-46302380D01*
X42090476Y-46254761D01*
X42138095Y-46207142D01*
X42185714Y-46111904D01*
X42185714Y-45873809D01*
X42138095Y-45778571D01*
X42090476Y-45730952D01*
X41995238Y-45683333D01*
X41804761Y-45683333D01*
X41709523Y-45730952D01*
X41661904Y-45778571D01*
X41614285Y-45873809D01*
%TO.C,R10*%
X50057142Y-40897380D02*
X49723809Y-40421190D01*
X49485714Y-40897380D02*
X49485714Y-39897380D01*
X49866666Y-39897380D01*
X49961904Y-39945000D01*
X50009523Y-39992619D01*
X50057142Y-40087857D01*
X50057142Y-40230714D01*
X50009523Y-40325952D01*
X49961904Y-40373571D01*
X49866666Y-40421190D01*
X49485714Y-40421190D01*
X51009523Y-40897380D02*
X50438095Y-40897380D01*
X50723809Y-40897380D02*
X50723809Y-39897380D01*
X50628571Y-40040238D01*
X50533333Y-40135476D01*
X50438095Y-40183095D01*
X51628571Y-39897380D02*
X51723809Y-39897380D01*
X51819047Y-39945000D01*
X51866666Y-39992619D01*
X51914285Y-40087857D01*
X51961904Y-40278333D01*
X51961904Y-40516428D01*
X51914285Y-40706904D01*
X51866666Y-40802142D01*
X51819047Y-40849761D01*
X51723809Y-40897380D01*
X51628571Y-40897380D01*
X51533333Y-40849761D01*
X51485714Y-40802142D01*
X51438095Y-40706904D01*
X51390476Y-40516428D01*
X51390476Y-40278333D01*
X51438095Y-40087857D01*
X51485714Y-39992619D01*
X51533333Y-39945000D01*
X51628571Y-39897380D01*
%TO.C,C12*%
X29357142Y-32857142D02*
X29309523Y-32904761D01*
X29166666Y-32952380D01*
X29071428Y-32952380D01*
X28928571Y-32904761D01*
X28833333Y-32809523D01*
X28785714Y-32714285D01*
X28738095Y-32523809D01*
X28738095Y-32380952D01*
X28785714Y-32190476D01*
X28833333Y-32095238D01*
X28928571Y-32000000D01*
X29071428Y-31952380D01*
X29166666Y-31952380D01*
X29309523Y-32000000D01*
X29357142Y-32047619D01*
X30309523Y-32952380D02*
X29738095Y-32952380D01*
X30023809Y-32952380D02*
X30023809Y-31952380D01*
X29928571Y-32095238D01*
X29833333Y-32190476D01*
X29738095Y-32238095D01*
X30690476Y-32047619D02*
X30738095Y-32000000D01*
X30833333Y-31952380D01*
X31071428Y-31952380D01*
X31166666Y-32000000D01*
X31214285Y-32047619D01*
X31261904Y-32142857D01*
X31261904Y-32238095D01*
X31214285Y-32380952D01*
X30642857Y-32952380D01*
X31261904Y-32952380D01*
%TO.C,U1*%
X44852380Y-25761904D02*
X45661904Y-25761904D01*
X45757142Y-25714285D01*
X45804761Y-25666666D01*
X45852380Y-25571428D01*
X45852380Y-25380952D01*
X45804761Y-25285714D01*
X45757142Y-25238095D01*
X45661904Y-25190476D01*
X44852380Y-25190476D01*
X45852380Y-24190476D02*
X45852380Y-24761904D01*
X45852380Y-24476190D02*
X44852380Y-24476190D01*
X44995238Y-24571428D01*
X45090476Y-24666666D01*
X45138095Y-24761904D01*
%TO.C,SW4*%
X26779761Y-48958333D02*
X26827380Y-48815476D01*
X26827380Y-48577380D01*
X26779761Y-48482142D01*
X26732142Y-48434523D01*
X26636904Y-48386904D01*
X26541666Y-48386904D01*
X26446428Y-48434523D01*
X26398809Y-48482142D01*
X26351190Y-48577380D01*
X26303571Y-48767857D01*
X26255952Y-48863095D01*
X26208333Y-48910714D01*
X26113095Y-48958333D01*
X26017857Y-48958333D01*
X25922619Y-48910714D01*
X25875000Y-48863095D01*
X25827380Y-48767857D01*
X25827380Y-48529761D01*
X25875000Y-48386904D01*
X25827380Y-48053571D02*
X26827380Y-47815476D01*
X26113095Y-47625000D01*
X26827380Y-47434523D01*
X25827380Y-47196428D01*
X26160714Y-46386904D02*
X26827380Y-46386904D01*
X25779761Y-46625000D02*
X26494047Y-46863095D01*
X26494047Y-46244047D01*
%TO.C,D1*%
X75011904Y-28452380D02*
X75011904Y-27452380D01*
X75250000Y-27452380D01*
X75392857Y-27500000D01*
X75488095Y-27595238D01*
X75535714Y-27690476D01*
X75583333Y-27880952D01*
X75583333Y-28023809D01*
X75535714Y-28214285D01*
X75488095Y-28309523D01*
X75392857Y-28404761D01*
X75250000Y-28452380D01*
X75011904Y-28452380D01*
X76535714Y-28452380D02*
X75964285Y-28452380D01*
X76250000Y-28452380D02*
X76250000Y-27452380D01*
X76154761Y-27595238D01*
X76059523Y-27690476D01*
X75964285Y-27738095D01*
%TO.C,C3*%
X56358333Y-36407142D02*
X56310714Y-36454761D01*
X56167857Y-36502380D01*
X56072619Y-36502380D01*
X55929761Y-36454761D01*
X55834523Y-36359523D01*
X55786904Y-36264285D01*
X55739285Y-36073809D01*
X55739285Y-35930952D01*
X55786904Y-35740476D01*
X55834523Y-35645238D01*
X55929761Y-35550000D01*
X56072619Y-35502380D01*
X56167857Y-35502380D01*
X56310714Y-35550000D01*
X56358333Y-35597619D01*
X56691666Y-35502380D02*
X57310714Y-35502380D01*
X56977380Y-35883333D01*
X57120238Y-35883333D01*
X57215476Y-35930952D01*
X57263095Y-35978571D01*
X57310714Y-36073809D01*
X57310714Y-36311904D01*
X57263095Y-36407142D01*
X57215476Y-36454761D01*
X57120238Y-36502380D01*
X56834523Y-36502380D01*
X56739285Y-36454761D01*
X56691666Y-36407142D01*
%TO.C,C20*%
X45332142Y-52007142D02*
X45284523Y-52054761D01*
X45141666Y-52102380D01*
X45046428Y-52102380D01*
X44903571Y-52054761D01*
X44808333Y-51959523D01*
X44760714Y-51864285D01*
X44713095Y-51673809D01*
X44713095Y-51530952D01*
X44760714Y-51340476D01*
X44808333Y-51245238D01*
X44903571Y-51150000D01*
X45046428Y-51102380D01*
X45141666Y-51102380D01*
X45284523Y-51150000D01*
X45332142Y-51197619D01*
X45713095Y-51197619D02*
X45760714Y-51150000D01*
X45855952Y-51102380D01*
X46094047Y-51102380D01*
X46189285Y-51150000D01*
X46236904Y-51197619D01*
X46284523Y-51292857D01*
X46284523Y-51388095D01*
X46236904Y-51530952D01*
X45665476Y-52102380D01*
X46284523Y-52102380D01*
X46903571Y-51102380D02*
X46998809Y-51102380D01*
X47094047Y-51150000D01*
X47141666Y-51197619D01*
X47189285Y-51292857D01*
X47236904Y-51483333D01*
X47236904Y-51721428D01*
X47189285Y-51911904D01*
X47141666Y-52007142D01*
X47094047Y-52054761D01*
X46998809Y-52102380D01*
X46903571Y-52102380D01*
X46808333Y-52054761D01*
X46760714Y-52007142D01*
X46713095Y-51911904D01*
X46665476Y-51721428D01*
X46665476Y-51483333D01*
X46713095Y-51292857D01*
X46760714Y-51197619D01*
X46808333Y-51150000D01*
X46903571Y-51102380D01*
%TO.C,C10*%
X45457142Y-33067857D02*
X45504761Y-33115476D01*
X45552380Y-33258333D01*
X45552380Y-33353571D01*
X45504761Y-33496428D01*
X45409523Y-33591666D01*
X45314285Y-33639285D01*
X45123809Y-33686904D01*
X44980952Y-33686904D01*
X44790476Y-33639285D01*
X44695238Y-33591666D01*
X44600000Y-33496428D01*
X44552380Y-33353571D01*
X44552380Y-33258333D01*
X44600000Y-33115476D01*
X44647619Y-33067857D01*
X45552380Y-32115476D02*
X45552380Y-32686904D01*
X45552380Y-32401190D02*
X44552380Y-32401190D01*
X44695238Y-32496428D01*
X44790476Y-32591666D01*
X44838095Y-32686904D01*
X44552380Y-31496428D02*
X44552380Y-31401190D01*
X44600000Y-31305952D01*
X44647619Y-31258333D01*
X44742857Y-31210714D01*
X44933333Y-31163095D01*
X45171428Y-31163095D01*
X45361904Y-31210714D01*
X45457142Y-31258333D01*
X45504761Y-31305952D01*
X45552380Y-31401190D01*
X45552380Y-31496428D01*
X45504761Y-31591666D01*
X45457142Y-31639285D01*
X45361904Y-31686904D01*
X45171428Y-31734523D01*
X44933333Y-31734523D01*
X44742857Y-31686904D01*
X44647619Y-31639285D01*
X44600000Y-31591666D01*
X44552380Y-31496428D01*
%TO.C,R8*%
X22583333Y-22132380D02*
X22250000Y-21656190D01*
X22011904Y-22132380D02*
X22011904Y-21132380D01*
X22392857Y-21132380D01*
X22488095Y-21180000D01*
X22535714Y-21227619D01*
X22583333Y-21322857D01*
X22583333Y-21465714D01*
X22535714Y-21560952D01*
X22488095Y-21608571D01*
X22392857Y-21656190D01*
X22011904Y-21656190D01*
X23154761Y-21560952D02*
X23059523Y-21513333D01*
X23011904Y-21465714D01*
X22964285Y-21370476D01*
X22964285Y-21322857D01*
X23011904Y-21227619D01*
X23059523Y-21180000D01*
X23154761Y-21132380D01*
X23345238Y-21132380D01*
X23440476Y-21180000D01*
X23488095Y-21227619D01*
X23535714Y-21322857D01*
X23535714Y-21370476D01*
X23488095Y-21465714D01*
X23440476Y-21513333D01*
X23345238Y-21560952D01*
X23154761Y-21560952D01*
X23059523Y-21608571D01*
X23011904Y-21656190D01*
X22964285Y-21751428D01*
X22964285Y-21941904D01*
X23011904Y-22037142D01*
X23059523Y-22084761D01*
X23154761Y-22132380D01*
X23345238Y-22132380D01*
X23440476Y-22084761D01*
X23488095Y-22037142D01*
X23535714Y-21941904D01*
X23535714Y-21751428D01*
X23488095Y-21656190D01*
X23440476Y-21608571D01*
X23345238Y-21560952D01*
%TO.C,C5*%
X29938333Y-10237142D02*
X29890714Y-10284761D01*
X29747857Y-10332380D01*
X29652619Y-10332380D01*
X29509761Y-10284761D01*
X29414523Y-10189523D01*
X29366904Y-10094285D01*
X29319285Y-9903809D01*
X29319285Y-9760952D01*
X29366904Y-9570476D01*
X29414523Y-9475238D01*
X29509761Y-9380000D01*
X29652619Y-9332380D01*
X29747857Y-9332380D01*
X29890714Y-9380000D01*
X29938333Y-9427619D01*
X30843095Y-9332380D02*
X30366904Y-9332380D01*
X30319285Y-9808571D01*
X30366904Y-9760952D01*
X30462142Y-9713333D01*
X30700238Y-9713333D01*
X30795476Y-9760952D01*
X30843095Y-9808571D01*
X30890714Y-9903809D01*
X30890714Y-10141904D01*
X30843095Y-10237142D01*
X30795476Y-10284761D01*
X30700238Y-10332380D01*
X30462142Y-10332380D01*
X30366904Y-10284761D01*
X30319285Y-10237142D01*
%TO.C,Y2*%
X36693809Y-11236190D02*
X36693809Y-11712380D01*
X36360476Y-10712380D02*
X36693809Y-11236190D01*
X37027142Y-10712380D01*
X37312857Y-10807619D02*
X37360476Y-10760000D01*
X37455714Y-10712380D01*
X37693809Y-10712380D01*
X37789047Y-10760000D01*
X37836666Y-10807619D01*
X37884285Y-10902857D01*
X37884285Y-10998095D01*
X37836666Y-11140952D01*
X37265238Y-11712380D01*
X37884285Y-11712380D01*
%TO.C,C8*%
X31232142Y-14791666D02*
X31279761Y-14839285D01*
X31327380Y-14982142D01*
X31327380Y-15077380D01*
X31279761Y-15220238D01*
X31184523Y-15315476D01*
X31089285Y-15363095D01*
X30898809Y-15410714D01*
X30755952Y-15410714D01*
X30565476Y-15363095D01*
X30470238Y-15315476D01*
X30375000Y-15220238D01*
X30327380Y-15077380D01*
X30327380Y-14982142D01*
X30375000Y-14839285D01*
X30422619Y-14791666D01*
X30755952Y-14220238D02*
X30708333Y-14315476D01*
X30660714Y-14363095D01*
X30565476Y-14410714D01*
X30517857Y-14410714D01*
X30422619Y-14363095D01*
X30375000Y-14315476D01*
X30327380Y-14220238D01*
X30327380Y-14029761D01*
X30375000Y-13934523D01*
X30422619Y-13886904D01*
X30517857Y-13839285D01*
X30565476Y-13839285D01*
X30660714Y-13886904D01*
X30708333Y-13934523D01*
X30755952Y-14029761D01*
X30755952Y-14220238D01*
X30803571Y-14315476D01*
X30851190Y-14363095D01*
X30946428Y-14410714D01*
X31136904Y-14410714D01*
X31232142Y-14363095D01*
X31279761Y-14315476D01*
X31327380Y-14220238D01*
X31327380Y-14029761D01*
X31279761Y-13934523D01*
X31232142Y-13886904D01*
X31136904Y-13839285D01*
X30946428Y-13839285D01*
X30851190Y-13886904D01*
X30803571Y-13934523D01*
X30755952Y-14029761D01*
%TO.C,H1*%
X7158095Y-1252380D02*
X7158095Y-252380D01*
X7158095Y-728571D02*
X7729523Y-728571D01*
X7729523Y-1252380D02*
X7729523Y-252380D01*
X8729523Y-1252380D02*
X8158095Y-1252380D01*
X8443809Y-1252380D02*
X8443809Y-252380D01*
X8348571Y-395238D01*
X8253333Y-490476D01*
X8158095Y-538095D01*
%TO.C,R5*%
X52812380Y-43956666D02*
X52336190Y-44290000D01*
X52812380Y-44528095D02*
X51812380Y-44528095D01*
X51812380Y-44147142D01*
X51860000Y-44051904D01*
X51907619Y-44004285D01*
X52002857Y-43956666D01*
X52145714Y-43956666D01*
X52240952Y-44004285D01*
X52288571Y-44051904D01*
X52336190Y-44147142D01*
X52336190Y-44528095D01*
X51812380Y-43051904D02*
X51812380Y-43528095D01*
X52288571Y-43575714D01*
X52240952Y-43528095D01*
X52193333Y-43432857D01*
X52193333Y-43194761D01*
X52240952Y-43099523D01*
X52288571Y-43051904D01*
X52383809Y-43004285D01*
X52621904Y-43004285D01*
X52717142Y-43051904D01*
X52764761Y-43099523D01*
X52812380Y-43194761D01*
X52812380Y-43432857D01*
X52764761Y-43528095D01*
X52717142Y-43575714D01*
%TO.C,R13*%
X55272380Y-52592857D02*
X54796190Y-52926190D01*
X55272380Y-53164285D02*
X54272380Y-53164285D01*
X54272380Y-52783333D01*
X54320000Y-52688095D01*
X54367619Y-52640476D01*
X54462857Y-52592857D01*
X54605714Y-52592857D01*
X54700952Y-52640476D01*
X54748571Y-52688095D01*
X54796190Y-52783333D01*
X54796190Y-53164285D01*
X55272380Y-51640476D02*
X55272380Y-52211904D01*
X55272380Y-51926190D02*
X54272380Y-51926190D01*
X54415238Y-52021428D01*
X54510476Y-52116666D01*
X54558095Y-52211904D01*
X54272380Y-51307142D02*
X54272380Y-50688095D01*
X54653333Y-51021428D01*
X54653333Y-50878571D01*
X54700952Y-50783333D01*
X54748571Y-50735714D01*
X54843809Y-50688095D01*
X55081904Y-50688095D01*
X55177142Y-50735714D01*
X55224761Y-50783333D01*
X55272380Y-50878571D01*
X55272380Y-51164285D01*
X55224761Y-51259523D01*
X55177142Y-51307142D01*
%TO.C,U5*%
X46902380Y-47861904D02*
X47711904Y-47861904D01*
X47807142Y-47814285D01*
X47854761Y-47766666D01*
X47902380Y-47671428D01*
X47902380Y-47480952D01*
X47854761Y-47385714D01*
X47807142Y-47338095D01*
X47711904Y-47290476D01*
X46902380Y-47290476D01*
X46902380Y-46338095D02*
X46902380Y-46814285D01*
X47378571Y-46861904D01*
X47330952Y-46814285D01*
X47283333Y-46719047D01*
X47283333Y-46480952D01*
X47330952Y-46385714D01*
X47378571Y-46338095D01*
X47473809Y-46290476D01*
X47711904Y-46290476D01*
X47807142Y-46338095D01*
X47854761Y-46385714D01*
X47902380Y-46480952D01*
X47902380Y-46719047D01*
X47854761Y-46814285D01*
X47807142Y-46861904D01*
%TO.C,U3*%
X62288095Y-28152380D02*
X62288095Y-28961904D01*
X62335714Y-29057142D01*
X62383333Y-29104761D01*
X62478571Y-29152380D01*
X62669047Y-29152380D01*
X62764285Y-29104761D01*
X62811904Y-29057142D01*
X62859523Y-28961904D01*
X62859523Y-28152380D01*
X63240476Y-28152380D02*
X63859523Y-28152380D01*
X63526190Y-28533333D01*
X63669047Y-28533333D01*
X63764285Y-28580952D01*
X63811904Y-28628571D01*
X63859523Y-28723809D01*
X63859523Y-28961904D01*
X63811904Y-29057142D01*
X63764285Y-29104761D01*
X63669047Y-29152380D01*
X63383333Y-29152380D01*
X63288095Y-29104761D01*
X63240476Y-29057142D01*
%TO.C,C2*%
X59583333Y-29007142D02*
X59535714Y-29054761D01*
X59392857Y-29102380D01*
X59297619Y-29102380D01*
X59154761Y-29054761D01*
X59059523Y-28959523D01*
X59011904Y-28864285D01*
X58964285Y-28673809D01*
X58964285Y-28530952D01*
X59011904Y-28340476D01*
X59059523Y-28245238D01*
X59154761Y-28150000D01*
X59297619Y-28102380D01*
X59392857Y-28102380D01*
X59535714Y-28150000D01*
X59583333Y-28197619D01*
X59964285Y-28197619D02*
X60011904Y-28150000D01*
X60107142Y-28102380D01*
X60345238Y-28102380D01*
X60440476Y-28150000D01*
X60488095Y-28197619D01*
X60535714Y-28292857D01*
X60535714Y-28388095D01*
X60488095Y-28530952D01*
X59916666Y-29102380D01*
X60535714Y-29102380D01*
%TO.C,C18*%
X32492142Y-13317142D02*
X32444523Y-13364761D01*
X32301666Y-13412380D01*
X32206428Y-13412380D01*
X32063571Y-13364761D01*
X31968333Y-13269523D01*
X31920714Y-13174285D01*
X31873095Y-12983809D01*
X31873095Y-12840952D01*
X31920714Y-12650476D01*
X31968333Y-12555238D01*
X32063571Y-12460000D01*
X32206428Y-12412380D01*
X32301666Y-12412380D01*
X32444523Y-12460000D01*
X32492142Y-12507619D01*
X33444523Y-13412380D02*
X32873095Y-13412380D01*
X33158809Y-13412380D02*
X33158809Y-12412380D01*
X33063571Y-12555238D01*
X32968333Y-12650476D01*
X32873095Y-12698095D01*
X34015952Y-12840952D02*
X33920714Y-12793333D01*
X33873095Y-12745714D01*
X33825476Y-12650476D01*
X33825476Y-12602857D01*
X33873095Y-12507619D01*
X33920714Y-12460000D01*
X34015952Y-12412380D01*
X34206428Y-12412380D01*
X34301666Y-12460000D01*
X34349285Y-12507619D01*
X34396904Y-12602857D01*
X34396904Y-12650476D01*
X34349285Y-12745714D01*
X34301666Y-12793333D01*
X34206428Y-12840952D01*
X34015952Y-12840952D01*
X33920714Y-12888571D01*
X33873095Y-12936190D01*
X33825476Y-13031428D01*
X33825476Y-13221904D01*
X33873095Y-13317142D01*
X33920714Y-13364761D01*
X34015952Y-13412380D01*
X34206428Y-13412380D01*
X34301666Y-13364761D01*
X34349285Y-13317142D01*
X34396904Y-13221904D01*
X34396904Y-13031428D01*
X34349285Y-12936190D01*
X34301666Y-12888571D01*
X34206428Y-12840952D01*
%TO.C,J1*%
X73466666Y-12457380D02*
X73466666Y-13171666D01*
X73419047Y-13314523D01*
X73323809Y-13409761D01*
X73180952Y-13457380D01*
X73085714Y-13457380D01*
X74466666Y-13457380D02*
X73895238Y-13457380D01*
X74180952Y-13457380D02*
X74180952Y-12457380D01*
X74085714Y-12600238D01*
X73990476Y-12695476D01*
X73895238Y-12743095D01*
%TO.C,H4*%
X74418095Y-37972380D02*
X74418095Y-36972380D01*
X74418095Y-37448571D02*
X74989523Y-37448571D01*
X74989523Y-37972380D02*
X74989523Y-36972380D01*
X75894285Y-37305714D02*
X75894285Y-37972380D01*
X75656190Y-36924761D02*
X75418095Y-37639047D01*
X76037142Y-37639047D01*
%TO.C,R9*%
X39583333Y-36327380D02*
X39250000Y-35851190D01*
X39011904Y-36327380D02*
X39011904Y-35327380D01*
X39392857Y-35327380D01*
X39488095Y-35375000D01*
X39535714Y-35422619D01*
X39583333Y-35517857D01*
X39583333Y-35660714D01*
X39535714Y-35755952D01*
X39488095Y-35803571D01*
X39392857Y-35851190D01*
X39011904Y-35851190D01*
X40059523Y-36327380D02*
X40250000Y-36327380D01*
X40345238Y-36279761D01*
X40392857Y-36232142D01*
X40488095Y-36089285D01*
X40535714Y-35898809D01*
X40535714Y-35517857D01*
X40488095Y-35422619D01*
X40440476Y-35375000D01*
X40345238Y-35327380D01*
X40154761Y-35327380D01*
X40059523Y-35375000D01*
X40011904Y-35422619D01*
X39964285Y-35517857D01*
X39964285Y-35755952D01*
X40011904Y-35851190D01*
X40059523Y-35898809D01*
X40154761Y-35946428D01*
X40345238Y-35946428D01*
X40440476Y-35898809D01*
X40488095Y-35851190D01*
X40535714Y-35755952D01*
%TO.C,D3*%
X34136904Y-36202380D02*
X34136904Y-35202380D01*
X34375000Y-35202380D01*
X34517857Y-35250000D01*
X34613095Y-35345238D01*
X34660714Y-35440476D01*
X34708333Y-35630952D01*
X34708333Y-35773809D01*
X34660714Y-35964285D01*
X34613095Y-36059523D01*
X34517857Y-36154761D01*
X34375000Y-36202380D01*
X34136904Y-36202380D01*
X35041666Y-35202380D02*
X35660714Y-35202380D01*
X35327380Y-35583333D01*
X35470238Y-35583333D01*
X35565476Y-35630952D01*
X35613095Y-35678571D01*
X35660714Y-35773809D01*
X35660714Y-36011904D01*
X35613095Y-36107142D01*
X35565476Y-36154761D01*
X35470238Y-36202380D01*
X35184523Y-36202380D01*
X35089285Y-36154761D01*
X35041666Y-36107142D01*
%TO.C,FB1*%
X18706666Y-31303571D02*
X18373333Y-31303571D01*
X18373333Y-31827380D02*
X18373333Y-30827380D01*
X18849523Y-30827380D01*
X19563809Y-31303571D02*
X19706666Y-31351190D01*
X19754285Y-31398809D01*
X19801904Y-31494047D01*
X19801904Y-31636904D01*
X19754285Y-31732142D01*
X19706666Y-31779761D01*
X19611428Y-31827380D01*
X19230476Y-31827380D01*
X19230476Y-30827380D01*
X19563809Y-30827380D01*
X19659047Y-30875000D01*
X19706666Y-30922619D01*
X19754285Y-31017857D01*
X19754285Y-31113095D01*
X19706666Y-31208333D01*
X19659047Y-31255952D01*
X19563809Y-31303571D01*
X19230476Y-31303571D01*
X20754285Y-31827380D02*
X20182857Y-31827380D01*
X20468571Y-31827380D02*
X20468571Y-30827380D01*
X20373333Y-30970238D01*
X20278095Y-31065476D01*
X20182857Y-31113095D01*
%TO.C,Y1*%
X48103809Y-13256190D02*
X48103809Y-13732380D01*
X47770476Y-12732380D02*
X48103809Y-13256190D01*
X48437142Y-12732380D01*
X49294285Y-13732380D02*
X48722857Y-13732380D01*
X49008571Y-13732380D02*
X49008571Y-12732380D01*
X48913333Y-12875238D01*
X48818095Y-12970476D01*
X48722857Y-13018095D01*
%TO.C,J5*%
X11432380Y-5333333D02*
X12146666Y-5333333D01*
X12289523Y-5380952D01*
X12384761Y-5476190D01*
X12432380Y-5619047D01*
X12432380Y-5714285D01*
X11432380Y-4380952D02*
X11432380Y-4857142D01*
X11908571Y-4904761D01*
X11860952Y-4857142D01*
X11813333Y-4761904D01*
X11813333Y-4523809D01*
X11860952Y-4428571D01*
X11908571Y-4380952D01*
X12003809Y-4333333D01*
X12241904Y-4333333D01*
X12337142Y-4380952D01*
X12384761Y-4428571D01*
X12432380Y-4523809D01*
X12432380Y-4761904D01*
X12384761Y-4857142D01*
X12337142Y-4904761D01*
%TO.C,Q2*%
X74279761Y-36297619D02*
X74184523Y-36250000D01*
X74089285Y-36154761D01*
X73946428Y-36011904D01*
X73851190Y-35964285D01*
X73755952Y-35964285D01*
X73803571Y-36202380D02*
X73708333Y-36154761D01*
X73613095Y-36059523D01*
X73565476Y-35869047D01*
X73565476Y-35535714D01*
X73613095Y-35345238D01*
X73708333Y-35250000D01*
X73803571Y-35202380D01*
X73994047Y-35202380D01*
X74089285Y-35250000D01*
X74184523Y-35345238D01*
X74232142Y-35535714D01*
X74232142Y-35869047D01*
X74184523Y-36059523D01*
X74089285Y-36154761D01*
X73994047Y-36202380D01*
X73803571Y-36202380D01*
X74613095Y-35297619D02*
X74660714Y-35250000D01*
X74755952Y-35202380D01*
X74994047Y-35202380D01*
X75089285Y-35250000D01*
X75136904Y-35297619D01*
X75184523Y-35392857D01*
X75184523Y-35488095D01*
X75136904Y-35630952D01*
X74565476Y-36202380D01*
X75184523Y-36202380D01*
%TO.C,XT30PW1*%
X54035714Y-40077380D02*
X54702380Y-41077380D01*
X54702380Y-40077380D02*
X54035714Y-41077380D01*
X54940476Y-40077380D02*
X55511904Y-40077380D01*
X55226190Y-41077380D02*
X55226190Y-40077380D01*
X55750000Y-40077380D02*
X56369047Y-40077380D01*
X56035714Y-40458333D01*
X56178571Y-40458333D01*
X56273809Y-40505952D01*
X56321428Y-40553571D01*
X56369047Y-40648809D01*
X56369047Y-40886904D01*
X56321428Y-40982142D01*
X56273809Y-41029761D01*
X56178571Y-41077380D01*
X55892857Y-41077380D01*
X55797619Y-41029761D01*
X55750000Y-40982142D01*
X56988095Y-40077380D02*
X57083333Y-40077380D01*
X57178571Y-40125000D01*
X57226190Y-40172619D01*
X57273809Y-40267857D01*
X57321428Y-40458333D01*
X57321428Y-40696428D01*
X57273809Y-40886904D01*
X57226190Y-40982142D01*
X57178571Y-41029761D01*
X57083333Y-41077380D01*
X56988095Y-41077380D01*
X56892857Y-41029761D01*
X56845238Y-40982142D01*
X56797619Y-40886904D01*
X56750000Y-40696428D01*
X56750000Y-40458333D01*
X56797619Y-40267857D01*
X56845238Y-40172619D01*
X56892857Y-40125000D01*
X56988095Y-40077380D01*
X57750000Y-41077380D02*
X57750000Y-40077380D01*
X58130952Y-40077380D01*
X58226190Y-40125000D01*
X58273809Y-40172619D01*
X58321428Y-40267857D01*
X58321428Y-40410714D01*
X58273809Y-40505952D01*
X58226190Y-40553571D01*
X58130952Y-40601190D01*
X57750000Y-40601190D01*
X58654761Y-40077380D02*
X58892857Y-41077380D01*
X59083333Y-40363095D01*
X59273809Y-41077380D01*
X59511904Y-40077380D01*
X60416666Y-41077380D02*
X59845238Y-41077380D01*
X60130952Y-41077380D02*
X60130952Y-40077380D01*
X60035714Y-40220238D01*
X59940476Y-40315476D01*
X59845238Y-40363095D01*
X66428571Y-55107142D02*
X67571428Y-55107142D01*
X55428571Y-55107142D02*
X56571428Y-55107142D01*
X56000000Y-55678571D02*
X56000000Y-54535714D01*
%TO.C,J2*%
X39716666Y-58102380D02*
X39716666Y-58816666D01*
X39669047Y-58959523D01*
X39573809Y-59054761D01*
X39430952Y-59102380D01*
X39335714Y-59102380D01*
X40145238Y-58197619D02*
X40192857Y-58150000D01*
X40288095Y-58102380D01*
X40526190Y-58102380D01*
X40621428Y-58150000D01*
X40669047Y-58197619D01*
X40716666Y-58292857D01*
X40716666Y-58388095D01*
X40669047Y-58530952D01*
X40097619Y-59102380D01*
X40716666Y-59102380D01*
%TO.C,SW1*%
X26779761Y-56513333D02*
X26827380Y-56370476D01*
X26827380Y-56132380D01*
X26779761Y-56037142D01*
X26732142Y-55989523D01*
X26636904Y-55941904D01*
X26541666Y-55941904D01*
X26446428Y-55989523D01*
X26398809Y-56037142D01*
X26351190Y-56132380D01*
X26303571Y-56322857D01*
X26255952Y-56418095D01*
X26208333Y-56465714D01*
X26113095Y-56513333D01*
X26017857Y-56513333D01*
X25922619Y-56465714D01*
X25875000Y-56418095D01*
X25827380Y-56322857D01*
X25827380Y-56084761D01*
X25875000Y-55941904D01*
X25827380Y-55608571D02*
X26827380Y-55370476D01*
X26113095Y-55180000D01*
X26827380Y-54989523D01*
X25827380Y-54751428D01*
X26827380Y-53846666D02*
X26827380Y-54418095D01*
X26827380Y-54132380D02*
X25827380Y-54132380D01*
X25970238Y-54227619D01*
X26065476Y-54322857D01*
X26113095Y-54418095D01*
%TO.C,C1*%
X52583333Y-29157142D02*
X52535714Y-29204761D01*
X52392857Y-29252380D01*
X52297619Y-29252380D01*
X52154761Y-29204761D01*
X52059523Y-29109523D01*
X52011904Y-29014285D01*
X51964285Y-28823809D01*
X51964285Y-28680952D01*
X52011904Y-28490476D01*
X52059523Y-28395238D01*
X52154761Y-28300000D01*
X52297619Y-28252380D01*
X52392857Y-28252380D01*
X52535714Y-28300000D01*
X52583333Y-28347619D01*
X53535714Y-29252380D02*
X52964285Y-29252380D01*
X53250000Y-29252380D02*
X53250000Y-28252380D01*
X53154761Y-28395238D01*
X53059523Y-28490476D01*
X52964285Y-28538095D01*
%TO.C,C7*%
X27233333Y-34957142D02*
X27185714Y-35004761D01*
X27042857Y-35052380D01*
X26947619Y-35052380D01*
X26804761Y-35004761D01*
X26709523Y-34909523D01*
X26661904Y-34814285D01*
X26614285Y-34623809D01*
X26614285Y-34480952D01*
X26661904Y-34290476D01*
X26709523Y-34195238D01*
X26804761Y-34100000D01*
X26947619Y-34052380D01*
X27042857Y-34052380D01*
X27185714Y-34100000D01*
X27233333Y-34147619D01*
X27566666Y-34052380D02*
X28233333Y-34052380D01*
X27804761Y-35052380D01*
%TO.C,R3*%
X28463333Y-37532380D02*
X28130000Y-37056190D01*
X27891904Y-37532380D02*
X27891904Y-36532380D01*
X28272857Y-36532380D01*
X28368095Y-36580000D01*
X28415714Y-36627619D01*
X28463333Y-36722857D01*
X28463333Y-36865714D01*
X28415714Y-36960952D01*
X28368095Y-37008571D01*
X28272857Y-37056190D01*
X27891904Y-37056190D01*
X28796666Y-36532380D02*
X29415714Y-36532380D01*
X29082380Y-36913333D01*
X29225238Y-36913333D01*
X29320476Y-36960952D01*
X29368095Y-37008571D01*
X29415714Y-37103809D01*
X29415714Y-37341904D01*
X29368095Y-37437142D01*
X29320476Y-37484761D01*
X29225238Y-37532380D01*
X28939523Y-37532380D01*
X28844285Y-37484761D01*
X28796666Y-37437142D01*
%TO.C,R1*%
X70208333Y-28452380D02*
X69875000Y-27976190D01*
X69636904Y-28452380D02*
X69636904Y-27452380D01*
X70017857Y-27452380D01*
X70113095Y-27500000D01*
X70160714Y-27547619D01*
X70208333Y-27642857D01*
X70208333Y-27785714D01*
X70160714Y-27880952D01*
X70113095Y-27928571D01*
X70017857Y-27976190D01*
X69636904Y-27976190D01*
X71160714Y-28452380D02*
X70589285Y-28452380D01*
X70875000Y-28452380D02*
X70875000Y-27452380D01*
X70779761Y-27595238D01*
X70684523Y-27690476D01*
X70589285Y-27738095D01*
%TO.C,SW2*%
X35904761Y-52208333D02*
X35952380Y-52065476D01*
X35952380Y-51827380D01*
X35904761Y-51732142D01*
X35857142Y-51684523D01*
X35761904Y-51636904D01*
X35666666Y-51636904D01*
X35571428Y-51684523D01*
X35523809Y-51732142D01*
X35476190Y-51827380D01*
X35428571Y-52017857D01*
X35380952Y-52113095D01*
X35333333Y-52160714D01*
X35238095Y-52208333D01*
X35142857Y-52208333D01*
X35047619Y-52160714D01*
X35000000Y-52113095D01*
X34952380Y-52017857D01*
X34952380Y-51779761D01*
X35000000Y-51636904D01*
X34952380Y-51303571D02*
X35952380Y-51065476D01*
X35238095Y-50875000D01*
X35952380Y-50684523D01*
X34952380Y-50446428D01*
X35047619Y-50113095D02*
X35000000Y-50065476D01*
X34952380Y-49970238D01*
X34952380Y-49732142D01*
X35000000Y-49636904D01*
X35047619Y-49589285D01*
X35142857Y-49541666D01*
X35238095Y-49541666D01*
X35380952Y-49589285D01*
X35952380Y-50160714D01*
X35952380Y-49541666D01*
%TO.C,R12*%
X67107142Y-56952380D02*
X66773809Y-56476190D01*
X66535714Y-56952380D02*
X66535714Y-55952380D01*
X66916666Y-55952380D01*
X67011904Y-56000000D01*
X67059523Y-56047619D01*
X67107142Y-56142857D01*
X67107142Y-56285714D01*
X67059523Y-56380952D01*
X67011904Y-56428571D01*
X66916666Y-56476190D01*
X66535714Y-56476190D01*
X68059523Y-56952380D02*
X67488095Y-56952380D01*
X67773809Y-56952380D02*
X67773809Y-55952380D01*
X67678571Y-56095238D01*
X67583333Y-56190476D01*
X67488095Y-56238095D01*
X68440476Y-56047619D02*
X68488095Y-56000000D01*
X68583333Y-55952380D01*
X68821428Y-55952380D01*
X68916666Y-56000000D01*
X68964285Y-56047619D01*
X69011904Y-56142857D01*
X69011904Y-56238095D01*
X68964285Y-56380952D01*
X68392857Y-56952380D01*
X69011904Y-56952380D01*
%TO.C,C19*%
X52307142Y-59657142D02*
X52259523Y-59704761D01*
X52116666Y-59752380D01*
X52021428Y-59752380D01*
X51878571Y-59704761D01*
X51783333Y-59609523D01*
X51735714Y-59514285D01*
X51688095Y-59323809D01*
X51688095Y-59180952D01*
X51735714Y-58990476D01*
X51783333Y-58895238D01*
X51878571Y-58800000D01*
X52021428Y-58752380D01*
X52116666Y-58752380D01*
X52259523Y-58800000D01*
X52307142Y-58847619D01*
X53259523Y-59752380D02*
X52688095Y-59752380D01*
X52973809Y-59752380D02*
X52973809Y-58752380D01*
X52878571Y-58895238D01*
X52783333Y-58990476D01*
X52688095Y-59038095D01*
X53735714Y-59752380D02*
X53926190Y-59752380D01*
X54021428Y-59704761D01*
X54069047Y-59657142D01*
X54164285Y-59514285D01*
X54211904Y-59323809D01*
X54211904Y-58942857D01*
X54164285Y-58847619D01*
X54116666Y-58800000D01*
X54021428Y-58752380D01*
X53830952Y-58752380D01*
X53735714Y-58800000D01*
X53688095Y-58847619D01*
X53640476Y-58942857D01*
X53640476Y-59180952D01*
X53688095Y-59276190D01*
X53735714Y-59323809D01*
X53830952Y-59371428D01*
X54021428Y-59371428D01*
X54116666Y-59323809D01*
X54164285Y-59276190D01*
X54211904Y-59180952D01*
%TO.C,H3*%
X7158095Y-37972380D02*
X7158095Y-36972380D01*
X7158095Y-37448571D02*
X7729523Y-37448571D01*
X7729523Y-37972380D02*
X7729523Y-36972380D01*
X8110476Y-36972380D02*
X8729523Y-36972380D01*
X8396190Y-37353333D01*
X8539047Y-37353333D01*
X8634285Y-37400952D01*
X8681904Y-37448571D01*
X8729523Y-37543809D01*
X8729523Y-37781904D01*
X8681904Y-37877142D01*
X8634285Y-37924761D01*
X8539047Y-37972380D01*
X8253333Y-37972380D01*
X8158095Y-37924761D01*
X8110476Y-37877142D01*
%TO.C,SW3*%
X69779761Y-52333333D02*
X69827380Y-52190476D01*
X69827380Y-51952380D01*
X69779761Y-51857142D01*
X69732142Y-51809523D01*
X69636904Y-51761904D01*
X69541666Y-51761904D01*
X69446428Y-51809523D01*
X69398809Y-51857142D01*
X69351190Y-51952380D01*
X69303571Y-52142857D01*
X69255952Y-52238095D01*
X69208333Y-52285714D01*
X69113095Y-52333333D01*
X69017857Y-52333333D01*
X68922619Y-52285714D01*
X68875000Y-52238095D01*
X68827380Y-52142857D01*
X68827380Y-51904761D01*
X68875000Y-51761904D01*
X68827380Y-51428571D02*
X69827380Y-51190476D01*
X69113095Y-51000000D01*
X69827380Y-50809523D01*
X68827380Y-50571428D01*
X68827380Y-50285714D02*
X68827380Y-49666666D01*
X69208333Y-50000000D01*
X69208333Y-49857142D01*
X69255952Y-49761904D01*
X69303571Y-49714285D01*
X69398809Y-49666666D01*
X69636904Y-49666666D01*
X69732142Y-49714285D01*
X69779761Y-49761904D01*
X69827380Y-49857142D01*
X69827380Y-50142857D01*
X69779761Y-50238095D01*
X69732142Y-50285714D01*
%TO.C,J3*%
X29222380Y-5363333D02*
X29936666Y-5363333D01*
X30079523Y-5410952D01*
X30174761Y-5506190D01*
X30222380Y-5649047D01*
X30222380Y-5744285D01*
X29222380Y-4982380D02*
X29222380Y-4363333D01*
X29603333Y-4696666D01*
X29603333Y-4553809D01*
X29650952Y-4458571D01*
X29698571Y-4410952D01*
X29793809Y-4363333D01*
X30031904Y-4363333D01*
X30127142Y-4410952D01*
X30174761Y-4458571D01*
X30222380Y-4553809D01*
X30222380Y-4839523D01*
X30174761Y-4934761D01*
X30127142Y-4982380D01*
%TO.C,C17*%
X39247142Y-10427142D02*
X39199523Y-10474761D01*
X39056666Y-10522380D01*
X38961428Y-10522380D01*
X38818571Y-10474761D01*
X38723333Y-10379523D01*
X38675714Y-10284285D01*
X38628095Y-10093809D01*
X38628095Y-9950952D01*
X38675714Y-9760476D01*
X38723333Y-9665238D01*
X38818571Y-9570000D01*
X38961428Y-9522380D01*
X39056666Y-9522380D01*
X39199523Y-9570000D01*
X39247142Y-9617619D01*
X40199523Y-10522380D02*
X39628095Y-10522380D01*
X39913809Y-10522380D02*
X39913809Y-9522380D01*
X39818571Y-9665238D01*
X39723333Y-9760476D01*
X39628095Y-9808095D01*
X40532857Y-9522380D02*
X41199523Y-9522380D01*
X40770952Y-10522380D01*
%TO.C,R4*%
X26233333Y-44352380D02*
X25900000Y-43876190D01*
X25661904Y-44352380D02*
X25661904Y-43352380D01*
X26042857Y-43352380D01*
X26138095Y-43400000D01*
X26185714Y-43447619D01*
X26233333Y-43542857D01*
X26233333Y-43685714D01*
X26185714Y-43780952D01*
X26138095Y-43828571D01*
X26042857Y-43876190D01*
X25661904Y-43876190D01*
X27090476Y-43685714D02*
X27090476Y-44352380D01*
X26852380Y-43304761D02*
X26614285Y-44019047D01*
X27233333Y-44019047D01*
%TO.C,H2*%
X74418095Y-1252380D02*
X74418095Y-252380D01*
X74418095Y-728571D02*
X74989523Y-728571D01*
X74989523Y-1252380D02*
X74989523Y-252380D01*
X75418095Y-347619D02*
X75465714Y-300000D01*
X75560952Y-252380D01*
X75799047Y-252380D01*
X75894285Y-300000D01*
X75941904Y-347619D01*
X75989523Y-442857D01*
X75989523Y-538095D01*
X75941904Y-680952D01*
X75370476Y-1252380D01*
X75989523Y-1252380D01*
%TO.C,R11*%
X66522380Y-39217857D02*
X66046190Y-39551190D01*
X66522380Y-39789285D02*
X65522380Y-39789285D01*
X65522380Y-39408333D01*
X65570000Y-39313095D01*
X65617619Y-39265476D01*
X65712857Y-39217857D01*
X65855714Y-39217857D01*
X65950952Y-39265476D01*
X65998571Y-39313095D01*
X66046190Y-39408333D01*
X66046190Y-39789285D01*
X66522380Y-38265476D02*
X66522380Y-38836904D01*
X66522380Y-38551190D02*
X65522380Y-38551190D01*
X65665238Y-38646428D01*
X65760476Y-38741666D01*
X65808095Y-38836904D01*
X66522380Y-37313095D02*
X66522380Y-37884523D01*
X66522380Y-37598809D02*
X65522380Y-37598809D01*
X65665238Y-37694047D01*
X65760476Y-37789285D01*
X65808095Y-37884523D01*
%TO.C,D5*%
X70511904Y-59702380D02*
X70511904Y-58702380D01*
X70750000Y-58702380D01*
X70892857Y-58750000D01*
X70988095Y-58845238D01*
X71035714Y-58940476D01*
X71083333Y-59130952D01*
X71083333Y-59273809D01*
X71035714Y-59464285D01*
X70988095Y-59559523D01*
X70892857Y-59654761D01*
X70750000Y-59702380D01*
X70511904Y-59702380D01*
X71988095Y-58702380D02*
X71511904Y-58702380D01*
X71464285Y-59178571D01*
X71511904Y-59130952D01*
X71607142Y-59083333D01*
X71845238Y-59083333D01*
X71940476Y-59130952D01*
X71988095Y-59178571D01*
X72035714Y-59273809D01*
X72035714Y-59511904D01*
X71988095Y-59607142D01*
X71940476Y-59654761D01*
X71845238Y-59702380D01*
X71607142Y-59702380D01*
X71511904Y-59654761D01*
X71464285Y-59607142D01*
D11*
%TO.C,U4*%
X66030000Y-12396000D02*
X66030000Y-12396000D01*
X66030000Y-23064000D02*
X66030000Y-12396000D01*
X66030000Y-12396000D02*
X71364000Y-12396000D01*
X66284000Y-15190000D02*
X66284000Y-15190000D01*
X68570000Y-12904000D02*
X68570000Y-15190000D01*
X66030000Y-23064000D02*
X66030000Y-23064000D01*
X71364000Y-23064000D02*
X66030000Y-23064000D01*
X71364000Y-12396000D02*
X71364000Y-23064000D01*
X68570000Y-15190000D02*
X66284000Y-15190000D01*
%TO.C,C16*%
X44588748Y-13660000D02*
X45111252Y-13660000D01*
X44588748Y-12240000D02*
X45111252Y-12240000D01*
%TO.C,C15*%
X44588748Y-17840000D02*
X45111252Y-17840000D01*
X44588748Y-19260000D02*
X45111252Y-19260000D01*
%TO.C,C11*%
X27385000Y-27738748D02*
X27385000Y-28261252D01*
X25965000Y-27738748D02*
X25965000Y-28261252D01*
%TO.C,D4*%
X70700000Y-35365000D02*
X70700000Y-39025000D01*
X68800000Y-35365000D02*
X68800000Y-39025000D01*
X70700000Y-35365000D02*
X68800000Y-35365000D01*
%TO.C,D6*%
X75147936Y-58360000D02*
X75602064Y-58360000D01*
X75147936Y-56890000D02*
X75602064Y-56890000D01*
%TO.C,C6*%
X36665000Y-38588748D02*
X36665000Y-39111252D01*
X38085000Y-38588748D02*
X38085000Y-39111252D01*
%TO.C,J4*%
X1670000Y-5520000D02*
X3000000Y-5520000D01*
X1670000Y-6850000D02*
X1670000Y-5520000D01*
X1670000Y-8120000D02*
X4330000Y-8120000D01*
X4330000Y-8120000D02*
X4330000Y-41200000D01*
X1670000Y-8120000D02*
X1670000Y-41200000D01*
X1670000Y-41200000D02*
X4330000Y-41200000D01*
%TO.C,R7*%
X38190000Y-50322936D02*
X38190000Y-51777064D01*
X40010000Y-50322936D02*
X40010000Y-51777064D01*
%TO.C,C13*%
X29535000Y-25761252D02*
X29535000Y-25238748D01*
X28115000Y-25761252D02*
X28115000Y-25238748D01*
%TO.C,R2*%
X33410000Y-38147936D02*
X33410000Y-39602064D01*
X31590000Y-38147936D02*
X31590000Y-39602064D01*
%TO.C,C14*%
X44223748Y-9530000D02*
X44746252Y-9530000D01*
X44223748Y-8110000D02*
X44746252Y-8110000D01*
%TO.C,RV1*%
X2150000Y-49379000D02*
X1055000Y-49379000D01*
X11096000Y-49379000D02*
X11096000Y-54420000D01*
X4650000Y-54420000D02*
X4455000Y-54420000D01*
X11096000Y-49379000D02*
X10001000Y-49379000D01*
X7695000Y-54420000D02*
X7500000Y-54420000D01*
X7149000Y-49379000D02*
X5000000Y-49379000D01*
X4455000Y-50737000D02*
X4455000Y-54420000D01*
X11096000Y-54420000D02*
X7500000Y-54420000D01*
X1055000Y-49379000D02*
X1055000Y-54420000D01*
X4650000Y-54420000D02*
X1055000Y-54420000D01*
X7695000Y-50737000D02*
X7695000Y-54420000D01*
X7149000Y-49379000D02*
X5000000Y-49379000D01*
%TO.C,D2*%
X49755000Y-48567064D02*
X49755000Y-48112936D01*
X51225000Y-48567064D02*
X51225000Y-48112936D01*
%TO.C,C9*%
X46910000Y-21213748D02*
X46910000Y-21736252D01*
X45490000Y-21213748D02*
X45490000Y-21736252D01*
%TO.C,Q1*%
X67815000Y-33000000D02*
X67815000Y-34675000D01*
X70935000Y-33000000D02*
X70935000Y-32350000D01*
X70935000Y-33000000D02*
X70935000Y-33650000D01*
X67815000Y-33000000D02*
X67815000Y-32350000D01*
%TO.C,C4*%
X63561252Y-35110000D02*
X63038748Y-35110000D01*
X63561252Y-33690000D02*
X63038748Y-33690000D01*
%TO.C,U2*%
X55040000Y-31350000D02*
X55040000Y-30700000D01*
X55040000Y-31350000D02*
X55040000Y-33025000D01*
X58160000Y-31350000D02*
X58160000Y-30700000D01*
X58160000Y-31350000D02*
X58160000Y-32000000D01*
%TO.C,R6*%
X42510000Y-49777064D02*
X42510000Y-48322936D01*
X40690000Y-49777064D02*
X40690000Y-48322936D01*
%TO.C,R10*%
X51427064Y-39535000D02*
X49972936Y-39535000D01*
X51427064Y-37715000D02*
X49972936Y-37715000D01*
%TO.C,C12*%
X30610000Y-30136252D02*
X30610000Y-29613748D01*
X29190000Y-30136252D02*
X29190000Y-29613748D01*
%TO.C,U1*%
X32890000Y-29160000D02*
X32890000Y-30110000D01*
X32890000Y-19890000D02*
X33840000Y-19890000D01*
X43110000Y-19890000D02*
X42160000Y-19890000D01*
X42160000Y-19890000D02*
X42160000Y-18550000D01*
X43110000Y-20840000D02*
X43110000Y-19890000D01*
X32890000Y-30110000D02*
X33840000Y-30110000D01*
X43110000Y-29160000D02*
X43110000Y-30110000D01*
X43110000Y-30110000D02*
X42160000Y-30110000D01*
X32890000Y-20840000D02*
X32890000Y-19890000D01*
%TO.C,SW4*%
X16000000Y-45545000D02*
X24600000Y-45545000D01*
X24600000Y-45545000D02*
X24600000Y-49845000D01*
X24600000Y-49845000D02*
X16000000Y-49845000D01*
X16000000Y-49845000D02*
X16000000Y-45545000D01*
%TO.C,D1*%
X75647936Y-30310000D02*
X76102064Y-30310000D01*
X75647936Y-28840000D02*
X76102064Y-28840000D01*
%TO.C,C3*%
X56786252Y-35110000D02*
X56263748Y-35110000D01*
X56786252Y-33690000D02*
X56263748Y-33690000D01*
%TO.C,C20*%
X45713748Y-52590000D02*
X46236252Y-52590000D01*
X45713748Y-54010000D02*
X46236252Y-54010000D01*
%TO.C,C10*%
X44160000Y-32163748D02*
X44160000Y-32686252D01*
X42740000Y-32163748D02*
X42740000Y-32686252D01*
%TO.C,R8*%
X22022936Y-24410000D02*
X23477064Y-24410000D01*
X22022936Y-22590000D02*
X23477064Y-22590000D01*
%TO.C,C5*%
X29843748Y-12240000D02*
X30366252Y-12240000D01*
X29843748Y-10820000D02*
X30366252Y-10820000D01*
%TO.C,Y2*%
X35520000Y-12080000D02*
X35520000Y-17480000D01*
X39920000Y-12080000D02*
X35520000Y-12080000D01*
%TO.C,C8*%
X31113748Y-17460000D02*
X31636252Y-17460000D01*
X31113748Y-16040000D02*
X31636252Y-16040000D01*
%TO.C,R5*%
X51450000Y-43062936D02*
X51450000Y-44517064D01*
X49630000Y-43062936D02*
X49630000Y-44517064D01*
%TO.C,R13*%
X53910000Y-51222936D02*
X53910000Y-52677064D01*
X52090000Y-51222936D02*
X52090000Y-52677064D01*
%TO.C,U5*%
X43440000Y-46220000D02*
X43440000Y-47980000D01*
X46510000Y-47980000D02*
X46510000Y-45550000D01*
%TO.C,U3*%
X61790000Y-31300000D02*
X61790000Y-30650000D01*
X61790000Y-31300000D02*
X61790000Y-32975000D01*
X64910000Y-31300000D02*
X64910000Y-30650000D01*
X64910000Y-31300000D02*
X64910000Y-31950000D01*
%TO.C,C2*%
X59840000Y-31038748D02*
X59840000Y-31561252D01*
X61260000Y-31038748D02*
X61260000Y-31561252D01*
%TO.C,C18*%
X33736252Y-14040000D02*
X33213748Y-14040000D01*
X33736252Y-15460000D02*
X33213748Y-15460000D01*
%TO.C,J1*%
X72690000Y-15460000D02*
X73236529Y-15460000D01*
X74910000Y-15460000D02*
X74910000Y-24285000D01*
X72690000Y-14700000D02*
X72690000Y-13940000D01*
X74363471Y-15460000D02*
X74910000Y-15460000D01*
X72690000Y-24285000D02*
X73492470Y-24285000D01*
X72690000Y-13940000D02*
X73800000Y-13940000D01*
X74107530Y-24285000D02*
X74910000Y-24285000D01*
X72690000Y-15460000D02*
X72690000Y-24285000D01*
%TO.C,R9*%
X38840000Y-39802064D02*
X38840000Y-38347936D01*
X40660000Y-39802064D02*
X40660000Y-38347936D01*
%TO.C,D3*%
X34050000Y-36515000D02*
X34050000Y-40175000D01*
X35950000Y-36515000D02*
X35950000Y-40175000D01*
X35950000Y-36515000D02*
X34050000Y-36515000D01*
%TO.C,FB1*%
X21070000Y-34324200D02*
X24940000Y-34324200D01*
X24940000Y-34324200D02*
X24940000Y-27164200D01*
X21070000Y-27164200D02*
X21070000Y-34324200D01*
%TO.C,Y1*%
X45175000Y-15900000D02*
X44575000Y-16500000D01*
X45175000Y-14800000D02*
X47325000Y-14800000D01*
X45175000Y-16700000D02*
X45175000Y-14800000D01*
X45175000Y-15600000D02*
X44575000Y-15000000D01*
X44575000Y-16500000D02*
X44575000Y-16500000D01*
X44575000Y-15000000D02*
X44575000Y-15000000D01*
X47325000Y-16700000D02*
X45175000Y-16700000D01*
%TO.C,J5*%
X28780000Y-6330000D02*
X28780000Y-3670000D01*
X13420000Y-5000000D02*
X13420000Y-3670000D01*
X16020000Y-3670000D02*
X28780000Y-3670000D01*
X13420000Y-3670000D02*
X14750000Y-3670000D01*
X16020000Y-6330000D02*
X16020000Y-3670000D01*
X16020000Y-6330000D02*
X28780000Y-6330000D01*
%TO.C,Q2*%
X75935000Y-33000000D02*
X75935000Y-32350000D01*
X75935000Y-33000000D02*
X75935000Y-33650000D01*
X72815000Y-33000000D02*
X72815000Y-34675000D01*
X72815000Y-33000000D02*
X72815000Y-32350000D01*
%TO.C,XT30PW1*%
X55850000Y-46110000D02*
X56440000Y-46110000D01*
X56440000Y-41790000D02*
X66560000Y-41790000D01*
X56440000Y-51010000D02*
X66560000Y-51010000D01*
X56440000Y-41790000D02*
X56440000Y-43890000D01*
X55850000Y-43890000D02*
X56440000Y-43890000D01*
X66560000Y-41790000D02*
X66560000Y-43890000D01*
X66560000Y-46110000D02*
X67150000Y-46110000D01*
X66560000Y-43890000D02*
X67150000Y-43890000D01*
X66560000Y-46110000D02*
X66560000Y-51010000D01*
X56440000Y-46110000D02*
X56440000Y-51010000D01*
X67150000Y-46110000D02*
G75*
G03*
X67150000Y-43890000I0J1110000D01*
G01*
X55850000Y-43890000D02*
G75*
G03*
X55850000Y-46110000I0J-1110000D01*
G01*
%TO.C,J2*%
X49810000Y-55690000D02*
X49430000Y-55690000D01*
X42190000Y-57460000D02*
X42190000Y-55690000D01*
X42190000Y-55690000D02*
X42570000Y-55690000D01*
X49810000Y-55690000D02*
X49810000Y-57460000D01*
X49810000Y-59740000D02*
X49810000Y-60000000D01*
X42190000Y-60000000D02*
X42190000Y-59740000D01*
%TO.C,SW1*%
X16000000Y-52250000D02*
X24600000Y-52250000D01*
X24600000Y-52250000D02*
X24600000Y-56550000D01*
X24600000Y-56550000D02*
X16000000Y-56550000D01*
X16000000Y-56550000D02*
X16000000Y-52250000D01*
%TO.C,C1*%
X54210000Y-31113748D02*
X54210000Y-31636252D01*
X52790000Y-31113748D02*
X52790000Y-31636252D01*
%TO.C,C7*%
X28010000Y-32286252D02*
X28010000Y-31763748D01*
X26590000Y-32286252D02*
X26590000Y-31763748D01*
%TO.C,R3*%
X27902936Y-39810000D02*
X29357064Y-39810000D01*
X27902936Y-37990000D02*
X29357064Y-37990000D01*
%TO.C,R1*%
X71102064Y-28715000D02*
X69647936Y-28715000D01*
X71102064Y-30535000D02*
X69647936Y-30535000D01*
%TO.C,SW2*%
X31550000Y-47000000D02*
X30050000Y-47000000D01*
X30050000Y-54000000D02*
X31550000Y-54000000D01*
X27550000Y-48250000D02*
X27550000Y-52750000D01*
X34050000Y-52750000D02*
X34050000Y-48250000D01*
%TO.C,R12*%
X66097936Y-59410000D02*
X67552064Y-59410000D01*
X66097936Y-57590000D02*
X67552064Y-57590000D01*
%TO.C,C19*%
X53410000Y-56313748D02*
X53410000Y-56836252D01*
X51990000Y-56313748D02*
X51990000Y-56836252D01*
%TO.C,SW3*%
X76875000Y-53250000D02*
X76875000Y-48750000D01*
X70375000Y-48750000D02*
X70375000Y-53250000D01*
X74375000Y-47500000D02*
X72875000Y-47500000D01*
X72875000Y-54500000D02*
X74375000Y-54500000D01*
%TO.C,J3*%
X33370000Y-6360000D02*
X46130000Y-6360000D01*
X33370000Y-3700000D02*
X46130000Y-3700000D01*
X33370000Y-6360000D02*
X33370000Y-3700000D01*
X30770000Y-6360000D02*
X30770000Y-5030000D01*
X46130000Y-6360000D02*
X46130000Y-3700000D01*
X32100000Y-6360000D02*
X30770000Y-6360000D01*
%TO.C,C17*%
X41870000Y-12178748D02*
X41870000Y-12701252D01*
X40450000Y-12178748D02*
X40450000Y-12701252D01*
%TO.C,R4*%
X30777064Y-42890000D02*
X29322936Y-42890000D01*
X30777064Y-44710000D02*
X29322936Y-44710000D01*
%TO.C,R11*%
X63340000Y-37847936D02*
X63340000Y-39302064D01*
X65160000Y-37847936D02*
X65160000Y-39302064D01*
%TO.C,D5*%
X71602064Y-58360000D02*
X71147936Y-58360000D01*
X71602064Y-56890000D02*
X71147936Y-56890000D01*
%TD*%
M02*
