%TF.GenerationSoftware,KiCad,Pcbnew,(6.0.7)*%
%TF.CreationDate,2023-01-25T23:34:06+01:00*%
%TF.ProjectId,TFT_RF_1.0,5446545f-5246-45f3-912e-302e6b696361,rev?*%
%TF.SameCoordinates,Original*%
%TF.FileFunction,Soldermask,Bot*%
%TF.FilePolarity,Negative*%
%FSLAX46Y46*%
G04 Gerber Fmt 4.6, Leading zero omitted, Abs format (unit mm)*
G04 Created by KiCad (PCBNEW (6.0.7)) date 2023-01-25 23:34:06*
%MOMM*%
%LPD*%
G01*
G04 APERTURE LIST*
%ADD10R,1.700000X1.700000*%
%ADD11C,1.700000*%
%ADD12O,1.700000X1.700000*%
%ADD13C,2.340000*%
%ADD14C,2.000000*%
%ADD15C,1.524000*%
%ADD16C,3.200000*%
%ADD17O,2.000000X1.000000*%
%ADD18C,1.000000*%
%ADD19R,1.000000X1.000000*%
%ADD20C,1.400000*%
%ADD21R,3.500000X3.500000*%
%ADD22C,3.500000*%
G04 APERTURE END LIST*
D10*
%TO.C,U4*%
X67300000Y-13920000D03*
D11*
X69840000Y-13920000D03*
X67300000Y-16460000D03*
X69840000Y-16460000D03*
X67300000Y-19000000D03*
X69840000Y-19000000D03*
X67300000Y-21540000D03*
X69840000Y-21540000D03*
%TD*%
D10*
%TO.C,J4*%
X3000000Y-6850000D03*
D12*
X3000000Y-9390000D03*
X3000000Y-11930000D03*
X3000000Y-14470000D03*
X3000000Y-17010000D03*
X3000000Y-19550000D03*
X3000000Y-22090000D03*
X3000000Y-24630000D03*
X3000000Y-27170000D03*
X3000000Y-29710000D03*
X3000000Y-32250000D03*
X3000000Y-34790000D03*
X3000000Y-37330000D03*
X3000000Y-39870000D03*
%TD*%
D13*
%TO.C,RV1*%
X8575000Y-49500000D03*
X6075000Y-54500000D03*
X3575000Y-49500000D03*
%TD*%
D14*
%TO.C,SW4*%
X24400000Y-47695000D03*
X16200000Y-47695000D03*
D15*
X18350000Y-47645000D03*
X20300000Y-47695000D03*
X22300000Y-47695000D03*
%TD*%
D16*
%TO.C,H1*%
X7920000Y-5000000D03*
%TD*%
D17*
%TO.C,J1*%
X73800000Y-14700000D03*
X73800000Y-15970000D03*
X73800000Y-17240000D03*
X73800000Y-18510000D03*
X73800000Y-19780000D03*
X73800000Y-21050000D03*
X73800000Y-22320000D03*
X73800000Y-23590000D03*
%TD*%
D16*
%TO.C,H4*%
X75180000Y-41720000D03*
%TD*%
D18*
%TO.C,Y1*%
X43875000Y-16500000D03*
X43875000Y-15000000D03*
D19*
X48025000Y-14750000D03*
X48025000Y-16750000D03*
%TD*%
D10*
%TO.C,J5*%
X14750000Y-5000000D03*
D12*
X17290000Y-5000000D03*
X19830000Y-5000000D03*
X22370000Y-5000000D03*
X24910000Y-5000000D03*
X27450000Y-5000000D03*
%TD*%
D20*
%TO.C,XT30PW1*%
X56000000Y-45000000D03*
X67000000Y-45000000D03*
D21*
X64000000Y-55000000D03*
D22*
X59000000Y-55000000D03*
%TD*%
D14*
%TO.C,SW1*%
X16200000Y-54400000D03*
X24400000Y-54400000D03*
D15*
X18350000Y-54350000D03*
X20300000Y-54400000D03*
X22300000Y-54400000D03*
%TD*%
D14*
%TO.C,SW2*%
X28550000Y-47250000D03*
X28550000Y-53750000D03*
X33050000Y-47250000D03*
X33050000Y-53750000D03*
%TD*%
D16*
%TO.C,H3*%
X7920000Y-41720000D03*
%TD*%
D14*
%TO.C,SW3*%
X71375000Y-54250000D03*
X71375000Y-47750000D03*
X75875000Y-54250000D03*
X75875000Y-47750000D03*
%TD*%
D10*
%TO.C,J3*%
X32100000Y-5030000D03*
D12*
X34640000Y-5030000D03*
X37180000Y-5030000D03*
X39720000Y-5030000D03*
X42260000Y-5030000D03*
X44800000Y-5030000D03*
%TD*%
D16*
%TO.C,H2*%
X75180000Y-5000000D03*
%TD*%
M02*
