M48
; DRILL file {KiCad (6.0.7)} date Wed Jan 25 23:34:00 2023
; FORMAT={-:-/ absolute / metric / decimal}
; #@! TF.CreationDate,2023-01-25T23:34:00+01:00
; #@! TF.GenerationSoftware,Kicad,Pcbnew,(6.0.7)
; #@! TF.FileFunction,MixedPlating,1,2
FMAT,2
METRIC
; #@! TA.AperFunction,Plated,PTH,ViaDrill
T1C0.300
; #@! TA.AperFunction,Plated,PTH,ViaDrill
T2C0.400
; #@! TA.AperFunction,Plated,PTH,ViaDrill
T3C0.500
; #@! TA.AperFunction,Plated,PTH,ComponentDrill
T4C0.500
; #@! TA.AperFunction,Plated,PTH,ComponentDrill
T5C0.650
; #@! TA.AperFunction,Plated,PTH,ComponentDrill
T6C0.762
; #@! TA.AperFunction,Plated,PTH,ComponentDrill
T7C1.000
; #@! TA.AperFunction,Plated,PTH,ComponentDrill
T8C1.100
; #@! TA.AperFunction,Plated,PTH,ComponentDrill
T9C1.300
; #@! TA.AperFunction,Plated,PTH,ComponentDrill
T10C1.900
; #@! TA.AperFunction,NonPlated,NPTH,ComponentDrill
T11C1.500
; #@! TA.AperFunction,NonPlated,NPTH,ComponentDrill
T12C3.200
%
G90
G05
T1
X8.03Y-24.63
X13.43Y-39.59
X15.7Y-16.225
X17.75Y-17.825
X17.75Y-20.425
X18.75Y-25.5
X19.625Y-17.625
X19.8Y-34.775
X21.02Y-42.99
X23.2Y-29.725
X25.14Y-41.27
X26.39Y-51.85
X26.75Y-36.325
X30.425Y-36.325
X33.65Y-34.775
X33.975Y-32.175
X35.5Y-26.75
X36.25Y-35.75
X37.04Y-23.52
X37.375Y-32.175
X37.89Y-22.99
X38.125Y-27.75
X38.5Y-32.175
X38.7Y-22.18
X39.25Y-27.625
X40.61Y-21.28
X41.02Y-34.54
X41.53Y-26.63
X41.6Y-7.98
X41.7Y-9.51
X41.7Y-21.24
X45.875Y-28.625
X48.12Y-20.06
X48.24Y-41.85
X48.59Y-23.01
X48.62Y-32.005
X51.04Y-18.13
X51.46Y-21.55
X51.875Y-35.5
X52.65Y-22.85
X53.625Y-41.5
X53.85Y-14.98
X53.85Y-20.73
X53.875Y-43.125
X55.875Y-39.5
X56.43Y-14.42
X63.05Y-22.82
X63.05Y-25.92
X64.75Y-51.0
X69.5Y-34.0
X71.875Y-33.25
X71.875Y-34.75
X72.5Y-13.125
X73.875Y-50.875
X75.03Y-12.02
X75.375Y-36.125
X76.75Y-35.5
X76.875Y-33.75
T2
X14.75Y-8.5
X15.625Y-11.25
X17.75Y-8.625
X18.875Y-11.0
X20.125Y-8.5
X21.375Y-11.75
X24.25Y-13.25
X25.5Y-8.5
X32.125Y-19.099
X35.0Y-21.25
X35.125Y-42.375
X54.0Y-35.625
X54.75Y-37.625
T3
X42.375Y-35.0
X44.125Y-50.625
X48.86Y-52.63
X53.375Y-34.125
X60.5Y-34.875
X66.75Y-34.125
T4
X43.875Y-15.0
X43.875Y-16.5
X48.025Y-14.75
X48.025Y-16.75
T5
X73.8Y-14.7
X73.8Y-15.97
X73.8Y-17.24
X73.8Y-18.51
X73.8Y-19.78
X73.8Y-21.05
X73.8Y-22.32
X73.8Y-23.59
T6
X18.35Y-47.645
X18.35Y-54.35
X20.3Y-47.695
X20.3Y-54.4
X22.3Y-47.695
X22.3Y-54.4
T7
X3.0Y-6.85
X3.0Y-9.39
X3.0Y-11.93
X3.0Y-14.47
X3.0Y-17.01
X3.0Y-19.55
X3.0Y-22.09
X3.0Y-24.63
X3.0Y-27.17
X3.0Y-29.71
X3.0Y-32.25
X3.0Y-34.79
X3.0Y-37.33
X3.0Y-39.87
X14.75Y-5.0
X17.29Y-5.0
X19.83Y-5.0
X22.37Y-5.0
X24.91Y-5.0
X27.45Y-5.0
X32.1Y-5.03
X34.64Y-5.03
X37.18Y-5.03
X39.72Y-5.03
X42.26Y-5.03
X44.8Y-5.03
X56.0Y-45.0
X67.0Y-45.0
X67.3Y-13.92
X67.3Y-16.46
X67.3Y-19.0
X67.3Y-21.54
X69.84Y-13.92
X69.84Y-16.46
X69.84Y-19.0
X69.84Y-21.54
T8
X28.55Y-47.25
X28.55Y-53.75
X33.05Y-47.25
X33.05Y-53.75
X71.375Y-47.75
X71.375Y-54.25
X75.875Y-47.75
X75.875Y-54.25
T9
X3.575Y-49.5
X6.075Y-54.5
X8.575Y-49.5
T10
X59.0Y-55.0
X64.0Y-55.0
T11
X16.2Y-47.695
X16.2Y-54.4
X24.4Y-47.695
X24.4Y-54.4
T12
X7.92Y-5.0
X7.92Y-41.72
X75.18Y-5.0
X75.18Y-41.72
T0
M30
